# Blender 5.0.1
# www.blender.org
mtllib base_plate.mtl
o base_plate
v 34.468273 6.077686 -0.000000
v 34.276920 7.077615 -0.000001
v 34.056572 8.071555 -0.000001
v 34.468273 6.077689 30.000000
v 34.056572 8.071557 30.000000
v 34.276920 7.077618 30.000000
v 33.807404 9.058666 -0.000001
v 33.807404 9.058668 30.000000
v 33.529633 10.038114 -0.000001
v 33.529633 10.038116 30.000000
v 33.223492 11.009067 -0.000001
v 33.223492 11.009068 30.000000
v 32.889240 11.970705 -0.000001
v 32.889240 11.970707 30.000000
v 32.527164 12.922215 -0.000001
v 32.527164 12.922217 29.999998
v 32.137566 13.862792 -0.000001
v 32.137566 13.862794 29.999998
v 31.720772 14.791639 -0.000001
v 31.720772 14.791641 29.999998
v 31.277142 15.707972 -0.000001
v 31.277142 15.707973 29.999998
v 30.807049 16.611013 -0.000001
v 30.807049 16.611015 29.999998
v 30.310888 17.500000 -0.000001
v 30.310888 17.500002 29.999998
v 29.789083 18.374180 -0.000001
v 29.789083 18.374182 29.999998
v 29.242073 19.232815 -0.000001
v 29.242073 19.232817 29.999998
v 28.670322 20.075174 -0.000002
v 28.670322 20.075176 29.999998
v 28.074312 20.900551 -0.000002
v 28.074312 20.900553 29.999998
v 27.454548 21.708242 -0.000002
v 27.454548 21.708244 29.999998
v 26.811556 22.497566 -0.000002
v 26.811556 22.497568 29.999998
v 26.145878 23.267855 -0.000002
v 26.145878 23.267857 29.999998
v 25.458078 24.018457 -0.000002
v 25.458078 24.018459 29.999998
v 24.748737 24.748737 -0.000002
v 24.748737 24.748739 29.999998
v 24.018457 25.458078 -0.000002
v 24.018457 25.458080 29.999998
v 23.267855 26.145878 -0.000002
v 23.267855 26.145880 29.999998
v 22.497566 26.811556 -0.000002
v 22.497566 26.811558 29.999998
v 21.708242 27.454548 -0.000002
v 21.708242 27.454550 29.999998
v 20.900551 28.074312 -0.000002
v 20.900551 28.074314 29.999998
v 20.075174 28.670322 -0.000002
v 20.075174 28.670324 29.999998
v 19.232815 29.242073 -0.000002
v 19.232815 29.242075 29.999998
v 18.374180 29.789083 -0.000002
v 18.374180 29.789085 29.999998
v 17.500000 30.310888 -0.000002
v 17.500000 30.310890 29.999998
v 16.611013 30.807049 -0.000002
v 16.611013 30.807051 29.999998
v 15.707972 31.277142 -0.000002
v 15.707972 31.277143 29.999998
v 14.791639 31.720772 -0.000002
v 14.791639 31.720774 29.999998
v 13.862792 32.137566 -0.000002
v 13.862792 32.137569 29.999998
v 12.922215 32.527164 -0.000002
v 12.922215 32.527168 29.999998
v 11.970705 32.889240 -0.000002
v 11.970705 32.889244 29.999998
v 11.009067 33.223492 -0.000003
v 11.009067 33.223495 29.999998
v 10.038114 33.529633 -0.000003
v 10.038114 33.529636 29.999998
v 9.058666 33.807404 -0.000003
v 9.058666 33.807407 29.999998
v 8.071555 34.056572 -0.000003
v 8.071555 34.056576 29.999998
v 7.077615 34.276920 -0.000003
v 7.077615 34.276924 29.999998
v 6.077686 34.468273 -0.000003
v 6.077686 34.468277 29.999998
v 5.072615 34.630459 -0.000003
v 5.072615 34.630463 29.999998
v 4.063252 34.763344 -0.000003
v 4.063252 34.763348 29.999998
v 3.050451 34.866814 -0.000003
v 3.050451 34.866817 29.999998
v 2.035069 34.940784 -0.000003
v 2.035069 34.940788 29.999998
v 1.017965 34.985195 -0.000003
v 1.017965 34.985199 29.999998
v 0.000000 35.000000 -0.000003
v 0.000000 35.000004 29.999998
v -1.017965 34.985195 -0.000003
v -1.017965 34.985199 29.999998
v -2.035069 34.940784 -0.000003
v -2.035069 34.940788 29.999998
v -3.050451 34.866814 -0.000003
v -3.050451 34.866817 29.999998
v -4.063252 34.763344 -0.000003
v -4.063252 34.763348 29.999998
v -5.072615 34.630459 -0.000003
v -5.072615 34.630463 29.999998
v -6.077686 34.468273 -0.000003
v -6.077686 34.468277 29.999998
v -7.077615 34.276920 -0.000003
v -7.077615 34.276924 29.999998
v -8.071555 34.056572 -0.000003
v -8.071555 34.056576 29.999998
v -9.058666 33.807404 -0.000003
v -9.058666 33.807407 29.999998
v -10.038114 33.529633 -0.000003
v -10.038114 33.529636 29.999998
v -11.009067 33.223492 -0.000003
v -11.009067 33.223495 29.999998
v -11.970705 32.889240 -0.000002
v -11.970705 32.889244 29.999998
v -51.303020 140.953888 -0.000011
v -51.303020 140.953888 29.999989
v -47.181713 142.386398 -0.000011
v -47.181713 142.386398 29.999989
v -43.020485 143.698425 -0.000011
v -43.020485 143.698425 29.999989
v -38.822857 144.888870 -0.000011
v -38.822857 144.888870 29.999989
v -34.592381 145.956726 -0.000011
v -34.592381 145.956726 29.999989
v -30.332636 146.901093 -0.000011
v -30.332636 146.901093 29.999989
v -26.047226 147.721161 -0.000011
v -26.047226 147.721161 29.999989
v -21.739779 148.416245 -0.000011
v -21.739779 148.416245 29.999989
v -17.413937 148.985748 -0.000011
v -17.413937 148.985748 29.999989
v -13.073361 149.429199 -0.000011
v -13.073361 149.429199 29.999989
v -8.721725 149.746231 -0.000011
v -8.721725 149.746231 29.999989
v -4.362708 149.936539 -0.000011
v -4.362708 149.936539 29.999989
v 0.000000 150.000000 -0.000011
v 0.000000 150.000000 29.999989
v 4.362708 149.936539 -0.000011
v 4.362708 149.936539 29.999989
v 8.721725 149.746231 -0.000011
v 8.721725 149.746231 29.999989
v 13.073361 149.429199 -0.000011
v 13.073361 149.429199 29.999989
v 17.413937 148.985748 -0.000011
v 17.413937 148.985748 29.999989
v 21.739779 148.416245 -0.000011
v 21.739779 148.416245 29.999989
v 26.047226 147.721161 -0.000011
v 26.047226 147.721161 29.999989
v 30.332636 146.901093 -0.000011
v 30.332636 146.901093 29.999989
v 34.592381 145.956726 -0.000011
v 34.592381 145.956726 29.999989
v 38.822857 144.888870 -0.000011
v 38.822857 144.888870 29.999989
v 43.020485 143.698425 -0.000011
v 43.020485 143.698425 29.999989
v 47.181713 142.386398 -0.000011
v 47.181713 142.386398 29.999989
v 51.303020 140.953888 -0.000011
v 51.303020 140.953888 29.999989
v 55.380920 139.402130 -0.000011
v 55.380920 139.402130 29.999989
v 59.411964 137.732422 -0.000010
v 59.411964 137.732422 29.999990
v 63.392738 135.946167 -0.000010
v 63.392738 135.946167 29.999990
v 67.319878 134.044891 -0.000010
v 67.319878 134.044891 29.999990
v 71.190056 132.030212 -0.000010
v 71.190056 132.030212 29.999990
v 75.000000 129.903809 -0.000010
v 75.000000 129.903809 29.999990
v 78.746490 127.667503 -0.000010
v 78.746490 127.667503 29.999990
v 82.426346 125.323174 -0.000009
v 82.426346 125.323174 29.999990
v 86.036469 122.872810 -0.000009
v 86.036469 122.872810 29.999990
v 89.573792 120.318481 -0.000009
v 89.573792 120.318481 29.999990
v 93.035324 117.662354 -0.000009
v 93.035324 117.662354 29.999990
v 96.418144 114.906670 -0.000009
v 96.418144 114.906670 29.999990
v 99.719383 112.053764 -0.000008
v 99.719383 112.053764 29.999992
v 102.936249 109.106049 -0.000008
v 102.936249 109.106049 29.999992
v 106.066017 106.066017 -0.000008
v 106.066017 106.066017 29.999992
v 109.106049 102.936249 -0.000008
v 109.106049 102.936249 29.999992
v 112.053764 99.719383 -0.000008
v 112.053764 99.719383 29.999992
v 114.906670 96.418144 -0.000007
v 114.906670 96.418144 29.999992
v 117.662354 93.035324 -0.000007
v 117.662354 93.035324 29.999992
v 120.318481 89.573792 -0.000007
v 120.318481 89.573792 29.999992
v 122.872810 86.036469 -0.000006
v 122.872810 86.036469 29.999994
v 125.323174 82.426346 -0.000006
v 125.323174 82.426346 29.999994
v 127.667503 78.746490 -0.000006
v 127.667503 78.746490 29.999994
v 129.903809 75.000000 -0.000006
v 129.903809 75.000000 29.999994
v 132.030212 71.190056 -0.000005
v 132.030212 71.190056 29.999994
v 134.044891 67.319878 -0.000005
v 134.044891 67.319878 29.999994
v 135.946167 63.392738 -0.000005
v 135.946167 63.392742 29.999994
v 137.732422 59.411964 -0.000004
v 137.732422 59.411968 29.999996
v 139.402130 55.380920 -0.000004
v 139.402130 55.380924 29.999996
v 140.953888 51.303020 -0.000004
v 140.953888 51.303024 29.999996
v 142.386398 47.181713 -0.000004
v 142.386398 47.181717 29.999996
v 143.698425 43.020485 -0.000003
v 143.698425 43.020489 29.999996
v 144.888870 38.822857 -0.000003
v 144.888870 38.822861 29.999996
v 145.956726 34.592381 -0.000003
v 145.956726 34.592384 29.999998
v 146.901093 30.332636 -0.000002
v 146.901093 30.332638 29.999998
v 147.721161 26.047226 -0.000002
v 147.721161 26.047228 29.999998
v -22.497566 26.811556 -0.000002
v -23.267855 26.145878 -0.000002
v -24.018457 25.458078 -0.000002
v -22.497566 26.811558 29.999998
v -24.018457 25.458080 29.999998
v -23.267855 26.145880 29.999998
v -24.748737 24.748737 -0.000002
v -24.748737 24.748739 29.999998
v -25.458078 24.018457 -0.000002
v -25.458078 24.018459 29.999998
v -26.145878 23.267855 -0.000002
v -26.145878 23.267857 29.999998
v -26.811556 22.497566 -0.000002
v -26.811556 22.497568 29.999998
v -27.454548 21.708242 -0.000002
v -27.454548 21.708244 29.999998
v -28.074312 20.900551 -0.000002
v -28.074312 20.900553 29.999998
v -28.670322 20.075174 -0.000002
v -28.670322 20.075176 29.999998
v -29.242073 19.232815 -0.000001
v -29.242073 19.232817 29.999998
v -29.789083 18.374180 -0.000001
v -29.789083 18.374182 29.999998
v -30.310888 17.500000 -0.000001
v -30.310888 17.500002 29.999998
v -30.807049 16.611013 -0.000001
v -30.807049 16.611015 29.999998
v -31.277142 15.707972 -0.000001
v -31.277142 15.707973 29.999998
v -31.720772 14.791639 -0.000001
v -31.720772 14.791641 29.999998
v -32.137566 13.862792 -0.000001
v -32.137566 13.862794 29.999998
v -32.527164 12.922215 -0.000001
v -32.527164 12.922217 29.999998
v -32.889240 11.970705 -0.000001
v -32.889240 11.970707 30.000000
v -33.223492 11.009067 -0.000001
v -33.223492 11.009068 30.000000
v -33.529633 10.038114 -0.000001
v -33.529633 10.038116 30.000000
v -33.807404 9.058666 -0.000001
v -33.807404 9.058668 30.000000
v -34.056572 8.071555 -0.000001
v -34.056572 8.071557 30.000000
v -34.276920 7.077615 -0.000001
v -34.276920 7.077618 30.000000
v -34.468273 6.077686 -0.000000
v -34.468273 6.077689 30.000000
v -34.630459 5.072615 -0.000000
v -34.630459 5.072618 30.000000
v -34.763344 4.063252 -0.000000
v -34.763344 4.063254 30.000000
v -34.866814 3.050451 -0.000000
v -34.866814 3.050453 30.000000
v -34.940784 2.035069 -0.000000
v -34.940784 2.035071 30.000000
v -34.985195 1.017965 -0.000000
v -34.985195 1.017967 30.000000
v -35.000000 0.000000 0.000000
v -35.000000 0.000002 30.000000
v -34.985195 -1.017965 0.000000
v -34.985195 -1.017963 30.000000
v -34.940784 -2.035069 0.000000
v -34.940784 -2.035067 30.000000
v -34.866814 -3.050451 0.000000
v -34.866814 -3.050449 30.000000
v -34.763344 -4.063252 0.000000
v -34.763344 -4.063250 30.000000
v -34.630459 -5.072615 0.000000
v -34.630459 -5.072613 30.000000
v -34.468273 -6.077686 0.000000
v -34.468273 -6.077684 30.000000
v -34.276920 -7.077615 0.000001
v -34.276920 -7.077613 30.000000
v -34.056572 -8.071555 0.000001
v -34.056572 -8.071553 30.000000
v -33.807404 -9.058666 0.000001
v -33.807404 -9.058664 30.000000
v -33.529633 -10.038114 0.000001
v -33.529633 -10.038112 30.000000
v -33.223492 -11.009067 0.000001
v -33.223492 -11.009065 30.000000
v -32.889240 -11.970705 0.000001
v -32.889240 -11.970703 30.000000
v -32.527164 -12.922215 0.000001
v -32.527164 -12.922214 30.000002
v -32.137566 -13.862792 0.000001
v -32.137566 -13.862790 30.000002
v -31.720772 -14.791639 0.000001
v -31.720772 -14.791637 30.000002
v -31.277142 -15.707972 0.000001
v -31.277142 -15.707970 30.000002
v -30.807049 -16.611013 0.000001
v -30.807049 -16.611012 30.000002
v -30.310888 -17.500000 0.000001
v -30.310888 -17.499998 30.000002
v -29.789083 -18.374180 0.000001
v -29.789083 -18.374178 30.000002
v -29.242073 -19.232815 0.000001
v -29.242073 -19.232813 30.000002
v -28.670322 -20.075174 0.000002
v -28.670322 -20.075172 30.000002
v -28.074312 -20.900551 0.000002
v -28.074312 -20.900549 30.000002
v -27.454548 -21.708242 0.000002
v -27.454548 -21.708241 30.000002
v -26.811556 -22.497566 0.000002
v -26.811556 -22.497564 30.000002
v -26.145878 -23.267855 0.000002
v -26.145878 -23.267853 30.000002
v -25.458078 -24.018457 0.000002
v -25.458078 -24.018456 30.000002
v -24.748737 -24.748737 0.000002
v -24.748737 -24.748735 30.000002
v -24.018457 -25.458078 0.000002
v -24.018457 -25.458076 30.000002
v -23.267855 -26.145878 0.000002
v -23.267855 -26.145876 30.000002
v -22.497566 -26.811556 0.000002
v -22.497566 -26.811554 30.000002
v -96.418144 -114.906670 0.000009
v -96.418144 -114.906670 30.000010
v -99.719383 -112.053764 0.000008
v -99.719383 -112.053764 30.000008
v -102.936249 -109.106049 0.000008
v -102.936249 -109.106049 30.000008
v -106.066017 -106.066017 0.000008
v -106.066017 -106.066017 30.000008
v -109.106049 -102.936249 0.000008
v -109.106049 -102.936249 30.000008
v -112.053764 -99.719383 0.000008
v -112.053764 -99.719383 30.000008
v -114.906670 -96.418144 0.000007
v -114.906670 -96.418144 30.000008
v -117.662354 -93.035324 0.000007
v -117.662354 -93.035324 30.000008
v -120.318481 -89.573792 0.000007
v -120.318481 -89.573792 30.000008
v -122.872810 -86.036469 0.000006
v -122.872810 -86.036469 30.000006
v -125.323174 -82.426346 0.000006
v -125.323174 -82.426346 30.000006
v -127.667503 -78.746490 0.000006
v -127.667503 -78.746490 30.000006
v -129.903809 -75.000000 0.000006
v -129.903809 -75.000000 30.000006
v -132.030212 -71.190056 0.000005
v -132.030212 -71.190056 30.000006
v -134.044891 -67.319878 0.000005
v -134.044891 -67.319878 30.000006
v -135.946167 -63.392738 0.000005
v -135.946167 -63.392735 30.000006
v -137.732422 -59.411964 0.000004
v -137.732422 -59.411961 30.000004
v -139.402130 -55.380920 0.000004
v -139.402130 -55.380917 30.000004
v -140.953888 -51.303020 0.000004
v -140.953888 -51.303017 30.000004
v -142.386398 -47.181713 0.000004
v -142.386398 -47.181709 30.000004
v -143.698425 -43.020485 0.000003
v -143.698425 -43.020481 30.000004
v -144.888870 -38.822857 0.000003
v -144.888870 -38.822853 30.000004
v -145.956726 -34.592381 0.000003
v -145.956726 -34.592377 30.000002
v -146.901093 -30.332636 0.000002
v -146.901093 -30.332634 30.000002
v -147.721161 -26.047226 0.000002
v -147.721161 -26.047224 30.000002
v -148.416245 -21.739779 0.000002
v -148.416245 -21.739777 30.000002
v -148.985748 -17.413937 0.000001
v -148.985748 -17.413935 30.000002
v -149.429199 -13.073361 0.000001
v -149.429199 -13.073359 30.000002
v -149.746231 -8.721725 0.000001
v -149.746231 -8.721723 30.000000
v -149.936539 -4.362708 0.000000
v -149.936539 -4.362705 30.000000
v -150.000000 0.000000 0.000000
v -150.000000 0.000002 30.000000
v -149.936539 4.362708 -0.000000
v -149.936539 4.362710 30.000000
v -149.746231 8.721725 -0.000001
v -149.746231 8.721726 30.000000
v -149.429199 13.073361 -0.000001
v -149.429199 13.073363 29.999998
v -148.985748 17.413937 -0.000001
v -148.985748 17.413939 29.999998
v -148.416245 21.739779 -0.000002
v -148.416245 21.739780 29.999998
v -147.721161 26.047226 -0.000002
v -147.721161 26.047228 29.999998
v -146.901093 30.332636 -0.000002
v -146.901093 30.332638 29.999998
v -145.956726 34.592381 -0.000003
v -145.956726 34.592384 29.999998
v -144.888870 38.822857 -0.000003
v -144.888870 38.822861 29.999996
v -143.698425 43.020485 -0.000003
v -143.698425 43.020489 29.999996
v -142.386398 47.181713 -0.000004
v -142.386398 47.181717 29.999996
v -140.953888 51.303020 -0.000004
v -140.953888 51.303024 29.999996
v -139.402130 55.380920 -0.000004
v -139.402130 55.380924 29.999996
v -137.732422 59.411964 -0.000004
v -137.732422 59.411968 29.999996
v -135.946167 63.392738 -0.000005
v -135.946167 63.392742 29.999994
v -134.044891 67.319878 -0.000005
v -134.044891 67.319878 29.999994
v -132.030212 71.190056 -0.000005
v -132.030212 71.190056 29.999994
v -129.903809 75.000000 -0.000006
v -129.903809 75.000000 29.999994
v -127.667503 78.746490 -0.000006
v -127.667503 78.746490 29.999994
v -125.323174 82.426346 -0.000006
v -125.323174 82.426346 29.999994
v -122.872810 86.036469 -0.000006
v -122.872810 86.036469 29.999994
v -120.318481 89.573792 -0.000007
v -120.318481 89.573792 29.999992
v -117.662354 93.035324 -0.000007
v -117.662354 93.035324 29.999992
v -114.906670 96.418144 -0.000007
v -114.906670 96.418144 29.999992
v -112.053764 99.719383 -0.000008
v -112.053764 99.719383 29.999992
v -109.106049 102.936249 -0.000008
v -109.106049 102.936249 29.999992
v -106.066017 106.066017 -0.000008
v -106.066017 106.066017 29.999992
v -102.936249 109.106049 -0.000008
v -102.936249 109.106049 29.999992
v -99.719383 112.053764 -0.000008
v -99.719383 112.053764 29.999992
v -96.418144 114.906670 -0.000009
v -96.418144 114.906670 29.999990
v -11.970705 -32.889240 0.000002
v -11.009067 -33.223492 0.000003
v -10.038114 -33.529633 0.000003
v -11.970705 -32.889236 30.000002
v -10.038114 -33.529629 30.000002
v -11.009067 -33.223488 30.000002
v -9.058666 -33.807404 0.000003
v -9.058666 -33.807400 30.000002
v -8.071555 -34.056572 0.000003
v -8.071555 -34.056568 30.000002
v -7.077615 -34.276920 0.000003
v -7.077615 -34.276917 30.000002
v -6.077686 -34.468273 0.000003
v -6.077686 -34.468269 30.000002
v -5.072615 -34.630459 0.000003
v -5.072615 -34.630455 30.000002
v -4.063252 -34.763344 0.000003
v -4.063252 -34.763340 30.000002
v -3.050451 -34.866814 0.000003
v -3.050451 -34.866810 30.000002
v -2.035069 -34.940784 0.000003
v -2.035069 -34.940781 30.000002
v -1.017965 -34.985195 0.000003
v -1.017965 -34.985191 30.000002
v 0.000000 -35.000000 0.000003
v 0.000000 -34.999996 30.000002
v 1.017965 -34.985195 0.000003
v 1.017965 -34.985191 30.000002
v 2.035069 -34.940784 0.000003
v 2.035069 -34.940781 30.000002
v 3.050451 -34.866814 0.000003
v 3.050451 -34.866810 30.000002
v 4.063252 -34.763344 0.000003
v 4.063252 -34.763340 30.000002
v 5.072615 -34.630459 0.000003
v 5.072615 -34.630455 30.000002
v 6.077686 -34.468273 0.000003
v 6.077686 -34.468269 30.000002
v 7.077615 -34.276920 0.000003
v 7.077615 -34.276917 30.000002
v 8.071555 -34.056572 0.000003
v 8.071555 -34.056568 30.000002
v 9.058666 -33.807404 0.000003
v 9.058666 -33.807400 30.000002
v 10.038114 -33.529633 0.000003
v 10.038114 -33.529629 30.000002
v 11.009067 -33.223492 0.000003
v 11.009067 -33.223488 30.000002
v 11.970705 -32.889240 0.000002
v 11.970705 -32.889236 30.000002
v 12.922215 -32.527164 0.000002
v 12.922215 -32.527161 30.000002
v 13.862792 -32.137566 0.000002
v 13.862792 -32.137562 30.000002
v 14.791639 -31.720772 0.000002
v 14.791639 -31.720770 30.000002
v 15.707972 -31.277142 0.000002
v 15.707972 -31.277140 30.000002
v 16.611013 -30.807049 0.000002
v 16.611013 -30.807047 30.000002
v 17.500000 -30.310888 0.000002
v 17.500000 -30.310886 30.000002
v 18.374180 -29.789083 0.000002
v 18.374180 -29.789082 30.000002
v 19.232815 -29.242073 0.000002
v 19.232815 -29.242071 30.000002
v 20.075174 -28.670322 0.000002
v 20.075174 -28.670321 30.000002
v 20.900551 -28.074312 0.000002
v 20.900551 -28.074310 30.000002
v 21.708242 -27.454548 0.000002
v 21.708242 -27.454546 30.000002
v 22.497566 -26.811556 0.000002
v 22.497566 -26.811554 30.000002
v 23.267855 -26.145878 0.000002
v 23.267855 -26.145876 30.000002
v 24.018457 -25.458078 0.000002
v 24.018457 -25.458076 30.000002
v 24.748737 -24.748737 0.000002
v 24.748737 -24.748735 30.000002
v 25.458078 -24.018457 0.000002
v 25.458078 -24.018456 30.000002
v 26.145878 -23.267855 0.000002
v 26.145878 -23.267853 30.000002
v 26.811556 -22.497566 0.000002
v 26.811556 -22.497564 30.000002
v 27.454548 -21.708242 0.000002
v 27.454548 -21.708241 30.000002
v 28.074312 -20.900551 0.000002
v 28.074312 -20.900549 30.000002
v 28.670322 -20.075174 0.000002
v 28.670322 -20.075172 30.000002
v 29.242073 -19.232815 0.000001
v 29.242073 -19.232813 30.000002
v 29.789083 -18.374180 0.000001
v 29.789083 -18.374178 30.000002
v 30.310888 -17.500000 0.000001
v 30.310888 -17.499998 30.000002
v 30.807049 -16.611013 0.000001
v 30.807049 -16.611012 30.000002
v 31.277142 -15.707972 0.000001
v 31.277142 -15.707970 30.000002
v 31.720772 -14.791639 0.000001
v 31.720772 -14.791637 30.000002
v 32.137566 -13.862792 0.000001
v 32.137566 -13.862790 30.000002
v 32.527164 -12.922215 0.000001
v 32.527164 -12.922214 30.000002
v 32.889240 -11.970705 0.000001
v 32.889240 -11.970703 30.000000
v 33.223492 -11.009067 0.000001
v 33.223492 -11.009065 30.000000
v 33.529633 -10.038114 0.000001
v 33.529633 -10.038112 30.000000
v 33.807404 -9.058666 0.000001
v 33.807404 -9.058664 30.000000
v 34.056572 -8.071555 0.000001
v 34.056572 -8.071553 30.000000
v 34.276920 -7.077615 0.000001
v 34.276920 -7.077613 30.000000
v 34.468273 -6.077686 0.000000
v 34.468273 -6.077684 30.000000
v 147.721161 -26.047226 0.000002
v 147.721161 -26.047224 30.000002
v 146.901093 -30.332636 0.000002
v 146.901093 -30.332634 30.000002
v 145.956726 -34.592381 0.000003
v 145.956726 -34.592377 30.000002
v 144.888870 -38.822857 0.000003
v 144.888870 -38.822853 30.000004
v 143.698425 -43.020485 0.000003
v 143.698425 -43.020481 30.000004
v 142.386398 -47.181713 0.000004
v 142.386398 -47.181709 30.000004
v 140.953888 -51.303020 0.000004
v 140.953888 -51.303017 30.000004
v 139.402130 -55.380920 0.000004
v 139.402130 -55.380917 30.000004
v 137.732422 -59.411964 0.000004
v 137.732422 -59.411961 30.000004
v 135.946167 -63.392738 0.000005
v 135.946167 -63.392735 30.000006
v 134.044891 -67.319878 0.000005
v 134.044891 -67.319878 30.000006
v 132.030212 -71.190056 0.000005
v 132.030212 -71.190056 30.000006
v 129.903809 -75.000000 0.000006
v 129.903809 -75.000000 30.000006
v 127.667503 -78.746490 0.000006
v 127.667503 -78.746490 30.000006
v 125.323174 -82.426346 0.000006
v 125.323174 -82.426346 30.000006
v 122.872810 -86.036469 0.000006
v 122.872810 -86.036469 30.000006
v 120.318481 -89.573792 0.000007
v 120.318481 -89.573792 30.000008
v 117.662354 -93.035324 0.000007
v 117.662354 -93.035324 30.000008
v 114.906670 -96.418144 0.000007
v 114.906670 -96.418144 30.000008
v 112.053764 -99.719383 0.000008
v 112.053764 -99.719383 30.000008
v 109.106049 -102.936249 0.000008
v 109.106049 -102.936249 30.000008
v 106.066017 -106.066017 0.000008
v 106.066017 -106.066017 30.000008
v 102.936249 -109.106049 0.000008
v 102.936249 -109.106049 30.000008
v 99.719383 -112.053764 0.000008
v 99.719383 -112.053764 30.000008
v 96.418144 -114.906670 0.000009
v 96.418144 -114.906670 30.000010
v 93.035324 -117.662354 0.000009
v 93.035324 -117.662354 30.000010
v 89.573792 -120.318481 0.000009
v 89.573792 -120.318481 30.000010
v 86.036469 -122.872810 0.000009
v 86.036469 -122.872810 30.000010
v 82.426346 -125.323174 0.000009
v 82.426346 -125.323174 30.000010
v 78.746490 -127.667503 0.000010
v 78.746490 -127.667503 30.000010
v 75.000000 -129.903809 0.000010
v 75.000000 -129.903809 30.000010
v 71.190056 -132.030212 0.000010
v 71.190056 -132.030212 30.000010
v 67.319878 -134.044891 0.000010
v 67.319878 -134.044891 30.000010
v 63.392738 -135.946167 0.000010
v 63.392738 -135.946167 30.000010
v 59.411964 -137.732422 0.000010
v 59.411964 -137.732422 30.000010
v 55.380920 -139.402130 0.000011
v 55.380920 -139.402130 30.000011
v 51.303020 -140.953888 0.000011
v 51.303020 -140.953888 30.000011
v 47.181713 -142.386398 0.000011
v 47.181713 -142.386398 30.000011
v 43.020485 -143.698425 0.000011
v 43.020485 -143.698425 30.000011
v 38.822857 -144.888870 0.000011
v 38.822857 -144.888870 30.000011
v 34.592381 -145.956726 0.000011
v 34.592381 -145.956726 30.000011
v 30.332636 -146.901093 0.000011
v 30.332636 -146.901093 30.000011
v 26.047226 -147.721161 0.000011
v 26.047226 -147.721161 30.000011
v 21.739779 -148.416245 0.000011
v 21.739779 -148.416245 30.000011
v 17.413937 -148.985748 0.000011
v 17.413937 -148.985748 30.000011
v 13.073361 -149.429199 0.000011
v 13.073361 -149.429199 30.000011
v 8.721725 -149.746231 0.000011
v 8.721725 -149.746231 30.000011
v 4.362708 -149.936539 0.000011
v 4.362708 -149.936539 30.000011
v 0.000000 -150.000000 0.000011
v 0.000000 -150.000000 30.000011
v -4.362708 -149.936539 0.000011
v -4.362708 -149.936539 30.000011
v -8.721725 -149.746231 0.000011
v -8.721725 -149.746231 30.000011
v -13.073361 -149.429199 0.000011
v -13.073361 -149.429199 30.000011
v -17.413937 -148.985748 0.000011
v -17.413937 -148.985748 30.000011
v -21.739779 -148.416245 0.000011
v -21.739779 -148.416245 30.000011
v -26.047226 -147.721161 0.000011
v -26.047226 -147.721161 30.000011
v -30.332636 -146.901093 0.000011
v -30.332636 -146.901093 30.000011
v -34.592381 -145.956726 0.000011
v -34.592381 -145.956726 30.000011
v -38.822857 -144.888870 0.000011
v -38.822857 -144.888870 30.000011
v -43.020485 -143.698425 0.000011
v -43.020485 -143.698425 30.000011
v -47.181713 -142.386398 0.000011
v -47.181713 -142.386398 30.000011
v -51.303020 -140.953888 0.000011
v -51.303020 -140.953888 30.000011
v 0.000000 0.000000 0.000000
v 34.952034 1.831758 -0.000000
v 35.000000 0.000000 0.000000
v 0.000000 0.000002 30.000000
v 35.000000 0.000002 30.000000
v 34.952034 1.831761 30.000000
v 34.808266 3.658496 -0.000000
v 34.808266 3.658498 30.000000
v 34.569092 5.475206 -0.000000
v 34.569092 5.475209 30.000000
v 34.235165 7.276909 -0.000001
v 34.235165 7.276912 30.000000
v 33.286980 10.815595 -0.000001
v 33.286980 10.815597 30.000000
v 32.675316 12.542878 -0.000001
v 32.675316 12.542880 30.000000
v 31.974091 14.235783 -0.000001
v 31.974091 14.235785 29.999998
v 31.185228 15.889668 -0.000001
v 31.185228 15.889669 29.999998
v 29.353470 19.062366 -0.000001
v 29.353470 19.062368 29.999998
v 28.315596 20.572483 -0.000002
v 28.315596 20.572485 29.999998
v 27.200109 22.026215 -0.000002
v 27.200109 22.026217 29.999998
v 26.010069 23.419571 -0.000002
v 26.010069 23.419573 29.999998
v 23.419571 26.010069 -0.000002
v 23.419571 26.010071 29.999998
v 22.026215 27.200109 -0.000002
v 22.026215 27.200111 29.999998
v 20.572483 28.315596 -0.000002
v 20.572483 28.315598 29.999998
v 19.062366 29.353470 -0.000002
v 19.062366 29.353472 29.999998
v 15.889668 31.185228 -0.000002
v 15.889668 31.185230 29.999998
v 14.235783 31.974091 -0.000002
v 14.235783 31.974092 29.999998
v 12.542878 32.675316 -0.000002
v 12.542878 32.675320 29.999998
v 10.815595 33.286980 -0.000003
v 10.815595 33.286983 29.999998
v 7.276909 34.235165 -0.000003
v 7.276909 34.235168 29.999998
v 5.475206 34.569092 -0.000003
v 5.475206 34.569096 29.999998
v 3.658496 34.808266 -0.000003
v 3.658496 34.808270 29.999998
v 1.831758 34.952034 -0.000003
v 1.831758 34.952038 29.999998
v -1.831758 34.952034 -0.000003
v -1.831758 34.952038 29.999998
v -3.658496 34.808266 -0.000003
v -3.658496 34.808270 29.999998
v -5.475206 34.569092 -0.000003
v -5.475206 34.569096 29.999998
v -7.276909 34.235165 -0.000003
v -7.276909 34.235168 29.999998
v -10.815595 33.286980 -0.000003
v -10.815595 33.286983 29.999998
v -12.542878 32.675316 -0.000002
v -12.542878 32.675320 29.999998
v -14.235783 31.974091 -0.000002
v -14.235783 31.974092 29.999998
v -15.889668 31.185228 -0.000002
v -15.889668 31.185230 29.999998
v -17.500000 30.310888 -0.000002
v -17.500000 30.310890 29.999998
v -19.062366 29.353470 -0.000002
v -19.062366 29.353472 29.999998
v -20.572483 28.315596 -0.000002
v -20.572483 28.315598 29.999998
v -22.026215 27.200109 -0.000002
v -22.026215 27.200111 29.999998
v -23.419571 26.010069 -0.000002
v -23.419571 26.010071 29.999998
v -26.010069 23.419571 -0.000002
v -26.010069 23.419573 29.999998
v -27.200109 22.026215 -0.000002
v -27.200109 22.026217 29.999998
v -28.315596 20.572483 -0.000002
v -28.315596 20.572485 29.999998
v -29.353470 19.062366 -0.000001
v -29.353470 19.062368 29.999998
v -31.185228 15.889668 -0.000001
v -31.185228 15.889669 29.999998
v -31.974091 14.235783 -0.000001
v -31.974091 14.235785 29.999998
v -32.675316 12.542878 -0.000001
v -32.675316 12.542880 30.000000
v -33.286980 10.815595 -0.000001
v -33.286980 10.815597 30.000000
v -34.235165 7.276909 -0.000001
v -34.235165 7.276912 30.000000
v -34.569092 5.475206 -0.000000
v -34.569092 5.475209 30.000000
v -34.808266 3.658496 -0.000000
v -34.808266 3.658498 30.000000
v -34.952034 1.831758 -0.000000
v -34.952034 1.831761 30.000000
v -34.952034 -1.831758 0.000000
v -34.952034 -1.831756 30.000000
v -34.808266 -3.658496 0.000000
v -34.808266 -3.658494 30.000000
v -34.569092 -5.475206 0.000000
v -34.569092 -5.475204 30.000000
v -34.235165 -7.276909 0.000001
v -34.235165 -7.276907 30.000000
v -33.286980 -10.815595 0.000001
v -33.286980 -10.815593 30.000000
v -32.675316 -12.542878 0.000001
v -32.675316 -12.542876 30.000000
v -31.974091 -14.235783 0.000001
v -31.974091 -14.235781 30.000002
v -31.185228 -15.889668 0.000001
v -31.185228 -15.889666 30.000002
v -29.353470 -19.062366 0.000001
v -29.353470 -19.062365 30.000002
v -28.315596 -20.572483 0.000002
v -28.315596 -20.572481 30.000002
v -27.200109 -22.026215 0.000002
v -27.200109 -22.026213 30.000002
v -26.010069 -23.419571 0.000002
v -26.010069 -23.419569 30.000002
v -23.419571 -26.010069 0.000002
v -23.419571 -26.010067 30.000002
v -22.026215 -27.200109 0.000002
v -22.026215 -27.200108 30.000002
v -20.572483 -28.315596 0.000002
v -20.572483 -28.315594 30.000002
v -19.062366 -29.353470 0.000002
v -19.062366 -29.353468 30.000002
v -17.500000 -30.310888 0.000002
v -17.500000 -30.310886 30.000002
v -15.889668 -31.185228 0.000002
v -15.889668 -31.185226 30.000002
v -14.235783 -31.974091 0.000002
v -14.235783 -31.974089 30.000002
v -12.542878 -32.675316 0.000002
v -12.542878 -32.675312 30.000002
v -10.815595 -33.286980 0.000003
v -10.815595 -33.286976 30.000002
v -7.276909 -34.235165 0.000003
v -7.276909 -34.235161 30.000002
v -5.475206 -34.569092 0.000003
v -5.475206 -34.569088 30.000002
v -3.658496 -34.808266 0.000003
v -3.658496 -34.808262 30.000002
v -1.831758 -34.952034 0.000003
v -1.831758 -34.952030 30.000002
v 1.831758 -34.952034 0.000003
v 1.831758 -34.952030 30.000002
v 3.658496 -34.808266 0.000003
v 3.658496 -34.808262 30.000002
v 5.475206 -34.569092 0.000003
v 5.475206 -34.569088 30.000002
v 7.276909 -34.235165 0.000003
v 7.276909 -34.235161 30.000002
v 10.815595 -33.286980 0.000003
v 10.815595 -33.286976 30.000002
v 12.542878 -32.675316 0.000002
v 12.542878 -32.675312 30.000002
v 14.235783 -31.974091 0.000002
v 14.235783 -31.974089 30.000002
v 15.889668 -31.185228 0.000002
v 15.889668 -31.185226 30.000002
v 19.062366 -29.353470 0.000002
v 19.062366 -29.353468 30.000002
v 20.572483 -28.315596 0.000002
v 20.572483 -28.315594 30.000002
v 22.026215 -27.200109 0.000002
v 22.026215 -27.200108 30.000002
v 23.419571 -26.010069 0.000002
v 23.419571 -26.010067 30.000002
v 26.010069 -23.419571 0.000002
v 26.010069 -23.419569 30.000002
v 27.200109 -22.026215 0.000002
v 27.200109 -22.026213 30.000002
v 28.315596 -20.572483 0.000002
v 28.315596 -20.572481 30.000002
v 29.353470 -19.062366 0.000001
v 29.353470 -19.062365 30.000002
v 31.185228 -15.889668 0.000001
v 31.185228 -15.889666 30.000002
v 31.974091 -14.235783 0.000001
v 31.974091 -14.235781 30.000002
v 32.675316 -12.542878 0.000001
v 32.675316 -12.542876 30.000000
v 33.286980 -10.815595 0.000001
v 33.286980 -10.815593 30.000000
v 34.235165 -7.276909 0.000001
v 34.235165 -7.276907 30.000000
v 34.569092 -5.475206 0.000000
v 34.569092 -5.475204 30.000000
v 34.808266 -3.658496 0.000000
v 34.808266 -3.658494 30.000000
v 34.952034 -1.831758 0.000000
v 34.952034 -1.831756 30.000000
vn -0.0000 -0.0000 1.0000
vn -0.0000 -0.0000 -1.0000
vn 0.9822 0.1880 -0.0000
vn 0.9793 0.2022 -0.0000
vn 0.9730 0.2306 -0.0000
vn 0.9696 0.2447 -0.0000
vn 0.9621 0.2728 -0.0000
vn 0.9580 0.2868 -0.0000
vn 0.9492 0.3145 -0.0000
vn 0.9397 0.3420 -0.0000
vn 0.9293 0.3692 -0.0000
vn 0.9182 0.3961 -0.0000
vn 0.9063 0.4226 -0.0000
vn 0.8936 0.4488 -0.0000
vn 0.8802 0.4746 -0.0000
vn 0.8732 0.4874 -0.0000
vn 0.8587 0.5125 -0.0000
vn 0.8511 0.5250 -0.0000
vn 0.8355 0.5495 -0.0000
vn 0.8192 0.5736 -0.0000
vn 0.8021 0.5972 -0.0000
vn 0.7844 0.6202 -0.0000
vn 0.7660 0.6428 -0.0000
vn 0.7470 0.6648 -0.0000
vn 0.7274 0.6862 -0.0000
vn 0.7173 0.6968 -0.0000
vn 0.7173 0.6967 -0.0000
vn 0.6967 0.7173 -0.0000
vn 0.6862 0.7274 -0.0000
vn 0.6648 0.7470 -0.0000
vn 0.6428 0.7660 -0.0000
vn 0.6202 0.7844 -0.0000
vn 0.5972 0.8021 -0.0000
vn 0.5736 0.8192 -0.0000
vn 0.5495 0.8355 -0.0000
vn 0.5250 0.8511 -0.0000
vn 0.5125 0.8587 -0.0000
vn 0.4874 0.8732 -0.0000
vn 0.4746 0.8802 -0.0000
vn 0.4488 0.8936 -0.0000
vn 0.4226 0.9063 -0.0000
vn 0.3961 0.9182 -0.0000
vn 0.3692 0.9293 -0.0000
vn 0.3420 0.9397 -0.0000
vn 0.3145 0.9492 -0.0000
vn 0.2868 0.9580 -0.0000
vn 0.2728 0.9621 -0.0000
vn 0.2447 0.9696 -0.0000
vn 0.2306 0.9730 -0.0000
vn 0.2022 0.9793 -0.0000
vn 0.1736 0.9848 -0.0000
vn 0.1449 0.9894 -0.0000
vn 0.1161 0.9932 -0.0000
vn 0.0872 0.9962 -0.0000
vn 0.0581 0.9983 -0.0000
vn 0.0291 0.9996 -0.0000
vn 0.0145 0.9999 -0.0000
vn -0.0145 0.9999 -0.0000
vn -0.0291 0.9996 -0.0000
vn -0.0581 0.9983 -0.0000
vn -0.0872 0.9962 -0.0000
vn -0.1161 0.9932 -0.0000
vn -0.1449 0.9894 -0.0000
vn -0.1736 0.9848 -0.0000
vn -0.2022 0.9793 -0.0000
vn -0.2306 0.9730 -0.0000
vn -0.2447 0.9696 -0.0000
vn -0.2728 0.9621 -0.0000
vn -0.2868 0.9580 -0.0000
vn -0.3145 0.9492 -0.0000
vn -0.3283 0.9446 -0.0000
vn 0.3283 -0.9446 -0.0000
vn 0.3145 -0.9492 -0.0000
vn 0.2868 -0.9580 -0.0000
vn 0.2588 -0.9659 -0.0000
vn 0.2306 -0.9730 -0.0000
vn 0.2022 -0.9793 -0.0000
vn 0.1736 -0.9848 -0.0000
vn 0.1449 -0.9894 -0.0000
vn 0.1161 -0.9932 -0.0000
vn 0.0872 -0.9962 -0.0000
vn 0.0581 -0.9983 -0.0000
vn 0.0291 -0.9996 -0.0000
vn -0.0000 -1.0000 -0.0000
vn -0.0291 -0.9996 -0.0000
vn -0.0581 -0.9983 -0.0000
vn -0.0872 -0.9962 -0.0000
vn -0.1161 -0.9932 -0.0000
vn -0.1449 -0.9894 -0.0000
vn -0.1736 -0.9848 -0.0000
vn -0.2022 -0.9793 -0.0000
vn -0.2306 -0.9730 -0.0000
vn -0.2588 -0.9659 -0.0000
vn -0.2868 -0.9580 -0.0000
vn -0.3145 -0.9492 -0.0000
vn -0.3420 -0.9397 -0.0000
vn -0.3692 -0.9293 -0.0000
vn -0.3961 -0.9182 -0.0000
vn -0.4226 -0.9063 -0.0000
vn -0.4488 -0.8936 -0.0000
vn -0.4746 -0.8802 -0.0000
vn -0.5000 -0.8660 -0.0000
vn -0.5250 -0.8511 -0.0000
vn -0.5495 -0.8355 -0.0000
vn -0.5736 -0.8192 -0.0000
vn -0.5972 -0.8021 -0.0000
vn -0.6202 -0.7844 -0.0000
vn -0.6428 -0.7660 -0.0000
vn -0.6648 -0.7470 -0.0000
vn -0.6862 -0.7274 -0.0000
vn -0.7071 -0.7071 -0.0000
vn -0.7274 -0.6862 -0.0000
vn -0.7470 -0.6648 -0.0000
vn -0.7660 -0.6428 -0.0000
vn -0.7844 -0.6202 -0.0000
vn -0.8021 -0.5972 -0.0000
vn -0.8192 -0.5736 -0.0000
vn -0.8355 -0.5495 -0.0000
vn -0.8511 -0.5250 -0.0000
vn -0.8660 -0.5000 -0.0000
vn -0.8802 -0.4746 -0.0000
vn -0.8936 -0.4488 -0.0000
vn -0.9063 -0.4226 -0.0000
vn -0.9182 -0.3961 -0.0000
vn -0.9293 -0.3692 -0.0000
vn -0.9397 -0.3420 -0.0000
vn -0.9492 -0.3145 -0.0000
vn -0.9580 -0.2868 -0.0000
vn -0.9659 -0.2588 -0.0000
vn -0.9730 -0.2306 -0.0000
vn -0.9793 -0.2022 -0.0000
vn -0.9822 -0.1879 -0.0000
vn -0.9822 -0.1880 -0.0000
vn -0.6539 0.7566 -0.0000
vn -0.6648 0.7470 -0.0000
vn -0.6862 0.7274 -0.0000
vn -0.6967 0.7173 -0.0000
vn -0.7173 0.6967 -0.0000
vn -0.7274 0.6862 -0.0000
vn -0.7173 0.6968 -0.0000
vn -0.7470 0.6648 -0.0000
vn -0.7660 0.6428 -0.0000
vn -0.7844 0.6202 -0.0000
vn -0.8021 0.5972 -0.0000
vn -0.8192 0.5736 -0.0000
vn -0.8355 0.5495 -0.0000
vn -0.8511 0.5250 -0.0000
vn -0.8587 0.5125 -0.0000
vn -0.8732 0.4874 -0.0000
vn -0.8802 0.4746 -0.0000
vn -0.8936 0.4488 -0.0000
vn -0.9063 0.4226 -0.0000
vn -0.9182 0.3961 -0.0000
vn -0.9293 0.3692 -0.0000
vn -0.9397 0.3420 -0.0000
vn -0.9492 0.3145 -0.0000
vn -0.9580 0.2868 -0.0000
vn -0.9621 0.2728 -0.0000
vn -0.9696 0.2447 -0.0000
vn -0.9730 0.2306 -0.0000
vn -0.9793 0.2022 -0.0000
vn -0.9848 0.1737 -0.0000
vn -0.9848 0.1736 -0.0000
vn -0.9894 0.1449 -0.0000
vn -0.9932 0.1161 -0.0000
vn -0.9962 0.0872 -0.0000
vn -0.9983 0.0581 -0.0000
vn -0.9996 0.0291 -0.0000
vn -0.9999 0.0145 -0.0000
vn -0.9999 -0.0145 -0.0000
vn -0.9996 -0.0291 -0.0000
vn -0.9983 -0.0581 -0.0000
vn -0.9962 -0.0872 -0.0000
vn -0.9932 -0.1161 -0.0000
vn -0.9894 -0.1449 -0.0000
vn -0.9848 -0.1736 -0.0000
vn -0.9848 -0.1737 -0.0000
vn -0.9696 -0.2447 -0.0000
vn -0.9621 -0.2728 -0.0000
vn -0.8732 -0.4874 -0.0000
vn -0.8587 -0.5125 -0.0000
vn -0.7173 -0.6968 -0.0000
vn -0.7173 -0.6967 -0.0000
vn -0.6967 -0.7173 -0.0000
vn -0.6539 -0.7566 -0.0000
vn 0.6539 0.7566 -0.0000
vn 0.7071 0.7071 -0.0000
vn 0.8660 0.5000 -0.0000
vn 0.9659 0.2588 -0.0000
vn 0.9848 0.1736 -0.0000
vn 0.9894 0.1449 -0.0000
vn 0.9932 0.1161 -0.0000
vn 0.9962 0.0872 -0.0000
vn 0.9983 0.0581 -0.0000
vn 0.9996 0.0291 -0.0000
vn 1.0000 -0.0000 -0.0000
vn 0.9996 -0.0291 -0.0000
vn 0.9983 -0.0581 -0.0000
vn 0.9962 -0.0872 -0.0000
vn 0.9932 -0.1161 -0.0000
vn 0.9894 -0.1449 -0.0000
vn 0.9848 -0.1736 -0.0000
vn 0.9793 -0.2022 -0.0000
vn 0.9730 -0.2306 -0.0000
vn 0.9659 -0.2588 -0.0000
vn 0.9580 -0.2868 -0.0000
vn 0.9492 -0.3145 -0.0000
vn 0.9397 -0.3420 -0.0000
vn 0.9293 -0.3692 -0.0000
vn 0.9182 -0.3961 -0.0000
vn 0.9063 -0.4226 -0.0000
vn 0.8936 -0.4488 -0.0000
vn 0.8802 -0.4746 -0.0000
vn 0.8660 -0.5000 -0.0000
vn 0.8511 -0.5250 -0.0000
vn 0.8355 -0.5495 -0.0000
vn 0.8192 -0.5736 -0.0000
vn 0.8021 -0.5972 -0.0000
vn 0.7844 -0.6202 -0.0000
vn 0.7660 -0.6428 -0.0000
vn 0.7470 -0.6648 -0.0000
vn 0.7274 -0.6862 -0.0000
vn 0.7071 -0.7071 -0.0000
vn 0.6862 -0.7274 -0.0000
vn 0.6648 -0.7470 -0.0000
vn 0.6539 -0.7566 -0.0000
vn -0.3283 -0.9446 -0.0000
vn -0.2728 -0.9621 -0.0000
vn -0.2447 -0.9696 -0.0000
vn -0.0145 -0.9999 -0.0000
vn 0.0145 -0.9999 -0.0000
vn 0.2447 -0.9696 -0.0000
vn 0.2728 -0.9621 -0.0000
vn 0.3420 -0.9397 -0.0000
vn 0.3692 -0.9293 -0.0000
vn 0.3961 -0.9182 -0.0000
vn 0.4226 -0.9063 -0.0000
vn 0.4488 -0.8936 -0.0000
vn 0.4746 -0.8802 -0.0000
vn 0.4874 -0.8732 -0.0000
vn 0.5125 -0.8587 -0.0000
vn 0.5250 -0.8511 -0.0000
vn 0.5495 -0.8355 -0.0000
vn 0.5736 -0.8192 -0.0000
vn 0.5972 -0.8021 -0.0000
vn 0.6202 -0.7844 -0.0000
vn 0.6428 -0.7660 -0.0000
vn 0.6967 -0.7173 -0.0000
vn 0.7173 -0.6967 -0.0000
vn 0.7173 -0.6968 -0.0000
vn 0.8587 -0.5125 -0.0000
vn 0.8732 -0.4874 -0.0000
vn 0.9621 -0.2728 -0.0000
vn 0.9696 -0.2447 -0.0000
vn 0.9822 -0.1880 -0.0000
vn -0.9822 0.1880 -0.0000
vn -0.9822 0.1879 -0.0000
vn -0.9659 0.2588 -0.0000
vn -0.8660 0.5000 -0.0000
vn -0.7071 0.7071 -0.0000
vn -0.6428 0.7660 -0.0000
vn -0.6202 0.7844 -0.0000
vn -0.5972 0.8021 -0.0000
vn -0.5736 0.8192 -0.0000
vn -0.5495 0.8355 -0.0000
vn -0.5250 0.8511 -0.0000
vn -0.5000 0.8660 -0.0000
vn -0.4746 0.8802 -0.0000
vn -0.4488 0.8936 -0.0000
vn -0.4226 0.9063 -0.0000
vn -0.3961 0.9182 -0.0000
vn -0.3692 0.9293 -0.0000
vn -0.3420 0.9397 -0.0000
vn -0.2588 0.9659 -0.0000
vn -0.0000 1.0000 -0.0000
vn 0.2588 0.9659 -0.0000
vn 0.3283 0.9446 -0.0000
vn 0.9986 0.0523 -0.0000
vn 0.9945 0.1045 -0.0000
vn 0.9877 0.1564 -0.0000
vn 0.9781 0.2079 -0.0000
vn 0.9724 0.2334 -0.0000
vn 0.9588 0.2840 -0.0000
vn 0.9511 0.3090 -0.0000
vn 0.9336 0.3584 -0.0000
vn 0.9135 0.4067 -0.0000
vn 0.8910 0.4540 -0.0000
vn 0.8788 0.4772 -0.0000
vn 0.8526 0.5225 -0.0000
vn 0.8387 0.5446 -0.0000
vn 0.8090 0.5878 -0.0000
vn 0.7771 0.6293 -0.0000
vn 0.7431 0.6691 -0.0000
vn 0.7254 0.6884 -0.0000
vn 0.6884 0.7254 -0.0000
vn 0.6691 0.7431 -0.0000
vn 0.6293 0.7771 -0.0000
vn 0.5878 0.8090 -0.0000
vn 0.5446 0.8387 -0.0000
vn 0.5225 0.8526 -0.0000
vn 0.4772 0.8788 -0.0000
vn 0.4540 0.8910 -0.0000
vn 0.4067 0.9135 -0.0000
vn 0.3584 0.9336 -0.0000
vn 0.3090 0.9511 -0.0000
vn 0.2840 0.9588 -0.0000
vn 0.2334 0.9724 -0.0000
vn 0.2079 0.9781 -0.0000
vn 0.1564 0.9877 -0.0000
vn 0.1045 0.9945 -0.0000
vn 0.0523 0.9986 -0.0000
vn 0.0262 0.9997 -0.0000
vn -0.0262 0.9997 -0.0000
vn -0.0523 0.9986 -0.0000
vn -0.1045 0.9945 -0.0000
vn -0.1564 0.9877 -0.0000
vn -0.2079 0.9781 -0.0000
vn -0.2334 0.9724 -0.0000
vn -0.2840 0.9588 -0.0000
vn -0.3090 0.9511 -0.0000
vn -0.3584 0.9336 -0.0000
vn -0.4067 0.9135 -0.0000
vn -0.4540 0.8910 -0.0000
vn -0.5446 0.8387 -0.0000
vn -0.5878 0.8090 -0.0000
vn -0.6293 0.7771 -0.0000
vn -0.6691 0.7431 -0.0000
vn -0.6884 0.7254 -0.0000
vn -0.7254 0.6884 -0.0000
vn -0.7431 0.6691 -0.0000
vn -0.7771 0.6293 -0.0000
vn -0.8090 0.5878 -0.0000
vn -0.8387 0.5446 -0.0000
vn -0.8526 0.5225 -0.0000
vn -0.8788 0.4772 -0.0000
vn -0.8910 0.4540 -0.0000
vn -0.9135 0.4067 -0.0000
vn -0.9336 0.3584 -0.0000
vn -0.9511 0.3090 -0.0000
vn -0.9588 0.2840 -0.0000
vn -0.9724 0.2334 -0.0000
vn -0.9781 0.2079 -0.0000
vn -0.9877 0.1564 -0.0000
vn -0.9945 0.1045 -0.0000
vn -0.9986 0.0523 -0.0000
vn -0.9997 0.0262 -0.0000
vn -0.9997 -0.0262 -0.0000
vn -0.9986 -0.0523 -0.0000
vn -0.9945 -0.1045 -0.0000
vn -0.9877 -0.1564 -0.0000
vn -0.9781 -0.2079 -0.0000
vn -0.9724 -0.2334 -0.0000
vn -0.9588 -0.2840 -0.0000
vn -0.9511 -0.3090 -0.0000
vn -0.9336 -0.3584 -0.0000
vn -0.9135 -0.4067 -0.0000
vn -0.8910 -0.4540 -0.0000
vn -0.8788 -0.4772 -0.0000
vn -0.8526 -0.5225 -0.0000
vn -0.8387 -0.5446 -0.0000
vn -0.8090 -0.5878 -0.0000
vn -0.7771 -0.6293 -0.0000
vn -0.7431 -0.6691 -0.0000
vn -0.7254 -0.6884 -0.0000
vn -0.6884 -0.7254 -0.0000
vn -0.6691 -0.7431 -0.0000
vn -0.6293 -0.7771 -0.0000
vn -0.5878 -0.8090 -0.0000
vn -0.5446 -0.8387 -0.0000
vn -0.4540 -0.8910 -0.0000
vn -0.4067 -0.9135 -0.0000
vn -0.3584 -0.9336 -0.0000
vn -0.3090 -0.9511 -0.0000
vn -0.2840 -0.9588 -0.0000
vn -0.2334 -0.9724 -0.0000
vn -0.2079 -0.9781 -0.0000
vn -0.1564 -0.9877 -0.0000
vn -0.1045 -0.9945 -0.0000
vn -0.0523 -0.9986 -0.0000
vn -0.0262 -0.9997 -0.0000
vn 0.0262 -0.9997 -0.0000
vn 0.0523 -0.9986 -0.0000
vn 0.1045 -0.9945 -0.0000
vn 0.1564 -0.9877 -0.0000
vn 0.2079 -0.9781 -0.0000
vn 0.2334 -0.9724 -0.0000
vn 0.2840 -0.9588 -0.0000
vn 0.3090 -0.9511 -0.0000
vn 0.3584 -0.9336 -0.0000
vn 0.4067 -0.9135 -0.0000
vn 0.4540 -0.8910 -0.0000
vn 0.4772 -0.8788 -0.0000
vn 0.5225 -0.8526 -0.0000
vn 0.5446 -0.8387 -0.0000
vn 0.5878 -0.8090 -0.0000
vn 0.6293 -0.7771 -0.0000
vn 0.6691 -0.7431 -0.0000
vn 0.6884 -0.7254 -0.0000
vn 0.7254 -0.6884 -0.0000
vn 0.7431 -0.6691 -0.0000
vn 0.7771 -0.6293 -0.0000
vn 0.8090 -0.5878 -0.0000
vn 0.8387 -0.5446 -0.0000
vn 0.8526 -0.5225 -0.0000
vn 0.8788 -0.4772 -0.0000
vn 0.8910 -0.4540 -0.0000
vn 0.9135 -0.4067 -0.0000
vn 0.9336 -0.3584 -0.0000
vn 0.9511 -0.3090 -0.0000
vn 0.9588 -0.2840 -0.0000
vn 0.9724 -0.2334 -0.0000
vn 0.9781 -0.2079 -0.0000
vn 0.9877 -0.1564 -0.0000
vn 0.9945 -0.1045 -0.0000
vn 0.9986 -0.0523 -0.0000
s 1
usemtl Material.001
f 1//1 2//1 3//1
f 4//2 5//2 6//2
f 1//1 3//1 7//1
f 4//2 8//2 5//2
f 1//1 7//1 9//1
f 4//2 10//2 8//2
f 1//1 9//1 11//1
f 4//2 12//2 10//2
f 1//1 11//1 13//1
f 4//2 14//2 12//2
f 1//1 13//1 15//1
f 4//2 16//2 14//2
f 1//1 15//1 17//1
f 4//2 18//2 16//2
f 1//1 17//1 19//1
f 4//2 20//2 18//2
f 1//1 19//1 21//1
f 4//2 22//2 20//2
f 1//1 21//1 23//1
f 4//2 24//2 22//2
f 1//1 23//1 25//1
f 4//2 26//2 24//2
f 1//1 25//1 27//1
f 4//2 28//2 26//2
f 1//1 27//1 29//1
f 4//2 30//2 28//2
f 1//1 29//1 31//1
f 4//2 32//2 30//2
f 1//1 31//1 33//1
f 4//2 34//2 32//2
f 1//1 33//1 35//1
f 4//2 36//2 34//2
f 1//1 35//1 37//1
f 4//2 38//2 36//2
f 1//1 37//1 39//1
f 4//2 40//2 38//2
f 1//1 39//1 41//1
f 4//2 42//2 40//2
f 1//1 41//1 43//1
f 4//2 44//2 42//2
f 1//1 43//1 45//1
f 4//2 46//2 44//2
f 1//1 45//1 47//1
f 4//2 48//2 46//2
f 1//1 47//1 49//1
f 4//2 50//2 48//2
f 1//1 49//1 51//1
f 4//2 52//2 50//2
f 1//1 51//1 53//1
f 4//2 54//2 52//2
f 1//1 53//1 55//1
f 4//2 56//2 54//2
f 1//1 55//1 57//1
f 4//2 58//2 56//2
f 1//1 57//1 59//1
f 4//2 60//2 58//2
f 1//1 59//1 61//1
f 4//2 62//2 60//2
f 1//1 61//1 63//1
f 4//2 64//2 62//2
f 1//1 63//1 65//1
f 4//2 66//2 64//2
f 1//1 65//1 67//1
f 4//2 68//2 66//2
f 1//1 67//1 69//1
f 4//2 70//2 68//2
f 1//1 69//1 71//1
f 4//2 72//2 70//2
f 1//1 71//1 73//1
f 4//2 74//2 72//2
f 1//1 73//1 75//1
f 4//2 76//2 74//2
f 1//1 75//1 77//1
f 4//2 78//2 76//2
f 1//1 77//1 79//1
f 4//2 80//2 78//2
f 1//1 79//1 81//1
f 4//2 82//2 80//2
f 1//1 81//1 83//1
f 4//2 84//2 82//2
f 1//1 83//1 85//1
f 4//2 86//2 84//2
f 1//1 85//1 87//1
f 4//2 88//2 86//2
f 1//1 87//1 89//1
f 4//2 90//2 88//2
f 1//1 89//1 91//1
f 4//2 92//2 90//2
f 1//1 91//1 93//1
f 4//2 94//2 92//2
f 1//1 93//1 95//1
f 4//2 96//2 94//2
f 1//1 95//1 97//1
f 4//2 98//2 96//2
f 1//1 97//1 99//1
f 4//2 100//2 98//2
f 1//1 99//1 101//1
f 4//2 102//2 100//2
f 1//1 101//1 103//1
f 4//2 104//2 102//2
f 1//1 103//1 105//1
f 4//2 106//2 104//2
f 1//1 105//1 107//1
f 4//2 108//2 106//2
f 1//1 107//1 109//1
f 4//2 110//2 108//2
f 1//1 109//1 111//1
f 4//2 112//2 110//2
f 1//1 111//1 113//1
f 4//2 114//2 112//2
f 1//1 113//1 115//1
f 4//2 116//2 114//2
f 1//1 115//1 117//1
f 4//2 118//2 116//2
f 1//1 117//1 119//1
f 4//2 120//2 118//2
f 1//1 119//1 121//1
f 4//2 122//2 120//2
f 1//2 121//2 123//2
f 4//1 124//1 122//1
f 1//2 123//2 125//2
f 4//1 126//1 124//1
f 1//2 125//2 127//2
f 4//1 128//1 126//1
f 1//2 127//2 129//2
f 4//1 130//1 128//1
f 1//2 129//2 131//2
f 4//1 132//1 130//1
f 1//2 131//2 133//2
f 4//1 134//1 132//1
f 1//2 133//2 135//2
f 4//1 136//1 134//1
f 1//2 135//2 137//2
f 4//1 138//1 136//1
f 1//2 137//2 139//2
f 4//1 140//1 138//1
f 1//2 139//2 141//2
f 4//1 142//1 140//1
f 1//2 141//2 143//2
f 4//1 144//1 142//1
f 1//2 143//2 145//2
f 4//1 146//1 144//1
f 1//2 145//2 147//2
f 4//1 148//1 146//1
f 1//2 147//2 149//2
f 4//1 150//1 148//1
f 1//2 149//2 151//2
f 4//1 152//1 150//1
f 1//2 151//2 153//2
f 4//1 154//1 152//1
f 1//2 153//2 155//2
f 4//1 156//1 154//1
f 1//2 155//2 157//2
f 4//1 158//1 156//1
f 1//2 157//2 159//2
f 4//1 160//1 158//1
f 1//2 159//2 161//2
f 4//1 162//1 160//1
f 1//2 161//2 163//2
f 4//1 164//1 162//1
f 1//2 163//2 165//2
f 4//1 166//1 164//1
f 1//2 165//2 167//2
f 4//1 168//1 166//1
f 1//2 167//2 169//2
f 4//1 170//1 168//1
f 1//2 169//2 171//2
f 4//1 172//1 170//1
f 1//2 171//2 173//2
f 4//1 174//1 172//1
f 1//2 173//2 175//2
f 4//1 176//1 174//1
f 1//2 175//2 177//2
f 4//1 178//1 176//1
f 1//2 177//2 179//2
f 4//1 180//1 178//1
f 1//2 179//2 181//2
f 4//1 182//1 180//1
f 1//2 181//2 183//2
f 4//1 184//1 182//1
f 1//2 183//2 185//2
f 4//1 186//1 184//1
f 1//2 185//2 187//2
f 4//1 188//1 186//1
f 1//2 187//2 189//2
f 4//1 190//1 188//1
f 1//2 189//2 191//2
f 4//1 192//1 190//1
f 1//2 191//2 193//2
f 4//1 194//1 192//1
f 1//2 193//2 195//2
f 4//1 196//1 194//1
f 1//2 195//2 197//2
f 4//1 198//1 196//1
f 1//2 197//2 199//2
f 4//1 200//1 198//1
f 1//2 199//2 201//2
f 4//1 202//1 200//1
f 1//2 201//2 203//2
f 4//1 204//1 202//1
f 1//2 203//2 205//2
f 4//1 206//1 204//1
f 1//2 205//2 207//2
f 4//1 208//1 206//1
f 1//2 207//2 209//2
f 4//1 210//1 208//1
f 1//2 209//2 211//2
f 4//1 212//1 210//1
f 1//2 211//2 213//2
f 4//1 214//1 212//1
f 1//2 213//2 215//2
f 4//1 216//1 214//1
f 1//2 215//2 217//2
f 4//1 218//1 216//1
f 1//2 217//2 219//2
f 4//1 220//1 218//1
f 1//2 219//2 221//2
f 4//1 222//1 220//1
f 1//2 221//2 223//2
f 4//1 224//1 222//1
f 1//2 223//2 225//2
f 4//1 226//1 224//1
f 1//2 225//2 227//2
f 4//1 228//1 226//1
f 1//2 227//2 229//2
f 4//1 230//1 228//1
f 1//2 229//2 231//2
f 4//1 232//1 230//1
f 1//2 231//2 233//2
f 4//1 234//1 232//1
f 1//2 233//2 235//2
f 4//1 236//1 234//1
f 1//2 235//2 237//2
f 4//1 238//1 236//1
f 1//2 237//2 239//2
f 4//1 240//1 238//1
f 1//2 239//2 241//2
f 4//1 242//1 240//1
f 1//2 241//2 243//2
f 4//1 244//1 242//1
f 1//3 2//4 6//4
f 1//3 6//4 4//3
f 2//4 3//5 5//5
f 2//4 5//5 6//4
f 3//5 7//6 8//6
f 3//5 8//6 5//5
f 7//7 9//8 10//8
f 7//7 10//8 8//7
f 9//8 11//9 12//9
f 9//8 12//9 10//8
f 11//9 13//10 14//10
f 11//9 14//10 12//9
f 13//10 15//11 16//11
f 13//10 16//11 14//10
f 15//11 17//12 18//12
f 15//11 18//12 16//11
f 17//12 19//13 20//13
f 17//12 20//13 18//12
f 19//13 21//14 22//14
f 19//13 22//14 20//13
f 21//14 23//15 24//15
f 21//14 24//15 22//14
f 23//15 25//16 26//16
f 23//15 26//16 24//15
f 25//17 27//18 28//18
f 25//17 28//18 26//17
f 27//18 29//19 30//19
f 27//18 30//19 28//18
f 29//19 31//20 32//20
f 29//19 32//20 30//19
f 31//20 33//21 34//21
f 31//20 34//21 32//20
f 33//21 35//22 36//22
f 33//21 36//22 34//21
f 35//22 37//23 38//23
f 35//22 38//23 36//22
f 37//23 39//24 40//24
f 37//23 40//24 38//23
f 39//24 41//25 42//25
f 39//24 42//25 40//24
f 41//25 43//26 44//27
f 41//25 44//27 42//25
f 43//28 45//29 46//29
f 43//28 46//29 44//28
f 45//29 47//30 48//30
f 45//29 48//30 46//29
f 47//30 49//31 50//31
f 47//30 50//31 48//30
f 49//31 51//32 52//32
f 49//31 52//32 50//31
f 51//32 53//33 54//33
f 51//32 54//33 52//32
f 53//33 55//34 56//34
f 53//33 56//34 54//33
f 55//34 57//35 58//35
f 55//34 58//35 56//34
f 57//35 59//36 60//36
f 57//35 60//36 58//35
f 59//36 61//37 62//37
f 59//36 62//37 60//36
f 61//38 63//39 64//39
f 61//38 64//39 62//38
f 63//39 65//40 66//40
f 63//39 66//40 64//39
f 65//40 67//41 68//41
f 65//40 68//41 66//40
f 67//41 69//42 70//42
f 67//41 70//42 68//41
f 69//42 71//43 72//43
f 69//42 72//43 70//42
f 71//43 73//44 74//44
f 71//43 74//44 72//43
f 73//44 75//45 76//45
f 73//44 76//45 74//44
f 75//45 77//46 78//46
f 75//45 78//46 76//45
f 77//46 79//47 80//47
f 77//46 80//47 78//46
f 79//48 81//49 82//49
f 79//48 82//49 80//48
f 81//49 83//50 84//50
f 81//49 84//50 82//49
f 83//50 85//51 86//51
f 83//50 86//51 84//50
f 85//51 87//52 88//52
f 85//51 88//52 86//51
f 87//52 89//53 90//53
f 87//52 90//53 88//52
f 89//53 91//54 92//54
f 89//53 92//54 90//53
f 91//54 93//55 94//55
f 91//54 94//55 92//54
f 93//55 95//56 96//56
f 93//55 96//56 94//55
f 95//56 97//57 98//57
f 95//56 98//57 96//56
f 97//58 99//59 100//59
f 97//58 100//59 98//58
f 99//59 101//60 102//60
f 99//59 102//60 100//59
f 101//60 103//61 104//61
f 101//60 104//61 102//60
f 103//61 105//62 106//62
f 103//61 106//62 104//61
f 105//62 107//63 108//63
f 105//62 108//63 106//62
f 107//63 109//64 110//64
f 107//63 110//64 108//63
f 109//64 111//65 112//65
f 109//64 112//65 110//64
f 111//65 113//66 114//66
f 111//65 114//66 112//65
f 113//66 115//67 116//67
f 113//66 116//67 114//66
f 115//68 117//69 118//69
f 115//68 118//69 116//68
f 117//69 119//70 120//70
f 117//69 120//70 118//69
f 119//70 121//71 122//71
f 119//70 122//71 120//70
f 121//10 123//10 124//10
f 121//10 124//10 122//10
f 123//72 125//73 126//73
f 123//72 126//73 124//72
f 125//73 127//74 128//74
f 125//73 128//74 126//73
f 127//74 129//75 130//75
f 127//74 130//75 128//74
f 129//75 131//76 132//76
f 129//75 132//76 130//75
f 131//76 133//77 134//77
f 131//76 134//77 132//76
f 133//77 135//78 136//78
f 133//77 136//78 134//77
f 135//78 137//79 138//79
f 135//78 138//79 136//78
f 137//79 139//80 140//80
f 137//79 140//80 138//79
f 139//80 141//81 142//81
f 139//80 142//81 140//80
f 141//81 143//82 144//82
f 141//81 144//82 142//81
f 143//82 145//83 146//83
f 143//82 146//83 144//82
f 145//83 147//84 148//84
f 145//83 148//84 146//83
f 147//84 149//85 150//85
f 147//84 150//85 148//84
f 149//85 151//86 152//86
f 149//85 152//86 150//85
f 151//86 153//87 154//87
f 151//86 154//87 152//86
f 153//87 155//88 156//88
f 153//87 156//88 154//87
f 155//88 157//89 158//89
f 155//88 158//89 156//88
f 157//89 159//90 160//90
f 157//89 160//90 158//89
f 159//90 161//91 162//91
f 159//90 162//91 160//90
f 161//91 163//92 164//92
f 161//91 164//92 162//91
f 163//92 165//93 166//93
f 163//92 166//93 164//92
f 165//93 167//94 168//94
f 165//93 168//94 166//93
f 167//94 169//95 170//95
f 167//94 170//95 168//94
f 169//95 171//96 172//96
f 169//95 172//96 170//95
f 171//96 173//97 174//97
f 171//96 174//97 172//96
f 173//97 175//98 176//98
f 173//97 176//98 174//97
f 175//98 177//99 178//99
f 175//98 178//99 176//98
f 177//99 179//100 180//100
f 177//99 180//100 178//99
f 179//100 181//101 182//101
f 179//100 182//101 180//100
f 181//101 183//102 184//102
f 181//101 184//102 182//101
f 183//102 185//103 186//103
f 183//102 186//103 184//102
f 185//103 187//104 188//104
f 185//103 188//104 186//103
f 187//104 189//105 190//105
f 187//104 190//105 188//104
f 189//105 191//106 192//106
f 189//105 192//106 190//105
f 191//106 193//107 194//107
f 191//106 194//107 192//106
f 193//107 195//108 196//108
f 193//107 196//108 194//107
f 195//108 197//109 198//109
f 195//108 198//109 196//108
f 197//109 199//110 200//110
f 197//109 200//110 198//109
f 199//110 201//111 202//111
f 199//110 202//111 200//110
f 201//111 203//112 204//112
f 201//111 204//112 202//111
f 203//112 205//113 206//113
f 203//112 206//113 204//112
f 205//113 207//114 208//114
f 205//113 208//114 206//113
f 207//114 209//115 210//115
f 207//114 210//115 208//114
f 209//115 211//116 212//116
f 209//115 212//116 210//115
f 211//116 213//117 214//117
f 211//116 214//117 212//116
f 213//117 215//118 216//118
f 213//117 216//118 214//117
f 215//118 217//119 218//119
f 215//118 218//119 216//118
f 217//119 219//120 220//120
f 217//119 220//120 218//119
f 219//120 221//121 222//121
f 219//120 222//121 220//120
f 221//121 223//122 224//122
f 221//121 224//122 222//121
f 223//122 225//123 226//123
f 223//122 226//123 224//122
f 225//123 227//124 228//124
f 225//123 228//124 226//123
f 227//124 229//125 230//125
f 227//124 230//125 228//124
f 229//125 231//126 232//126
f 229//125 232//126 230//125
f 231//126 233//127 234//127
f 231//126 234//127 232//126
f 233//127 235//128 236//128
f 233//127 236//128 234//127
f 235//128 237//129 238//129
f 235//128 238//129 236//128
f 237//129 239//130 240//130
f 237//129 240//130 238//129
f 239//130 241//131 242//131
f 239//130 242//131 240//130
f 241//131 243//132 244//133
f 241//131 244//133 242//131
f 243//64 1//64 4//64
f 243//64 4//64 244//64
f 245//1 246//1 247//1
f 248//2 249//2 250//2
f 245//1 247//1 251//1
f 248//2 252//2 249//2
f 245//1 251//1 253//1
f 248//2 254//2 252//2
f 245//1 253//1 255//1
f 248//2 256//2 254//2
f 245//1 255//1 257//1
f 248//2 258//2 256//2
f 245//1 257//1 259//1
f 248//2 260//2 258//2
f 245//1 259//1 261//1
f 248//2 262//2 260//2
f 245//1 261//1 263//1
f 248//2 264//2 262//2
f 245//1 263//1 265//1
f 248//2 266//2 264//2
f 245//1 265//1 267//1
f 248//2 268//2 266//2
f 245//1 267//1 269//1
f 248//2 270//2 268//2
f 245//1 269//1 271//1
f 248//2 272//2 270//2
f 245//1 271//1 273//1
f 248//2 274//2 272//2
f 245//1 273//1 275//1
f 248//2 276//2 274//2
f 245//1 275//1 277//1
f 248//2 278//2 276//2
f 245//1 277//1 279//1
f 248//2 280//2 278//2
f 245//1 279//1 281//1
f 248//2 282//2 280//2
f 245//1 281//1 283//1
f 248//2 284//2 282//2
f 245//1 283//1 285//1
f 248//2 286//2 284//2
f 245//1 285//1 287//1
f 248//2 288//2 286//2
f 245//1 287//1 289//1
f 248//2 290//2 288//2
f 245//1 289//1 291//1
f 248//2 292//2 290//2
f 245//1 291//1 293//1
f 248//2 294//2 292//2
f 245//1 293//1 295//1
f 248//2 296//2 294//2
f 245//1 295//1 297//1
f 248//2 298//2 296//2
f 245//1 297//1 299//1
f 248//2 300//2 298//2
f 245//1 299//1 301//1
f 248//2 302//2 300//2
f 245//1 301//1 303//1
f 248//2 304//2 302//2
f 245//1 303//1 305//1
f 248//2 306//2 304//2
f 245//1 305//1 307//1
f 248//2 308//2 306//2
f 245//1 307//1 309//1
f 248//2 310//2 308//2
f 245//1 309//1 311//1
f 248//2 312//2 310//2
f 245//1 311//1 313//1
f 248//2 314//2 312//2
f 245//1 313//1 315//1
f 248//2 316//2 314//2
f 245//1 315//1 317//1
f 248//2 318//2 316//2
f 245//1 317//1 319//1
f 248//2 320//2 318//2
f 245//1 319//1 321//1
f 248//2 322//2 320//2
f 245//1 321//1 323//1
f 248//2 324//2 322//2
f 245//1 323//1 325//1
f 248//2 326//2 324//2
f 245//1 325//1 327//1
f 248//2 328//2 326//2
f 245//1 327//1 329//1
f 248//2 330//2 328//2
f 245//1 329//1 331//1
f 248//2 332//2 330//2
f 245//1 331//1 333//1
f 248//2 334//2 332//2
f 245//1 333//1 335//1
f 248//2 336//2 334//2
f 245//1 335//1 337//1
f 248//2 338//2 336//2
f 245//1 337//1 339//1
f 248//2 340//2 338//2
f 245//1 339//1 341//1
f 248//2 342//2 340//2
f 245//1 341//1 343//1
f 248//2 344//2 342//2
f 245//1 343//1 345//1
f 248//2 346//2 344//2
f 245//1 345//1 347//1
f 248//2 348//2 346//2
f 245//1 347//1 349//1
f 248//2 350//2 348//2
f 245//1 349//1 351//1
f 248//2 352//2 350//2
f 245//1 351//1 353//1
f 248//2 354//2 352//2
f 245//1 353//1 355//1
f 248//2 356//2 354//2
f 245//1 355//1 357//1
f 248//2 358//2 356//2
f 245//1 357//1 359//1
f 248//2 360//2 358//2
f 245//1 359//1 361//1
f 248//2 362//2 360//2
f 245//1 361//1 363//1
f 248//2 364//2 362//2
f 245//1 363//1 365//1
f 248//2 366//2 364//2
f 245//2 365//2 367//2
f 248//1 368//1 366//1
f 245//2 367//2 369//2
f 248//1 370//1 368//1
f 245//2 369//2 371//2
f 248//1 372//1 370//1
f 245//2 371//2 373//2
f 248//1 374//1 372//1
f 245//2 373//2 375//2
f 248//1 376//1 374//1
f 245//2 375//2 377//2
f 248//1 378//1 376//1
f 245//2 377//2 379//2
f 248//1 380//1 378//1
f 245//2 379//2 381//2
f 248//1 382//1 380//1
f 245//2 381//2 383//2
f 248//1 384//1 382//1
f 245//2 383//2 385//2
f 248//1 386//1 384//1
f 245//2 385//2 387//2
f 248//1 388//1 386//1
f 245//2 387//2 389//2
f 248//1 390//1 388//1
f 245//2 389//2 391//2
f 248//1 392//1 390//1
f 245//2 391//2 393//2
f 248//1 394//1 392//1
f 245//2 393//2 395//2
f 248//1 396//1 394//1
f 245//2 395//2 397//2
f 248//1 398//1 396//1
f 245//2 397//2 399//2
f 248//1 400//1 398//1
f 245//2 399//2 401//2
f 248//1 402//1 400//1
f 245//2 401//2 403//2
f 248//1 404//1 402//1
f 245//2 403//2 405//2
f 248//1 406//1 404//1
f 245//2 405//2 407//2
f 248//1 408//1 406//1
f 245//2 407//2 409//2
f 248//1 410//1 408//1
f 245//2 409//2 411//2
f 248//1 412//1 410//1
f 245//2 411//2 413//2
f 248//1 414//1 412//1
f 245//2 413//2 415//2
f 248//1 416//1 414//1
f 245//2 415//2 417//2
f 248//1 418//1 416//1
f 245//2 417//2 419//2
f 248//1 420//1 418//1
f 245//2 419//2 421//2
f 248//1 422//1 420//1
f 245//2 421//2 423//2
f 248//1 424//1 422//1
f 245//2 423//2 425//2
f 248//1 426//1 424//1
f 245//2 425//2 427//2
f 248//1 428//1 426//1
f 245//2 427//2 429//2
f 248//1 430//1 428//1
f 245//2 429//2 431//2
f 248//1 432//1 430//1
f 245//2 431//2 433//2
f 248//1 434//1 432//1
f 245//2 433//2 435//2
f 248//1 436//1 434//1
f 245//2 435//2 437//2
f 248//1 438//1 436//1
f 245//2 437//2 439//2
f 248//1 440//1 438//1
f 245//2 439//2 441//2
f 248//1 442//1 440//1
f 245//2 441//2 443//2
f 248//1 444//1 442//1
f 245//2 443//2 445//2
f 248//1 446//1 444//1
f 245//2 445//2 447//2
f 248//1 448//1 446//1
f 245//2 447//2 449//2
f 248//1 450//1 448//1
f 245//2 449//2 451//2
f 248//1 452//1 450//1
f 245//2 451//2 453//2
f 248//1 454//1 452//1
f 245//2 453//2 455//2
f 248//1 456//1 454//1
f 245//2 455//2 457//2
f 248//1 458//1 456//1
f 245//2 457//2 459//2
f 248//1 460//1 458//1
f 245//2 459//2 461//2
f 248//1 462//1 460//1
f 245//2 461//2 463//2
f 248//1 464//1 462//1
f 245//2 463//2 465//2
f 248//1 466//1 464//1
f 245//2 465//2 467//2
f 248//1 468//1 466//1
f 245//2 467//2 469//2
f 248//1 470//1 468//1
f 245//2 469//2 471//2
f 248//1 472//1 470//1
f 245//2 471//2 473//2
f 248//1 474//1 472//1
f 245//2 473//2 475//2
f 248//1 476//1 474//1
f 245//2 475//2 477//2
f 248//1 478//1 476//1
f 245//2 477//2 479//2
f 248//1 480//1 478//1
f 245//2 479//2 481//2
f 248//1 482//1 480//1
f 245//2 481//2 483//2
f 248//1 484//1 482//1
f 245//2 483//2 485//2
f 248//1 486//1 484//1
f 245//2 485//2 487//2
f 248//1 488//1 486//1
f 245//134 246//135 250//135
f 245//134 250//135 248//134
f 246//135 247//136 249//136
f 246//135 249//136 250//135
f 247//136 251//137 252//137
f 247//136 252//137 249//136
f 251//138 253//139 254//139
f 251//138 254//139 252//140
f 253//139 255//141 256//141
f 253//139 256//141 254//139
f 255//141 257//142 258//142
f 255//141 258//142 256//141
f 257//142 259//143 260//143
f 257//142 260//143 258//142
f 259//143 261//144 262//144
f 259//143 262//144 260//143
f 261//144 263//145 264//145
f 261//144 264//145 262//144
f 263//145 265//146 266//146
f 263//145 266//146 264//145
f 265//146 267//147 268//147
f 265//146 268//147 266//146
f 267//147 269//148 270//148
f 267//147 270//148 268//147
f 269//149 271//150 272//150
f 269//149 272//150 270//149
f 271//150 273//151 274//151
f 271//150 274//151 272//150
f 273//151 275//152 276//152
f 273//151 276//152 274//151
f 275//152 277//153 278//153
f 275//152 278//153 276//152
f 277//153 279//154 280//154
f 277//153 280//154 278//153
f 279//154 281//155 282//155
f 279//154 282//155 280//154
f 281//155 283//156 284//156
f 281//155 284//156 282//155
f 283//156 285//157 286//157
f 283//156 286//157 284//156
f 285//157 287//158 288//158
f 285//157 288//158 286//157
f 287//159 289//160 290//160
f 287//159 290//160 288//159
f 289//160 291//161 292//161
f 289//160 292//161 290//160
f 291//161 293//162 294//163
f 291//161 294//163 292//161
f 293//162 295//164 296//164
f 293//162 296//164 294//163
f 295//164 297//165 298//165
f 295//164 298//165 296//164
f 297//165 299//166 300//166
f 297//165 300//166 298//165
f 299//166 301//167 302//167
f 299//166 302//167 300//166
f 301//167 303//168 304//168
f 301//167 304//168 302//167
f 303//168 305//169 306//169
f 303//168 306//169 304//168
f 305//170 307//171 308//171
f 305//170 308//171 306//170
f 307//171 309//172 310//172
f 307//171 310//172 308//171
f 309//172 311//173 312//173
f 309//172 312//173 310//172
f 311//173 313//174 314//174
f 311//173 314//174 312//173
f 313//174 315//175 316//175
f 313//174 316//175 314//174
f 315//175 317//176 318//177
f 315//175 318//177 316//175
f 317//176 319//131 320//131
f 317//176 320//131 318//177
f 319//131 321//130 322//130
f 319//131 322//130 320//131
f 321//130 323//178 324//178
f 321//130 324//178 322//130
f 323//179 325//128 326//128
f 323//179 326//128 324//179
f 325//128 327//127 328//127
f 325//128 328//127 326//128
f 327//127 329//126 330//126
f 327//127 330//126 328//127
f 329//126 331//125 332//125
f 329//126 332//125 330//126
f 331//125 333//124 334//124
f 331//125 334//124 332//125
f 333//124 335//123 336//123
f 333//124 336//123 334//124
f 335//123 337//122 338//122
f 335//123 338//122 336//123
f 337//122 339//121 340//121
f 337//122 340//121 338//122
f 339//121 341//180 342//180
f 339//121 342//180 340//121
f 341//181 343//119 344//119
f 341//181 344//119 342//181
f 343//119 345//118 346//118
f 343//119 346//118 344//119
f 345//118 347//117 348//117
f 345//118 348//117 346//118
f 347//117 349//116 350//116
f 347//117 350//116 348//117
f 349//116 351//115 352//115
f 349//116 352//115 350//116
f 351//115 353//114 354//114
f 351//115 354//114 352//115
f 353//114 355//113 356//113
f 353//114 356//113 354//114
f 355//113 357//112 358//112
f 355//113 358//112 356//113
f 357//112 359//182 360//183
f 357//112 360//183 358//112
f 359//184 361//110 362//110
f 359//184 362//110 360//184
f 361//110 363//109 364//109
f 361//110 364//109 362//110
f 363//109 365//185 366//185
f 363//109 366//185 364//109
f 365//142 367//142 368//142
f 365//142 368//142 366//142
f 367//186 369//30 370//30
f 367//186 370//30 368//186
f 369//30 371//29 372//29
f 369//30 372//29 370//30
f 371//29 373//187 374//187
f 371//29 374//187 372//29
f 373//187 375//25 376//25
f 373//187 376//25 374//187
f 375//25 377//24 378//24
f 375//25 378//24 376//25
f 377//24 379//23 380//23
f 377//24 380//23 378//24
f 379//23 381//22 382//22
f 379//23 382//22 380//23
f 381//22 383//21 384//21
f 381//22 384//21 382//22
f 383//21 385//20 386//20
f 383//21 386//20 384//21
f 385//20 387//19 388//19
f 385//20 388//19 386//20
f 387//19 389//18 390//18
f 387//19 390//18 388//19
f 389//18 391//188 392//188
f 389//18 392//188 390//18
f 391//188 393//15 394//15
f 391//188 394//15 392//188
f 393//15 395//14 396//14
f 393//15 396//14 394//15
f 395//14 397//13 398//13
f 395//14 398//13 396//14
f 397//13 399//12 400//12
f 397//13 400//12 398//13
f 399//12 401//11 402//11
f 399//12 402//11 400//12
f 401//11 403//10 404//10
f 401//11 404//10 402//11
f 403//10 405//9 406//9
f 403//10 406//9 404//10
f 405//9 407//8 408//8
f 405//9 408//8 406//9
f 407//8 409//189 410//189
f 407//8 410//189 408//8
f 409//189 411//5 412//5
f 409//189 412//5 410//189
f 411//5 413//4 414//4
f 411//5 414//4 412//5
f 413//4 415//190 416//190
f 413//4 416//190 414//4
f 415//190 417//191 418//191
f 415//190 418//191 416//190
f 417//191 419//192 420//192
f 417//191 420//192 418//191
f 419//192 421//193 422//193
f 419//192 422//193 420//192
f 421//193 423//194 424//194
f 421//193 424//194 422//193
f 423//194 425//195 426//195
f 423//194 426//195 424//194
f 425//195 427//196 428//196
f 425//195 428//196 426//195
f 427//196 429//197 430//197
f 427//196 430//197 428//196
f 429//197 431//198 432//198
f 429//197 432//198 430//197
f 431//198 433//199 434//199
f 431//198 434//199 432//198
f 433//199 435//200 436//200
f 433//199 436//200 434//199
f 435//200 437//201 438//201
f 435//200 438//201 436//200
f 437//201 439//202 440//202
f 437//201 440//202 438//201
f 439//202 441//203 442//203
f 439//202 442//203 440//202
f 441//203 443//204 444//204
f 441//203 444//204 442//203
f 443//204 445//205 446//205
f 443//204 446//205 444//204
f 445//205 447//206 448//206
f 445//205 448//206 446//205
f 447//206 449//207 450//207
f 447//206 450//207 448//206
f 449//207 451//208 452//208
f 449//207 452//208 450//207
f 451//208 453//209 454//209
f 451//208 454//209 452//208
f 453//209 455//210 456//210
f 453//209 456//210 454//209
f 455//210 457//211 458//211
f 455//210 458//211 456//210
f 457//211 459//212 460//212
f 457//211 460//212 458//211
f 459//212 461//213 462//213
f 459//212 462//213 460//212
f 461//213 463//214 464//214
f 461//213 464//214 462//213
f 463//214 465//215 466//215
f 463//214 466//215 464//214
f 465//215 467//216 468//216
f 465//215 468//216 466//215
f 467//216 469//217 470//217
f 467//216 470//217 468//216
f 469//217 471//218 472//218
f 469//217 472//218 470//217
f 471//218 473//219 474//219
f 471//218 474//219 472//218
f 473//219 475//220 476//220
f 473//219 476//220 474//219
f 475//220 477//221 478//221
f 475//220 478//221 476//220
f 477//221 479//222 480//222
f 477//221 480//222 478//221
f 479//222 481//223 482//223
f 479//222 482//223 480//222
f 481//223 483//224 484//224
f 481//223 484//224 482//223
f 483//224 485//225 486//225
f 483//224 486//225 484//224
f 485//225 487//226 488//226
f 485//225 488//226 486//225
f 487//114 245//114 248//114
f 487//114 248//114 488//114
f 489//1 490//1 491//1
f 492//2 493//2 494//2
f 489//1 491//1 495//1
f 492//2 496//2 493//2
f 489//1 495//1 497//1
f 492//2 498//2 496//2
f 489//1 497//1 499//1
f 492//2 500//2 498//2
f 489//1 499//1 501//1
f 492//2 502//2 500//2
f 489//1 501//1 503//1
f 492//2 504//2 502//2
f 489//1 503//1 505//1
f 492//2 506//2 504//2
f 489//1 505//1 507//1
f 492//2 508//2 506//2
f 489//1 507//1 509//1
f 492//2 510//2 508//2
f 489//1 509//1 511//1
f 492//2 512//2 510//2
f 489//1 511//1 513//1
f 492//2 514//2 512//2
f 489//1 513//1 515//1
f 492//2 516//2 514//2
f 489//1 515//1 517//1
f 492//2 518//2 516//2
f 489//1 517//1 519//1
f 492//2 520//2 518//2
f 489//1 519//1 521//1
f 492//2 522//2 520//2
f 489//1 521//1 523//1
f 492//2 524//2 522//2
f 489//1 523//1 525//1
f 492//2 526//2 524//2
f 489//1 525//1 527//1
f 492//2 528//2 526//2
f 489//1 527//1 529//1
f 492//2 530//2 528//2
f 489//1 529//1 531//1
f 492//2 532//2 530//2
f 489//1 531//1 533//1
f 492//2 534//2 532//2
f 489//1 533//1 535//1
f 492//2 536//2 534//2
f 489//1 535//1 537//1
f 492//2 538//2 536//2
f 489//1 537//1 539//1
f 492//2 540//2 538//2
f 489//1 539//1 541//1
f 492//2 542//2 540//2
f 489//1 541//1 543//1
f 492//2 544//2 542//2
f 489//1 543//1 545//1
f 492//2 546//2 544//2
f 489//1 545//1 547//1
f 492//2 548//2 546//2
f 489//1 547//1 549//1
f 492//2 550//2 548//2
f 489//1 549//1 551//1
f 492//2 552//2 550//2
f 489//1 551//1 553//1
f 492//2 554//2 552//2
f 489//1 553//1 555//1
f 492//2 556//2 554//2
f 489//1 555//1 557//1
f 492//2 558//2 556//2
f 489//1 557//1 559//1
f 492//2 560//2 558//2
f 489//1 559//1 561//1
f 492//2 562//2 560//2
f 489//1 561//1 563//1
f 492//2 564//2 562//2
f 489//1 563//1 565//1
f 492//2 566//2 564//2
f 489//1 565//1 567//1
f 492//2 568//2 566//2
f 489//1 567//1 569//1
f 492//2 570//2 568//2
f 489//1 569//1 571//1
f 492//2 572//2 570//2
f 489//1 571//1 573//1
f 492//2 574//2 572//2
f 489//1 573//1 575//1
f 492//2 576//2 574//2
f 489//1 575//1 577//1
f 492//2 578//2 576//2
f 489//1 577//1 579//1
f 492//2 580//2 578//2
f 489//1 579//1 581//1
f 492//2 582//2 580//2
f 489//1 581//1 583//1
f 492//2 584//2 582//2
f 489//1 583//1 585//1
f 492//2 586//2 584//2
f 489//1 585//1 587//1
f 492//2 588//2 586//2
f 489//1 587//1 589//1
f 492//2 590//2 588//2
f 489//1 589//1 591//1
f 492//2 592//2 590//2
f 489//1 591//1 593//1
f 492//2 594//2 592//2
f 489//1 593//1 595//1
f 492//2 596//2 594//2
f 489//1 595//1 597//1
f 492//2 598//2 596//2
f 489//1 597//1 599//1
f 492//2 600//2 598//2
f 489//1 599//1 601//1
f 492//2 602//2 600//2
f 489//1 601//1 603//1
f 492//2 604//2 602//2
f 489//1 603//1 605//1
f 492//2 606//2 604//2
f 489//1 605//1 607//1
f 492//2 608//2 606//2
f 489//1 607//1 609//1
f 492//2 610//2 608//2
f 489//2 609//2 611//2
f 492//1 612//1 610//1
f 489//2 611//2 613//2
f 492//1 614//1 612//1
f 489//2 613//2 615//2
f 492//1 616//1 614//1
f 489//2 615//2 617//2
f 492//1 618//1 616//1
f 489//2 617//2 619//2
f 492//1 620//1 618//1
f 489//2 619//2 621//2
f 492//1 622//1 620//1
f 489//2 621//2 623//2
f 492//1 624//1 622//1
f 489//2 623//2 625//2
f 492//1 626//1 624//1
f 489//2 625//2 627//2
f 492//1 628//1 626//1
f 489//2 627//2 629//2
f 492//1 630//1 628//1
f 489//2 629//2 631//2
f 492//1 632//1 630//1
f 489//2 631//2 633//2
f 492//1 634//1 632//1
f 489//2 633//2 635//2
f 492//1 636//1 634//1
f 489//2 635//2 637//2
f 492//1 638//1 636//1
f 489//2 637//2 639//2
f 492//1 640//1 638//1
f 489//2 639//2 641//2
f 492//1 642//1 640//1
f 489//2 641//2 643//2
f 492//1 644//1 642//1
f 489//2 643//2 645//2
f 492//1 646//1 644//1
f 489//2 645//2 647//2
f 492//1 648//1 646//1
f 489//2 647//2 649//2
f 492//1 650//1 648//1
f 489//2 649//2 651//2
f 492//1 652//1 650//1
f 489//2 651//2 653//2
f 492//1 654//1 652//1
f 489//2 653//2 655//2
f 492//1 656//1 654//1
f 489//2 655//2 657//2
f 492//1 658//1 656//1
f 489//2 657//2 659//2
f 492//1 660//1 658//1
f 489//2 659//2 661//2
f 492//1 662//1 660//1
f 489//2 661//2 663//2
f 492//1 664//1 662//1
f 489//2 663//2 665//2
f 492//1 666//1 664//1
f 489//2 665//2 667//2
f 492//1 668//1 666//1
f 489//2 667//2 669//2
f 492//1 670//1 668//1
f 489//2 669//2 671//2
f 492//1 672//1 670//1
f 489//2 671//2 673//2
f 492//1 674//1 672//1
f 489//2 673//2 675//2
f 492//1 676//1 674//1
f 489//2 675//2 677//2
f 492//1 678//1 676//1
f 489//2 677//2 679//2
f 492//1 680//1 678//1
f 489//2 679//2 681//2
f 492//1 682//1 680//1
f 489//2 681//2 683//2
f 492//1 684//1 682//1
f 489//2 683//2 685//2
f 492//1 686//1 684//1
f 489//2 685//2 687//2
f 492//1 688//1 686//1
f 489//2 687//2 689//2
f 492//1 690//1 688//1
f 489//2 689//2 691//2
f 492//1 692//1 690//1
f 489//2 691//2 693//2
f 492//1 694//1 692//1
f 489//2 693//2 695//2
f 492//1 696//1 694//1
f 489//2 695//2 697//2
f 492//1 698//1 696//1
f 489//2 697//2 699//2
f 492//1 700//1 698//1
f 489//2 699//2 701//2
f 492//1 702//1 700//1
f 489//2 701//2 703//2
f 492//1 704//1 702//1
f 489//2 703//2 705//2
f 492//1 706//1 704//1
f 489//2 705//2 707//2
f 492//1 708//1 706//1
f 489//2 707//2 709//2
f 492//1 710//1 708//1
f 489//2 709//2 711//2
f 492//1 712//1 710//1
f 489//2 711//2 713//2
f 492//1 714//1 712//1
f 489//2 713//2 715//2
f 492//1 716//1 714//1
f 489//2 715//2 717//2
f 492//1 718//1 716//1
f 489//2 717//2 719//2
f 492//1 720//1 718//1
f 489//2 719//2 721//2
f 492//1 722//1 720//1
f 489//2 721//2 723//2
f 492//1 724//1 722//1
f 489//2 723//2 725//2
f 492//1 726//1 724//1
f 489//2 725//2 727//2
f 492//1 728//1 726//1
f 489//2 727//2 729//2
f 492//1 730//1 728//1
f 489//2 729//2 731//2
f 492//1 732//1 730//1
f 489//227 490//95 494//95
f 489//227 494//95 492//227
f 490//95 491//94 493//94
f 490//95 493//94 494//95
f 491//94 495//228 496//228
f 491//94 496//228 493//94
f 495//229 497//92 498//92
f 495//229 498//92 496//229
f 497//92 499//91 500//91
f 497//92 500//91 498//92
f 499//91 501//90 502//90
f 499//91 502//90 500//91
f 501//90 503//89 504//89
f 501//90 504//89 502//90
f 503//89 505//88 506//88
f 503//89 506//88 504//89
f 505//88 507//87 508//87
f 505//88 508//87 506//88
f 507//87 509//86 510//86
f 507//87 510//86 508//87
f 509//86 511//85 512//85
f 509//86 512//85 510//86
f 511//85 513//230 514//230
f 511//85 514//230 512//85
f 513//231 515//83 516//83
f 513//231 516//83 514//231
f 515//83 517//82 518//82
f 515//83 518//82 516//83
f 517//82 519//81 520//81
f 517//82 520//81 518//82
f 519//81 521//80 522//80
f 519//81 522//80 520//81
f 521//80 523//79 524//79
f 521//80 524//79 522//80
f 523//79 525//78 526//78
f 523//79 526//78 524//79
f 525//78 527//77 528//77
f 525//78 528//77 526//78
f 527//77 529//76 530//76
f 527//77 530//76 528//77
f 529//76 531//232 532//232
f 529//76 532//232 530//76
f 531//233 533//74 534//74
f 531//233 534//74 532//233
f 533//74 535//73 536//73
f 533//74 536//73 534//74
f 535//73 537//234 538//234
f 535//73 538//234 536//73
f 537//234 539//235 540//235
f 537//234 540//235 538//234
f 539//235 541//236 542//236
f 539//235 542//236 540//235
f 541//236 543//237 544//237
f 541//236 544//237 542//236
f 543//237 545//238 546//238
f 543//237 546//238 544//237
f 545//238 547//239 548//239
f 545//238 548//239 546//238
f 547//239 549//240 550//240
f 547//239 550//240 548//239
f 549//241 551//242 552//242
f 549//241 552//242 550//241
f 551//242 553//243 554//243
f 551//242 554//243 552//242
f 553//243 555//244 556//244
f 553//243 556//244 554//243
f 555//244 557//245 558//245
f 555//244 558//245 556//244
f 557//245 559//246 560//246
f 557//245 560//246 558//245
f 559//246 561//247 562//247
f 559//246 562//247 560//246
f 561//247 563//225 564//225
f 561//247 564//225 562//247
f 563//225 565//224 566//224
f 563//225 566//224 564//225
f 565//224 567//248 568//248
f 565//224 568//248 566//224
f 567//249 569//222 570//222
f 567//249 570//222 568//250
f 569//222 571//221 572//221
f 569//222 572//221 570//222
f 571//221 573//220 574//220
f 571//221 574//220 572//221
f 573//220 575//219 576//219
f 573//220 576//219 574//220
f 575//219 577//218 578//218
f 575//219 578//218 576//219
f 577//218 579//217 580//217
f 577//218 580//217 578//218
f 579//217 581//216 582//216
f 579//217 582//216 580//217
f 581//216 583//215 584//215
f 581//216 584//215 582//216
f 583//215 585//251 586//251
f 583//215 586//251 584//215
f 585//252 587//213 588//213
f 585//252 588//213 586//252
f 587//213 589//212 590//212
f 587//213 590//212 588//213
f 589//212 591//211 592//211
f 589//212 592//211 590//212
f 591//211 593//210 594//210
f 591//211 594//210 592//211
f 593//210 595//209 596//209
f 593//210 596//209 594//210
f 595//209 597//208 598//208
f 595//209 598//208 596//209
f 597//208 599//207 600//207
f 597//208 600//207 598//208
f 599//207 601//206 602//206
f 599//207 602//206 600//207
f 601//206 603//253 604//253
f 601//206 604//253 602//206
f 603//254 605//204 606//204
f 603//254 606//204 604//254
f 605//204 607//203 608//203
f 605//204 608//203 606//204
f 607//203 609//255 610//255
f 607//203 610//255 608//203
f 609//90 611//90 612//90
f 609//90 612//90 610//90
f 611//256 613//161 614//161
f 611//256 614//161 612//257
f 613//161 615//160 616//160
f 613//161 616//160 614//161
f 615//160 617//258 618//258
f 615//160 618//258 616//160
f 617//258 619//157 620//157
f 617//258 620//157 618//258
f 619//157 621//156 622//156
f 619//157 622//156 620//157
f 621//156 623//155 624//155
f 621//156 624//155 622//156
f 623//155 625//154 626//154
f 623//155 626//154 624//155
f 625//154 627//153 628//153
f 625//154 628//153 626//154
f 627//153 629//152 630//152
f 627//153 630//152 628//153
f 629//152 631//151 632//151
f 629//152 632//151 630//152
f 631//151 633//150 634//150
f 631//151 634//150 632//151
f 633//150 635//259 636//259
f 633//150 636//259 634//150
f 635//259 637//147 638//147
f 635//259 638//147 636//259
f 637//147 639//146 640//146
f 637//147 640//146 638//147
f 639//146 641//145 642//145
f 639//146 642//145 640//146
f 641//145 643//144 644//144
f 641//145 644//144 642//145
f 643//144 645//143 646//143
f 643//144 646//143 644//144
f 645//143 647//142 648//142
f 645//143 648//142 646//143
f 647//142 649//141 650//141
f 647//142 650//141 648//142
f 649//141 651//139 652//139
f 649//141 652//139 650//141
f 651//139 653//260 654//260
f 651//139 654//260 652//139
f 653//260 655//136 656//136
f 653//260 656//136 654//260
f 655//136 657//135 658//135
f 655//136 658//135 656//136
f 657//135 659//261 660//261
f 657//135 660//261 658//135
f 659//261 661//262 662//262
f 659//261 662//262 660//261
f 661//262 663//263 664//263
f 661//262 664//263 662//262
f 663//263 665//264 666//264
f 663//263 666//264 664//263
f 665//264 667//265 668//265
f 665//264 668//265 666//264
f 667//265 669//266 670//266
f 667//265 670//266 668//265
f 669//266 671//267 672//267
f 669//266 672//267 670//266
f 671//267 673//268 674//268
f 671//267 674//268 672//267
f 673//268 675//269 676//269
f 673//268 676//269 674//268
f 675//269 677//270 678//270
f 675//269 678//270 676//269
f 677//270 679//271 680//271
f 677//270 680//271 678//270
f 679//271 681//272 682//272
f 679//271 682//272 680//271
f 681//272 683//273 684//273
f 681//272 684//273 682//272
f 683//273 685//70 686//70
f 683//273 686//70 684//273
f 685//70 687//69 688//69
f 685//70 688//69 686//70
f 687//69 689//274 690//274
f 687//69 690//274 688//69
f 689//274 691//66 692//66
f 689//274 692//66 690//274
f 691//66 693//65 694//65
f 691//66 694//65 692//66
f 693//65 695//64 696//64
f 693//65 696//64 694//65
f 695//64 697//63 698//63
f 695//64 698//63 696//64
f 697//63 699//62 700//62
f 697//63 700//62 698//63
f 699//62 701//61 702//61
f 699//62 702//61 700//62
f 701//61 703//60 704//60
f 701//61 704//60 702//61
f 703//60 705//59 706//59
f 703//60 706//59 704//60
f 705//59 707//275 708//275
f 705//59 708//275 706//59
f 707//275 709//56 710//56
f 707//275 710//56 708//275
f 709//56 711//55 712//55
f 709//56 712//55 710//56
f 711//55 713//54 714//54
f 711//55 714//54 712//55
f 713//54 715//53 716//53
f 713//54 716//53 714//54
f 715//53 717//52 718//52
f 715//53 718//52 716//53
f 717//52 719//51 720//51
f 717//52 720//51 718//52
f 719//51 721//50 722//50
f 719//51 722//50 720//51
f 721//50 723//49 724//49
f 721//50 724//49 722//50
f 723//49 725//276 726//276
f 723//49 726//276 724//49
f 725//276 727//46 728//46
f 725//276 728//46 726//276
f 727//46 729//45 730//45
f 727//46 730//45 728//46
f 729//45 731//277 732//277
f 729//45 732//277 730//45
f 731//208 489//208 492//208
f 731//208 492//208 732//208
f 733//2 734//2 735//2
f 736//1 737//1 738//1
f 735//196 734//278 738//278
f 735//196 738//278 737//196
f 733//2 739//2 734//2
f 736//1 738//1 740//1
f 734//278 739//279 740//279
f 734//278 740//279 738//278
f 733//2 741//2 739//2
f 736//1 740//1 742//1
f 739//279 741//280 742//280
f 739//279 742//280 740//279
f 733//2 743//2 741//2
f 736//1 742//1 744//1
f 741//280 743//281 744//281
f 741//280 744//281 742//280
f 733//2 7//2 743//2
f 736//1 744//1 8//1
f 743//281 7//282 8//282
f 743//281 8//282 744//281
f 733//2 745//2 7//2
f 736//1 8//1 746//1
f 7//283 745//284 746//284
f 7//283 746//284 8//283
f 733//2 747//2 745//2
f 736//1 746//1 748//1
f 745//284 747//285 748//285
f 745//284 748//285 746//284
f 733//2 749//2 747//2
f 736//1 748//1 750//1
f 747//285 749//286 750//286
f 747//285 750//286 748//285
f 733//2 751//2 749//2
f 736//1 750//1 752//1
f 749//286 751//287 752//287
f 749//286 752//287 750//286
f 733//2 25//2 751//2
f 736//1 752//1 26//1
f 751//287 25//288 26//288
f 751//287 26//288 752//287
f 733//2 753//2 25//2
f 736//1 26//1 754//1
f 25//289 753//290 754//290
f 25//289 754//290 26//289
f 733//2 755//2 753//2
f 736//1 754//1 756//1
f 753//290 755//291 756//291
f 753//290 756//291 754//290
f 733//2 757//2 755//2
f 736//1 756//1 758//1
f 755//291 757//292 758//292
f 755//291 758//292 756//291
f 733//2 759//2 757//2
f 736//1 758//1 760//1
f 757//292 759//293 760//293
f 757//292 760//293 758//292
f 733//2 43//2 759//2
f 736//1 760//1 44//1
f 759//293 43//294 44//294
f 759//293 44//294 760//293
f 733//2 761//2 43//2
f 736//1 44//1 762//1
f 43//295 761//296 762//296
f 43//295 762//296 44//295
f 733//2 763//2 761//2
f 736//1 762//1 764//1
f 761//296 763//297 764//297
f 761//296 764//297 762//296
f 733//2 765//2 763//2
f 736//1 764//1 766//1
f 763//297 765//298 766//298
f 763//297 766//298 764//297
f 733//2 767//2 765//2
f 736//1 766//1 768//1
f 765//298 767//299 768//299
f 765//298 768//299 766//298
f 733//2 61//2 767//2
f 736//1 768//1 62//1
f 767//299 61//300 62//300
f 767//299 62//300 768//299
f 733//2 769//2 61//2
f 736//1 62//1 770//1
f 61//301 769//302 770//302
f 61//301 770//302 62//301
f 733//2 771//2 769//2
f 736//1 770//1 772//1
f 769//302 771//303 772//303
f 769//302 772//303 770//302
f 733//2 773//2 771//2
f 736//1 772//1 774//1
f 771//303 773//304 774//304
f 771//303 774//304 772//303
f 733//2 775//2 773//2
f 736//1 774//1 776//1
f 773//304 775//305 776//305
f 773//304 776//305 774//304
f 733//2 79//2 775//2
f 736//1 776//1 80//1
f 775//305 79//306 80//306
f 775//305 80//306 776//305
f 733//2 777//2 79//2
f 736//1 80//1 778//1
f 79//307 777//308 778//308
f 79//307 778//308 80//307
f 733//2 779//2 777//2
f 736//1 778//1 780//1
f 777//308 779//309 780//309
f 777//308 780//309 778//308
f 733//2 781//2 779//2
f 736//1 780//1 782//1
f 779//309 781//310 782//310
f 779//309 782//310 780//309
f 733//2 783//2 781//2
f 736//1 782//1 784//1
f 781//310 783//311 784//311
f 781//310 784//311 782//310
f 733//2 97//2 783//2
f 736//1 784//1 98//1
f 783//311 97//312 98//312
f 783//311 98//312 784//311
f 733//2 785//2 97//2
f 736//1 98//1 786//1
f 97//313 785//314 786//314
f 97//313 786//314 98//313
f 733//2 787//2 785//2
f 736//1 786//1 788//1
f 785//314 787//315 788//315
f 785//314 788//315 786//314
f 733//2 789//2 787//2
f 736//1 788//1 790//1
f 787//315 789//316 790//316
f 787//315 790//316 788//315
f 733//2 791//2 789//2
f 736//1 790//1 792//1
f 789//316 791//317 792//317
f 789//316 792//317 790//316
f 733//2 115//2 791//2
f 736//1 792//1 116//1
f 791//317 115//318 116//318
f 791//317 116//318 792//317
f 733//2 793//2 115//2
f 736//1 116//1 794//1
f 115//319 793//320 794//320
f 115//319 794//320 116//319
f 733//2 795//2 793//2
f 736//1 794//1 796//1
f 793//320 795//321 796//321
f 793//320 796//321 794//320
f 733//2 797//2 795//2
f 736//1 796//1 798//1
f 795//321 797//322 798//322
f 795//321 798//322 796//321
f 733//2 799//2 797//2
f 736//1 798//1 800//1
f 797//322 799//323 800//323
f 797//322 800//323 798//322
f 733//2 801//2 799//2
f 736//1 800//1 802//1
f 799//323 801//267 802//267
f 799//323 802//267 800//323
f 733//2 803//2 801//2
f 736//1 802//1 804//1
f 801//267 803//324 804//324
f 801//267 804//324 802//267
f 733//2 805//2 803//2
f 736//1 804//1 806//1
f 803//324 805//325 806//325
f 803//324 806//325 804//324
f 733//2 807//2 805//2
f 736//1 806//1 808//1
f 805//325 807//326 808//326
f 805//325 808//326 806//325
f 733//2 809//2 807//2
f 736//1 808//1 810//1
f 807//326 809//327 810//327
f 807//326 810//327 808//326
f 733//2 251//2 809//2
f 736//1 810//1 252//1
f 809//327 251//328 252//328
f 809//327 252//328 810//327
f 733//2 811//2 251//2
f 736//1 252//1 812//1
f 251//329 811//330 812//330
f 251//329 812//330 252//329
f 733//2 813//2 811//2
f 736//1 812//1 814//1
f 811//330 813//331 814//331
f 811//330 814//331 812//330
f 733//2 815//2 813//2
f 736//1 814//1 816//1
f 813//331 815//332 816//332
f 813//331 816//332 814//331
f 733//2 817//2 815//2
f 736//1 816//1 818//1
f 815//332 817//333 818//333
f 815//332 818//333 816//332
f 733//2 269//2 817//2
f 736//1 818//1 270//1
f 817//333 269//334 270//334
f 817//333 270//334 818//333
f 733//2 819//2 269//2
f 736//1 270//1 820//1
f 269//335 819//336 820//336
f 269//335 820//336 270//335
f 733//2 821//2 819//2
f 736//1 820//1 822//1
f 819//336 821//337 822//337
f 819//336 822//337 820//336
f 733//2 823//2 821//2
f 736//1 822//1 824//1
f 821//337 823//338 824//338
f 821//337 824//338 822//337
f 733//2 825//2 823//2
f 736//1 824//1 826//1
f 823//338 825//339 826//339
f 823//338 826//339 824//338
f 733//2 287//2 825//2
f 736//1 826//1 288//1
f 825//339 287//340 288//340
f 825//339 288//340 826//339
f 733//2 827//2 287//2
f 736//1 288//1 828//1
f 287//341 827//342 828//342
f 287//341 828//342 288//341
f 733//2 829//2 827//2
f 736//1 828//1 830//1
f 827//342 829//343 830//343
f 827//342 830//343 828//342
f 733//2 831//2 829//2
f 736//1 830//1 832//1
f 829//343 831//344 832//344
f 829//343 832//344 830//343
f 733//2 833//2 831//2
f 736//1 832//1 834//1
f 831//344 833//345 834//345
f 831//344 834//345 832//344
f 733//2 305//2 833//2
f 736//1 834//1 306//1
f 833//345 305//346 306//346
f 833//345 306//346 834//345
f 733//2 835//2 305//2
f 736//1 306//1 836//1
f 305//347 835//348 836//348
f 305//347 836//348 306//347
f 733//2 837//2 835//2
f 736//1 836//1 838//1
f 835//348 837//349 838//349
f 835//348 838//349 836//348
f 733//2 839//2 837//2
f 736//1 838//1 840//1
f 837//349 839//350 840//350
f 837//349 840//350 838//349
f 733//2 841//2 839//2
f 736//1 840//1 842//1
f 839//350 841//351 842//351
f 839//350 842//351 840//350
f 733//2 323//2 841//2
f 736//1 842//1 324//1
f 841//351 323//352 324//352
f 841//351 324//352 842//351
f 733//2 843//2 323//2
f 736//1 324//1 844//1
f 323//353 843//354 844//354
f 323//353 844//354 324//353
f 733//2 845//2 843//2
f 736//1 844//1 846//1
f 843//354 845//355 846//355
f 843//354 846//355 844//354
f 733//2 847//2 845//2
f 736//1 846//1 848//1
f 845//355 847//356 848//356
f 845//355 848//356 846//355
f 733//2 849//2 847//2
f 736//1 848//1 850//1
f 847//356 849//357 850//357
f 847//356 850//357 848//356
f 733//2 341//2 849//2
f 736//1 850//1 342//1
f 849//357 341//358 342//358
f 849//357 342//358 850//357
f 733//2 851//2 341//2
f 736//1 342//1 852//1
f 341//359 851//360 852//360
f 341//359 852//360 342//359
f 733//2 853//2 851//2
f 736//1 852//1 854//1
f 851//360 853//361 854//361
f 851//360 854//361 852//360
f 733//2 855//2 853//2
f 736//1 854//1 856//1
f 853//361 855//362 856//362
f 853//361 856//362 854//361
f 733//2 857//2 855//2
f 736//1 856//1 858//1
f 855//362 857//363 858//363
f 855//362 858//363 856//362
f 733//2 359//2 857//2
f 736//1 858//1 360//1
f 857//363 359//364 360//364
f 857//363 360//364 858//363
f 733//2 859//2 359//2
f 736//1 360//1 860//1
f 359//365 859//366 860//366
f 359//365 860//366 360//365
f 733//2 861//2 859//2
f 736//1 860//1 862//1
f 859//366 861//367 862//367
f 859//366 862//367 860//366
f 733//2 863//2 861//2
f 736//1 862//1 864//1
f 861//367 863//368 864//368
f 861//367 864//368 862//367
f 733//2 865//2 863//2
f 736//1 864//1 866//1
f 863//368 865//369 866//369
f 863//368 866//369 864//368
f 733//2 867//2 865//2
f 736//1 866//1 868//1
f 865//369 867//102 868//102
f 865//369 868//102 866//369
f 733//2 869//2 867//2
f 736//1 868//1 870//1
f 867//102 869//370 870//370
f 867//102 870//370 868//102
f 733//2 871//2 869//2
f 736//1 870//1 872//1
f 869//370 871//371 872//371
f 869//370 872//371 870//370
f 733//2 873//2 871//2
f 736//1 872//1 874//1
f 871//371 873//372 874//372
f 871//371 874//372 872//371
f 733//2 875//2 873//2
f 736//1 874//1 876//1
f 873//372 875//373 876//373
f 873//372 876//373 874//372
f 733//2 495//2 875//2
f 736//1 876//1 496//1
f 875//373 495//374 496//374
f 875//373 496//374 876//373
f 733//2 877//2 495//2
f 736//1 496//1 878//1
f 495//375 877//376 878//376
f 495//375 878//376 496//375
f 733//2 879//2 877//2
f 736//1 878//1 880//1
f 877//376 879//377 880//377
f 877//376 880//377 878//376
f 733//2 881//2 879//2
f 736//1 880//1 882//1
f 879//377 881//378 882//378
f 879//377 882//378 880//377
f 733//2 883//2 881//2
f 736//1 882//1 884//1
f 881//378 883//379 884//379
f 881//378 884//379 882//378
f 733//2 513//2 883//2
f 736//1 884//1 514//1
f 883//379 513//380 514//380
f 883//379 514//380 884//379
f 733//2 885//2 513//2
f 736//1 514//1 886//1
f 513//381 885//382 886//382
f 513//381 886//382 514//381
f 733//2 887//2 885//2
f 736//1 886//1 888//1
f 885//382 887//383 888//383
f 885//382 888//383 886//382
f 733//2 889//2 887//2
f 736//1 888//1 890//1
f 887//383 889//384 890//384
f 887//383 890//384 888//383
f 733//2 891//2 889//2
f 736//1 890//1 892//1
f 889//384 891//385 892//385
f 889//384 892//385 890//384
f 733//2 531//2 891//2
f 736//1 892//1 532//1
f 891//385 531//386 532//386
f 891//385 532//386 892//385
f 733//2 893//2 531//2
f 736//1 532//1 894//1
f 531//387 893//388 894//388
f 531//387 894//388 532//387
f 733//2 895//2 893//2
f 736//1 894//1 896//1
f 893//388 895//389 896//389
f 893//388 896//389 894//388
f 733//2 897//2 895//2
f 736//1 896//1 898//1
f 895//389 897//390 898//390
f 895//389 898//390 896//389
f 733//2 899//2 897//2
f 736//1 898//1 900//1
f 897//390 899//391 900//391
f 897//390 900//391 898//390
f 733//2 549//2 899//2
f 736//1 900//1 550//1
f 899//391 549//392 550//392
f 899//391 550//392 900//391
f 733//2 901//2 549//2
f 736//1 550//1 902//1
f 549//393 901//394 902//394
f 549//393 902//394 550//393
f 733//2 903//2 901//2
f 736//1 902//1 904//1
f 901//394 903//395 904//395
f 901//394 904//395 902//394
f 733//2 905//2 903//2
f 736//1 904//1 906//1
f 903//395 905//396 906//396
f 903//395 906//396 904//395
f 733//2 907//2 905//2
f 736//1 906//1 908//1
f 905//396 907//397 908//397
f 905//396 908//397 906//396
f 733//2 567//2 907//2
f 736//1 908//1 568//1
f 907//397 567//398 568//398
f 907//397 568//398 908//397
f 733//2 909//2 567//2
f 736//1 568//1 910//1
f 567//399 909//400 910//400
f 567//399 910//400 568//399
f 733//2 911//2 909//2
f 736//1 910//1 912//1
f 909//400 911//401 912//401
f 909//400 912//401 910//400
f 733//2 913//2 911//2
f 736//1 912//1 914//1
f 911//401 913//402 914//402
f 911//401 914//402 912//401
f 733//2 915//2 913//2
f 736//1 914//1 916//1
f 913//402 915//403 916//403
f 913//402 916//403 914//402
f 733//2 585//2 915//2
f 736//1 916//1 586//1
f 915//403 585//404 586//404
f 915//403 586//404 916//403
f 733//2 917//2 585//2
f 736//1 586//1 918//1
f 585//405 917//406 918//406
f 585//405 918//406 586//405
f 733//2 919//2 917//2
f 736//1 918//1 920//1
f 917//406 919//407 920//407
f 917//406 920//407 918//406
f 733//2 921//2 919//2
f 736//1 920//1 922//1
f 919//407 921//408 922//408
f 919//407 922//408 920//407
f 733//2 923//2 921//2
f 736//1 922//1 924//1
f 921//408 923//409 924//409
f 921//408 924//409 922//408
f 733//2 603//2 923//2
f 736//1 924//1 604//1
f 923//409 603//410 604//410
f 923//409 604//410 924//409
f 733//2 925//2 603//2
f 736//1 604//1 926//1
f 603//411 925//412 926//412
f 603//411 926//412 604//411
f 733//2 927//2 925//2
f 736//1 926//1 928//1
f 925//412 927//413 928//413
f 925//412 928//413 926//412
f 733//2 929//2 927//2
f 736//1 928//1 930//1
f 927//413 929//414 930//414
f 927//413 930//414 928//413
f 733//2 931//2 929//2
f 736//1 930//1 932//1
f 929//414 931//415 932//415
f 929//414 932//415 930//414
f 733//2 735//2 931//2
f 736//1 932//1 737//1
f 931//415 735//196 737//196
f 931//415 737//196 932//415
