# Blender 5.0.1
# www.blender.org
mtllib stones.mtl
o stones
v 7.269277 -0.899218 -0.020761
v 7.239291 -0.925364 -0.000938
v 7.258200 -0.894459 0.020472
v 7.282238 -0.901990 0.018650
v 7.264808 -0.911398 0.021849
v 7.246464 -0.904032 -0.006994
v 7.277486 -0.935926 -0.010487
v 4.127066 0.119098 -0.010161
v 4.159842 0.125462 -0.005979
v 4.164201 0.094212 -0.001301
v 4.147695 0.094294 -0.012426
v 4.151556 0.087478 0.013381
v 4.130793 0.120946 0.016691
v 4.127417 0.104156 -0.010690
v -0.976478 -0.189748 -0.000406
v -0.958662 -0.174953 -0.008830
v -0.958703 -0.175101 0.005670
v -0.962169 -0.190999 -0.006152
v -0.975276 -0.175197 0.011829
v -0.975849 -0.172672 -0.006488
v -0.962444 -0.167634 0.008188
v 7.525704 -0.917623 -0.009681
v 7.537970 -0.943096 -0.005352
v 7.513336 -0.952985 0.000166
v 7.509542 -0.939859 -0.009811
v 7.505664 -0.943353 0.012511
v 7.528965 -0.919160 0.013132
v 7.513463 -0.921044 -0.009444
v 1.858027 1.574830 -0.002121
v 1.867343 1.597819 -0.008212
v 1.867304 1.595941 0.006700
v 1.871803 1.581181 -0.007317
v 1.852092 1.587233 0.012048
v 1.850445 1.591443 -0.006585
v 1.860274 1.600678 0.009841
v 2.293222 2.127366 -0.015878
v 2.275098 2.157016 -0.002585
v 2.295912 2.137861 0.018410
v 2.286099 2.119176 0.017190
v 2.280901 2.135095 0.018451
v 2.291877 2.147549 -0.005655
v 2.261132 2.126768 -0.009950
v 3.911294 0.231209 0.011931
v 3.898560 0.260171 -0.012503
v 3.909001 0.267982 0.016010
v 3.937798 0.267226 0.000626
v 3.922607 0.276736 -0.006924
v 3.929142 0.239316 0.019278
v 3.917243 0.229454 -0.015812
v 4.410200 1.396636 -0.019433
v 4.441860 1.410423 0.000920
v 4.471026 1.371744 -0.007467
v 4.415999 1.365841 0.018027
v 4.418590 1.401197 0.011514
v 4.450192 1.345498 0.024823
v 4.436318 1.339720 -0.008784
v 8.064032 3.467326 -0.006190
v 8.066825 3.450068 -0.002765
v 8.050279 3.448585 0.000273
v 8.050484 3.456857 -0.006254
v 8.047169 3.455967 0.007607
v 8.065318 3.466372 0.008106
v 8.056115 3.467423 -0.006266
v -0.641787 1.955505 -0.001481
v -0.664461 1.949457 -0.007116
v -0.662317 1.948222 0.006867
v -0.654904 1.962417 -0.004602
v -0.646613 1.941660 0.010053
v -0.649645 1.940877 -0.007790
v -0.661435 1.939872 0.008435
v 0.550224 3.689674 -0.010104
v 0.553373 3.710264 -0.001211
v 0.556110 3.692686 0.010763
v 0.544259 3.687710 0.010131
v 0.547984 3.697170 0.011201
v 0.557556 3.699422 -0.003658
v 0.535001 3.701608 -0.005567
v 2.457362 1.521239 -0.007394
v 2.432502 1.533944 -0.004803
v 2.448436 1.540602 -0.006770
v 2.457117 1.521026 0.009608
v 2.444242 1.535348 0.011086
v 2.430793 1.537000 0.001217
v 2.445179 1.508421 -0.001419
v 0.087578 0.214661 -0.009744
v 0.068350 0.233027 -0.005582
v 0.086705 0.249483 0.000988
v 0.094647 0.239514 -0.008551
v 0.096176 0.242957 0.012689
v 0.083421 0.214053 0.011579
v 0.097268 0.221619 -0.008872
v -0.474236 3.708433 0.007719
v -0.473740 3.688759 -0.009336
v -0.480566 3.685202 0.009583
v -0.498743 3.692339 0.001140
v -0.491808 3.683515 -0.004737
v -0.486602 3.707003 0.013289
v -0.478732 3.711736 -0.009940
v -0.415469 3.603045 0.007734
v -0.425905 3.592118 -0.007775
v -0.433614 3.594463 0.007175
v -0.438110 3.609816 -0.000376
v -0.439350 3.600674 -0.005461
v -0.423548 3.610066 0.011478
v -0.414129 3.607706 -0.006881
v -0.217758 3.408367 -0.007397
v -0.216236 3.390799 -0.002623
v -0.233026 3.391106 0.001605
v -0.232516 3.398997 -0.005760
v -0.235031 3.399490 0.008656
v -0.215560 3.408390 0.007190
v -0.225823 3.409215 -0.007002
v -0.067426 3.178252 -0.001970
v -0.063600 3.134746 -0.014824
v -0.062247 3.136794 0.011853
v -0.084477 3.156831 -0.010171
v -0.044931 3.163118 0.020468
v -0.042403 3.159105 -0.013377
v -0.046684 3.135243 0.015734
v 0.371303 0.673503 -0.011471
v 0.397924 0.661833 -0.011814
v 0.385504 0.643175 0.016172
v 0.395237 0.662903 0.019511
v 0.373835 0.657380 -0.020383
v 0.377575 0.682325 0.004119
v 0.366693 0.655726 -0.001849
v 2.543916 1.538288 -0.001565
v 2.565113 1.546294 -0.007068
v 2.563196 1.546716 0.006511
v 2.557072 1.532905 -0.005060
v 2.547582 1.551538 0.010091
v 2.550111 1.553291 -0.007139
v 2.561661 1.554604 0.008395
v 2.931409 1.400035 -0.016784
v 2.963575 1.403539 -0.001203
v 2.937216 1.390968 0.016212
v 2.924523 1.406922 0.015367
v 2.940485 1.405261 0.017645
v 2.949034 1.392641 -0.006142
v 2.942680 1.428090 -0.007933
v -0.913801 3.445944 0.008048
v -0.907068 3.430003 -0.008809
v -0.912188 3.423600 0.008274
v -0.930180 3.424781 0.000249
v -0.921312 3.419580 -0.005448
v -0.924249 3.440544 0.012710
v -0.918522 3.448567 -0.008261
v 3.056819 0.805042 0.008547
v 3.053183 0.824606 -0.008753
v 3.061063 0.829088 0.009836
v 3.079421 0.823540 0.000024
v 3.071169 0.831691 -0.005456
v 3.069513 0.807744 0.013262
v 3.060387 0.801921 -0.009596
v -0.077180 0.546671 -0.010410
v -0.090319 0.553373 0.002403
v -0.085753 0.576648 -0.001021
v -0.064502 0.557373 0.006661
v -0.078869 0.547356 0.005271
v -0.066976 0.576230 0.011698
v -0.063371 0.573986 -0.005737
v -0.329342 1.458858 -0.010562
v -0.343266 1.452372 -0.000491
v -0.356190 1.470767 -0.001939
v -0.330007 1.471768 0.007706
v -0.332079 1.455875 0.003716
v -0.344982 1.481361 0.012787
v -0.339821 1.484903 -0.002878
v 3.133392 1.146762 -0.008696
v 3.149470 1.163525 -0.002985
v 3.164355 1.146850 0.000827
v 3.155574 1.140731 -0.008429
v 3.158712 1.137154 0.010143
v 3.132855 1.148137 0.010563
v 3.139706 1.138214 -0.008973
v 2.627312 1.655843 -0.019224
v 2.595203 1.681369 -0.003523
v 2.627291 1.670527 0.020605
v 2.624550 1.645723 0.020501
v 2.612017 1.661035 0.021718
v 2.617572 1.678018 -0.007856
v 2.592626 1.641724 -0.010164
v 0.475150 3.997059 -0.011500
v 0.507770 3.977873 -0.004905
v 0.485931 3.969932 -0.010107
v 0.473045 3.996814 0.011701
v 0.489407 3.976283 0.015011
v 0.509024 3.973389 0.003424
v 0.491713 4.013564 -0.001142
v 9.510742 0.352248 -0.013793
v 9.513371 0.384712 -0.013979
v 9.532917 0.378590 0.020583
v 9.508178 0.381667 0.020751
v 9.528155 0.360796 -0.021401
v 9.496712 0.355743 0.001800
v 9.529491 0.353958 -0.000183
v 3.067943 2.591910 -0.001355
v 3.098106 2.597327 -0.009815
v 3.096041 2.599273 0.008676
v 3.084260 2.581378 -0.005960
v 3.076295 2.609631 0.013482
v 3.079575 2.610210 -0.010149
v 3.095866 2.610343 0.010693
v -0.260505 3.055702 0.011694
v -0.244281 3.069622 -0.009747
v -0.233386 3.062828 0.010230
v -0.231742 3.041433 -0.002074
v -0.227949 3.054177 -0.008411
v -0.251039 3.043597 0.015600
v -0.264490 3.051215 -0.008985
v -0.457954 3.558083 -0.020429
v -0.498219 3.559230 -0.002320
v -0.464679 3.571039 0.019682
v -0.451637 3.549601 0.019508
v -0.470921 3.554151 0.021702
v -0.478644 3.570136 -0.008164
v -0.476317 3.525864 -0.009213
v 0.896354 -0.797426 0.007972
v 0.884284 -0.782002 -0.007508
v 0.890110 -0.775218 0.009911
v 0.907499 -0.772186 -0.000306
v 0.896831 -0.768576 -0.004852
v 0.906283 -0.789945 0.012018
v 0.899727 -0.798319 -0.009436
v 1.584193 2.073473 0.007564
v 1.593968 2.062276 -0.007155
v 1.590362 2.055086 0.007145
v 1.575368 2.052566 -0.000658
v 1.584152 2.050351 -0.005294
v 1.576418 2.066512 0.010897
v 1.580342 2.075356 -0.006681
v 2.519163 3.733778 -0.011028
v 2.536571 3.713078 -0.004596
v 2.515547 3.698702 0.002172
v 2.508998 3.709179 -0.008681
v 2.506036 3.707221 0.013317
v 2.522494 3.735340 0.011118
v 2.508384 3.727788 -0.010233
v 4.873469 0.709803 -0.010001
v 4.854874 0.692296 -0.011261
v 4.844828 0.706487 0.015054
v 4.857548 0.691662 0.016275
v 4.859297 0.713932 -0.017051
v 4.878897 0.700525 0.002773
v 4.860935 0.718818 -0.000293
v 7.447887 2.898098 0.010115
v 7.470119 2.896137 -0.008128
v 7.470846 2.884451 0.011212
v 7.458663 2.868893 -0.001598
v 7.470398 2.874759 -0.006550
v 7.445619 2.883638 0.013808
v 7.444193 2.897553 -0.010041
v 3.466901 0.615721 -0.014009
v 3.462109 0.586927 -0.002069
v 3.458044 0.611223 0.014807
v 3.474594 0.618080 0.014374
v 3.469313 0.604917 0.015592
v 3.456431 0.602092 -0.005423
v 3.487875 0.598924 -0.007424
v 1.184546 0.098830 -0.012823
v 1.167013 0.119353 -0.001431
v 1.185820 0.106505 0.014403
v 1.180448 0.090806 0.013060
v 1.174482 0.102519 0.014509
v 1.181178 0.114116 -0.004250
v 1.159738 0.094301 -0.007865
v 4.164940 0.524843 -0.007415
v 4.166826 0.513842 0.001062
v 4.151282 0.506899 -0.001325
v 4.153800 0.526975 0.005351
v 4.165609 0.522886 0.003719
v 4.143967 0.517421 0.008703
v 4.143364 0.521221 -0.003582
v 5.164067 0.887730 -0.011560
v 5.177884 0.853217 -0.004531
v 5.156289 0.860034 -0.010636
v 5.161217 0.888720 0.011188
v 5.161651 0.862858 0.014387
v 5.175817 0.848928 0.003572
v 5.186397 0.890757 -0.000303
v 1.550842 -0.121516 -0.003237
v 1.561280 -0.079862 -0.013489
v 1.559192 -0.082638 0.012256
v 1.573340 -0.106938 -0.010277
v 1.534889 -0.101636 0.019457
v 1.534100 -0.095469 -0.013096
v 1.545402 -0.076461 0.016239
v 3.926939 0.908199 -0.014707
v 3.961391 0.906162 -0.003153
v 3.935253 0.901221 0.018751
v 3.925914 0.919617 0.017350
v 3.941580 0.914726 0.018051
v 3.944200 0.898115 -0.005121
v 3.944946 0.934239 -0.010585
v 4.807169 -0.447721 -0.012519
v 4.834727 -0.473342 -0.007372
v 4.809133 -0.497614 -0.000172
v 4.797966 -0.483039 -0.013118
v 4.795120 -0.489662 0.016456
v 4.812204 -0.448473 0.017724
v 4.793698 -0.457889 -0.012235
v 5.361814 -0.326236 -0.008405
v 5.351764 -0.310867 -0.002089
v 5.364118 -0.319063 0.008786
v 5.359704 -0.329157 0.009400
v 5.356436 -0.321025 0.009557
v 5.360724 -0.315330 -0.003955
v 5.345407 -0.327396 -0.003967
v 3.019298 0.681716 -0.005798
v 3.003052 0.683088 -0.003037
v 3.005445 0.698207 0.000341
v 3.013006 0.696309 -0.005567
v 3.012601 0.699079 0.007388
v 3.017765 0.680354 0.007397
v 3.021209 0.688810 -0.005585
v 2.372994 1.260684 -0.001321
v 2.398829 1.271330 -0.009262
v 2.397038 1.272021 0.007723
v 2.389408 1.254400 -0.006183
v 2.377589 1.277518 0.012812
v 2.379896 1.279495 -0.008781
v 2.394920 1.281819 0.010011
v 4.705289 0.552892 -0.002305
v 4.667657 0.572688 -0.013140
v 4.668618 0.568409 0.012306
v 4.696323 0.578279 -0.008130
v 4.681474 0.540305 0.018309
v 4.676952 0.542972 -0.014209
v 4.659481 0.556147 0.015021
v 1.119585 3.325203 0.006493
v 1.130932 3.331594 -0.007144
v 1.136751 3.328510 0.006098
v 1.137317 3.314321 0.000127
v 1.140398 3.321572 -0.004571
v 1.124840 3.317684 0.010148
v 1.117621 3.321023 -0.006096
v 8.567058 3.602914 -0.010180
v 8.546725 3.592430 -0.001824
v 8.560224 3.604710 0.012272
v 8.571913 3.597360 0.011375
v 8.561253 3.594774 0.012083
v 8.553781 3.602931 -0.003561
v 8.565768 3.581862 -0.006776
v 3.838892 -0.482815 -0.006695
v 3.846905 -0.497418 -0.006418
v 3.834046 -0.501426 0.009101
v 3.845266 -0.495847 0.011468
v 3.834637 -0.491067 -0.011929
v 3.844423 -0.480926 0.002478
v 3.830349 -0.489237 -0.001501
v 4.243549 -0.234943 -0.016889
v 4.281095 -0.242181 -0.014112
v 4.267598 -0.268635 0.022687
v 4.274047 -0.240295 0.026730
v 4.252379 -0.255297 -0.027339
v 4.247414 -0.221127 0.003622
v 4.241748 -0.258743 -0.003547
v 4.577094 -0.558100 -0.007072
v 4.589096 -0.559904 0.001842
v 4.591877 -0.577747 -0.002038
v 4.571833 -0.570007 0.005859
v 4.579399 -0.558821 0.004853
v 4.578980 -0.583123 0.008471
v 4.574775 -0.581726 -0.004631
v 4.628163 -0.183447 -0.004856
v 4.607186 -0.184373 -0.004491
v 4.615176 -0.174256 -0.006304
v 4.627071 -0.182467 0.007796
v 4.613337 -0.177944 0.007379
v 4.604590 -0.182613 -0.000323
v 4.624646 -0.195847 0.000559
v 6.130644 0.148213 -0.010905
v 6.141163 0.133492 0.000524
v 6.124009 0.114000 -0.003324
v 6.115073 0.142640 0.009254
v 6.133862 0.144890 0.005756
v 6.108019 0.122739 0.013565
v 6.103591 0.128753 -0.004617
v 0.105891 2.831763 -0.008652
v 0.100831 2.816774 0.001400
v 0.078373 2.817957 -0.003369
v 0.092585 2.839851 0.008054
v 0.104455 2.828069 0.005965
v 0.074860 2.834017 0.010888
v 0.077575 2.839971 -0.005035
v 5.230164 -0.488862 -0.017018
v 5.237507 -0.468332 0.000388
v 5.271204 -0.474160 -0.000848
v 5.243519 -0.504354 0.010132
v 5.228970 -0.484551 0.005076
v 5.269555 -0.499361 0.019433
v 5.268836 -0.506679 -0.005114
v 9.600319 0.525235 0.009322
v 9.616218 0.514347 -0.008112
v 9.612814 0.504631 0.009478
v 9.595898 0.497505 -0.001188
v 9.607453 0.497218 -0.006308
v 9.592572 0.514677 0.013021
v 9.596139 0.526489 -0.008635
v 6.659868 3.582744 -0.004377
v 6.680452 3.583090 -0.004843
v 6.672274 3.573473 -0.006737
v 6.661416 3.581181 0.007917
v 6.674725 3.576414 0.006743
v 6.683113 3.581110 -0.000949
v 6.663874 3.594549 0.001328
v 2.515492 2.161637 -0.013401
v 2.536630 2.179934 -0.001596
v 2.523853 2.159986 0.014664
v 2.507491 2.165319 0.013587
v 2.519546 2.171661 0.015022
v 2.531392 2.165229 -0.004682
v 2.510479 2.187172 -0.007781
v 6.089275 -0.202815 -0.010234
v 6.104684 -0.220020 -0.009072
v 6.090033 -0.227052 0.014370
v 6.103645 -0.215800 0.015574
v 6.085630 -0.215977 -0.015921
v 6.097000 -0.197264 0.001491
v 6.080244 -0.213294 -0.001251
v 2.034889 1.285622 -0.000271
v 2.006185 1.312989 -0.014909
v 2.005445 1.312054 0.009939
v 2.034068 1.310576 -0.009272
v 2.009055 1.283540 0.019632
v 2.006165 1.283120 -0.011967
v 1.993466 1.303817 0.013485
v 3.054441 2.056722 -0.010729
v 3.039930 2.037173 -0.009147
v 3.028670 2.051866 0.014580
v 3.043153 2.040301 0.016871
v 3.040283 2.057383 -0.017265
v 3.061391 2.050493 0.002180
v 3.041360 2.064202 -0.002027
v 4.591114 0.795747 -0.005215
v 4.599287 0.781761 -0.003120
v 4.585716 0.774869 -0.000282
v 4.582974 0.782335 -0.005769
v 4.580840 0.779764 0.006889
v 4.592947 0.794619 0.007798
v 4.584310 0.793217 -0.005209
vn -0.6023 -0.1716 0.7796
vn -0.3118 0.9307 -0.1912
vn -0.0779 -0.8088 0.5829
vn 0.4513 -0.6168 0.6448
vn 0.1137 0.1245 0.9857
vn -0.3121 -0.3201 -0.8945
vn -0.5036 -0.0750 -0.8607
vn 0.2967 0.9545 -0.0304
vn -0.8934 0.3719 0.2521
vn 0.9449 0.1269 -0.3018
vn 0.6951 0.2003 0.6905
vn -0.9898 -0.0282 0.1393
vn 0.5650 0.2735 0.7785
vn 0.5581 -0.0462 -0.8285
vn -0.7579 -0.5103 0.4064
vn -0.4427 -0.8811 -0.1665
vn 0.1816 -0.9437 -0.2764
vn -0.1853 0.9818 -0.0419
vn 0.0546 0.1357 -0.9892
vn 0.2389 -0.6364 0.7334
vn 0.3456 -0.1398 0.9279
vn 0.0705 0.9219 -0.3808
vn -0.1509 -0.1306 -0.9799
vn -0.3780 -0.2982 -0.8764
vn -0.4744 0.8699 0.1348
vn -0.9980 0.0503 0.0382
vn 0.2788 -0.6114 0.7406
vn 0.9770 -0.2134 0.0006
vn 0.8950 0.4460 0.0071
vn 0.3945 -0.5893 0.7050
vn -0.2659 0.9585 0.1026
vn 0.4370 -0.4410 0.7839
vn 0.0584 -0.5933 -0.8028
vn -0.6642 0.6293 0.4035
vn -0.9693 0.2047 -0.1364
vn -0.8804 -0.4208 -0.2188
vn 0.9030 0.4177 -0.1009
vn 0.1033 -0.0693 -0.9922
vn 0.5027 -0.5350 0.6790
vn 0.3667 -0.0709 0.9276
vn -0.3623 0.8882 -0.2826
vn -0.0687 -0.0719 -0.9950
vn -0.1929 -0.3358 -0.9220
vn -0.8237 0.5330 0.1933
vn -0.9082 -0.4183 -0.0142
vn 0.5265 -0.4955 0.6908
vn 0.9648 0.2606 0.0353
vn 0.5870 0.8031 0.1026
vn -0.1215 0.6704 0.7320
vn 0.9856 0.1241 -0.1153
vn -0.8266 0.2601 0.4991
vn -0.7433 -0.2904 0.6026
vn 0.0163 -0.0737 0.9971
vn -0.1783 0.3097 -0.9340
vn 0.0946 0.4548 -0.8855
vn 0.8809 -0.4675 0.0740
vn 0.5100 0.8241 0.2463
vn -0.0274 -0.9689 -0.2459
vn -0.9255 -0.0983 0.3658
vn 0.2797 0.8299 0.4827
vn 0.4950 0.1060 -0.8624
vn 0.4399 0.4006 0.8037
vn 0.1089 0.1717 -0.9791
vn -0.5641 0.8255 -0.0196
vn -0.8517 -0.5018 -0.1509
vn 0.3627 -0.9219 0.1361
vn -0.3289 -0.1244 0.9361
vn 0.8947 -0.4043 -0.1898
vn -0.8680 -0.4410 -0.2282
vn 0.3429 0.4387 -0.8306
vn -0.0836 0.1865 0.9789
vn 0.2631 0.3629 0.8939
vn 0.1453 -0.1171 -0.9824
vn -0.5293 -0.7723 0.3513
vn 0.6732 -0.7233 -0.1536
vn 0.6433 0.3359 0.6880
vn -0.3812 0.9239 -0.0328
vn -0.9629 0.1156 0.2440
vn 0.1932 -0.6494 0.7355
vn 0.0116 0.9978 0.0655
vn 0.2735 -0.5160 0.8118
vn -0.0886 -0.6157 -0.7830
vn -0.4713 0.8049 0.3607
vn -0.8686 0.4625 -0.1780
vn -0.9568 -0.1650 -0.2394
vn 0.9864 0.1440 -0.0792
vn 0.1071 -0.1326 -0.9854
vn 0.1331 0.6066 0.7838
vn -0.1272 0.1700 0.9772
vn -0.4741 -0.7878 -0.3933
vn 0.0462 0.1573 -0.9865
vn 0.3328 0.2171 -0.9177
vn 0.1172 -0.9928 0.0236
vn 0.8959 -0.4236 -0.1336
vn 0.0881 0.5978 0.7968
vn -0.8084 0.5625 0.1736
vn -0.9865 -0.0771 0.1444
vn 0.3514 0.5638 0.7474
vn 0.8369 -0.5233 -0.1605
vn -0.4599 0.7032 0.5422
vn -0.7421 0.2206 0.6330
vn -0.0070 -0.1097 0.9939
vn 0.0333 0.3920 -0.9194
vn 0.3375 0.3293 -0.8818
vn 0.3859 -0.9222 0.0243
vn 0.9236 0.3035 0.2344
vn -0.6426 -0.7210 -0.2594
vn -0.1752 -0.1442 -0.9739
vn 0.9082 0.4181 0.0183
vn -0.8939 -0.4475 -0.0265
vn -0.5804 -0.3595 0.7307
vn 0.7252 -0.6885 0.0018
vn -0.3527 -0.4042 0.8439
vn 0.7151 0.6070 0.3466
vn -0.3854 0.7741 -0.5023
vn -0.0763 0.9612 0.2650
vn -0.5986 0.3879 0.7009
vn 0.5757 -0.8128 0.0891
vn -0.5903 0.2308 0.7735
vn -0.2298 0.5710 -0.7881
vn 0.8251 -0.3801 0.4180
vn 0.9848 0.1459 -0.0945
vn 0.6891 0.7059 -0.1640
vn -0.6997 -0.6971 -0.1563
vn -0.0848 0.0718 -0.9938
vn 0.9285 -0.2296 0.2918
vn -0.5048 -0.7170 0.4808
vn -0.5595 0.1077 -0.8218
vn -0.4920 -0.2765 0.8255
vn -0.2256 -0.0745 -0.9714
vn 0.2569 -0.9624 -0.0883
vn 0.9574 0.2026 -0.2058
vn -0.0276 0.9813 0.1906
vn 0.4142 -0.0399 0.9093
vn -0.7215 0.6844 -0.1050
vn 0.3940 -0.8550 0.3373
vn -0.9223 -0.0847 0.3771
vn -0.1863 0.4967 -0.8477
vn -0.6216 0.1915 0.7596
vn -0.0905 0.1250 -0.9880
vn -0.5492 -0.8213 -0.1543
vn 0.7957 -0.5944 -0.1166
vn 0.7001 0.6592 0.2745
vn 0.1334 -0.3425 0.9300
vn 0.0613 0.9935 -0.0963
vn 0.1837 -0.6066 0.7735
vn 0.1037 0.9945 -0.0172
vn 0.2803 -0.4758 0.8337
vn -0.1942 -0.6626 -0.7233
vn -0.3737 0.8703 0.3208
vn -0.8343 0.5266 -0.1635
vn -0.9814 -0.0933 -0.1680
vn 0.9878 0.0451 -0.1489
vn 0.0294 -0.2167 -0.9758
vn -0.6197 0.2030 0.7582
vn -0.2531 -0.1465 0.9563
vn 0.7082 -0.5935 -0.3824
vn -0.0823 0.1303 -0.9880
vn -0.0915 0.4187 -0.9035
vn 0.9936 -0.0766 0.0833
vn 0.5921 0.8042 -0.0511
vn -0.6203 0.1565 0.7685
vn -0.7143 -0.6941 0.0895
vn -0.1191 -0.9895 0.0820
vn 0.2767 0.6519 -0.7060
vn 0.3094 -0.8489 -0.4286
vn -0.9335 0.0498 -0.3552
vn -0.6532 0.0988 0.7507
vn -0.5601 0.1381 0.8169
vn 0.8868 -0.4530 0.0916
vn 0.7239 0.6888 0.0386
vn -0.9238 0.3374 0.1808
vn -0.3809 -0.8964 -0.2267
vn -0.0642 -0.6491 0.7580
vn 0.1600 -0.1997 0.9667
vn 0.3950 0.8431 -0.3649
vn -0.0505 -0.1184 -0.9917
vn -0.3292 -0.2064 -0.9214
vn -0.2042 0.9765 0.0694
vn -0.9323 0.3472 -0.1015
vn -0.0200 -0.6369 0.7707
vn 0.8582 -0.4949 0.1365
vn 0.9783 0.1587 0.1331
vn 0.6078 -0.2157 0.7643
vn -0.2668 -0.9403 -0.2114
vn 0.5275 0.6108 0.5905
vn -0.0172 0.7467 0.6650
vn -0.1476 -0.0652 0.9869
vn 0.4231 0.1137 -0.8989
vn 0.4447 -0.1974 -0.8736
vn -0.7812 -0.6233 -0.0338
vn 0.5353 -0.8149 0.2220
vn -0.8584 0.4321 -0.2764
vn 0.9478 0.0716 0.3108
vn -0.2441 -0.8748 0.4186
vn -0.5518 -0.0278 -0.8335
vn -0.3835 -0.4796 0.7892
vn -0.1742 -0.0785 -0.9816
vn 0.5638 -0.8146 -0.1363
vn 0.8382 0.5218 -0.1587
vn -0.3553 0.9013 0.2478
vn 0.3909 0.0375 0.9196
vn -0.9066 0.4122 -0.0899
vn -0.9231 0.1438 0.3566
vn 0.4667 0.7677 0.4391
vn 0.5073 -0.0642 -0.8594
vn 0.5207 0.3324 0.7864
vn 0.1477 0.0835 -0.9855
vn -0.3535 0.9324 -0.0750
vn -0.9458 -0.2953 -0.1352
vn 0.1350 -0.9717 0.1937
vn -0.3503 0.0116 0.9366
vn 0.7745 -0.6139 -0.1529
vn 0.8430 -0.3574 -0.4020
vn -0.6903 0.0291 -0.7230
vn 0.0791 -0.2475 0.9656
vn -0.2879 -0.0936 0.9531
vn -0.1712 0.2496 -0.9531
vn 0.9783 0.0770 0.1924
vn 0.0950 0.9896 -0.1077
vn -0.5429 0.2255 0.8089
vn -0.4629 -0.8863 -0.0111
vn 0.5630 -0.8208 0.0965
vn 0.8629 0.4269 -0.2703
vn -0.4277 -0.3655 -0.8267
vn 0.1569 -0.2597 0.9529
vn -0.2023 -0.4177 0.8858
vn -0.2214 0.1929 -0.9559
vn 0.5868 0.7265 0.3576
vn -0.6544 0.7548 -0.0449
vn -0.5969 -0.3631 0.7155
vn 0.3403 -0.9314 -0.1293
vn 0.9744 -0.1652 0.1523
vn 0.3811 0.5156 0.7674
vn -0.8039 -0.5945 0.0200
vn 0.2243 0.4962 0.8387
vn 0.5651 0.3317 -0.7554
vn -0.3666 -0.8751 0.3160
vn 0.1602 -0.9639 -0.2127
vn 0.7156 -0.6535 -0.2468
vn -0.7079 0.7028 -0.0699
vn 0.0675 0.2050 -0.9764
vn -0.3303 0.6154 0.7157
vn 0.8663 0.4689 -0.1724
vn -0.8444 -0.0347 0.5346
vn -0.5613 -0.5111 0.6510
vn 0.0808 -0.0131 0.9966
vn -0.3155 0.1767 -0.9323
vn -0.1131 0.4135 -0.9034
vn 0.9931 -0.1099 0.0410
vn 0.1816 0.9645 0.1918
vn 0.3201 -0.9231 -0.2129
vn 0.2835 0.1568 -0.9461
vn -0.9242 -0.3718 -0.0878
vn 0.9122 0.4021 0.0790
vn 0.5168 0.3132 0.7967
vn -0.6874 0.7242 -0.0548
vn 0.2809 0.3669 0.8868
vn -0.7760 -0.5776 0.2534
vn 0.3985 -0.7812 -0.4806
vn 0.0016 -0.9695 0.2449
vn -0.5977 0.0438 -0.8005
vn 0.7553 0.5682 -0.3265
vn 0.3067 -0.9001 -0.3094
vn 0.0111 -0.6454 0.7637
vn -0.0653 -0.5699 0.8191
vn 0.1234 0.9868 0.1050
vn -0.8840 0.4583 -0.0920
vn -0.0425 -0.9824 0.1820
vn 0.9942 -0.0672 -0.0843
vn -0.1569 -0.5895 0.7924
vn 0.1451 -0.1752 0.9738
vn 0.5245 0.7436 -0.4147
vn -0.0919 -0.1578 -0.9832
vn -0.3800 -0.1932 -0.9046
vn -0.0335 0.9992 0.0198
vn -0.8616 0.4960 -0.1074
vn -0.1109 -0.5844 0.8038
vn 0.7642 -0.6269 0.1513
vn 0.9938 -0.0045 0.1114
vn -0.2101 0.8850 0.4155
vn 0.9377 -0.1162 0.3274
vn 0.0510 -0.4568 -0.8881
vn 0.6078 -0.3603 0.7077
vn 0.0209 -0.0642 -0.9977
vn 0.6868 0.7149 -0.1314
vn -0.6737 0.7384 -0.0304
vn -0.7988 -0.5373 0.2705
vn -0.0245 0.2896 0.9568
vn -0.2518 -0.9548 -0.1581
vn -0.5953 0.3088 0.7418
vn 0.3882 0.8940 -0.2237
vn -0.6151 -0.5253 0.5880
vn -0.0939 -0.7263 0.6809
vn 0.1292 0.0706 0.9891
vn -0.4107 -0.0820 -0.9081
vn -0.3937 0.2298 -0.8900
vn 0.8540 0.5197 -0.0247
vn -0.4342 0.8807 0.1892
vn 0.8041 -0.5427 -0.2425
vn -0.8722 -0.2803 0.4008
vn 0.1090 0.8870 0.4486
vn 0.4362 0.1784 -0.8820
vn 0.3664 0.5134 0.7760
vn 0.0418 0.1562 -0.9868
vn -0.7281 0.6851 -0.0233
vn -0.7284 -0.6768 -0.1064
vn 0.5554 -0.8180 0.1495
vn -0.2680 -0.1584 0.9503
vn 0.9548 -0.2108 -0.2095
vn 0.8841 0.2882 0.3679
vn -0.0377 -0.9275 0.3719
vn -0.4872 -0.1222 -0.8647
vn -0.2887 -0.5978 0.7478
vn -0.1023 -0.0706 -0.9922
vn 0.7550 -0.6421 -0.1325
vn 0.6880 0.7200 -0.0908
vn -0.5803 0.7721 0.2590
vn 0.3251 0.0876 0.9416
vn -0.9755 0.1792 -0.1276
vn 0.5192 -0.4049 0.7526
vn -0.4850 0.8744 0.0113
vn 0.5251 -0.2436 0.8154
vn 0.2004 -0.6416 -0.7404
vn -0.7958 0.4932 0.3514
vn -0.9896 -0.0440 -0.1371
vn -0.7552 -0.6361 -0.1583
vn 0.7794 0.6058 -0.1599
vn 0.1213 -0.1438 -0.9821
vn 0.4692 -0.4434 -0.7637
vn -0.9156 0.0818 -0.3937
vn 0.3987 0.8693 -0.2923
vn 0.3700 0.4951 0.7861
vn 0.3719 0.3885 0.8431
vn -0.7600 -0.6472 0.0589
vn 0.3525 -0.9341 -0.0558
vn 0.6768 0.7018 0.2222
vn -0.6834 0.7161 -0.1419
vn 0.4396 0.7760 0.4524
vn 0.5384 -0.7454 0.3931
vn -0.1992 -0.3681 -0.9082
vn 0.0969 -0.6768 0.7298
vn 0.0695 -0.0726 -0.9949
vn 0.9995 0.0108 -0.0310
vn 0.0573 0.9977 -0.0374
vn -0.9656 0.1954 0.1717
vn 0.0921 0.2328 0.9682
vn -0.8372 -0.4927 -0.2374
vn -0.3705 -0.5709 0.7327
vn -0.8306 0.5293 -0.1727
vn 0.4445 -0.7119 0.5438
vn 0.7268 -0.2317 0.6465
vn -0.0145 0.0978 0.9951
vn -0.0148 -0.3809 -0.9245
vn -0.3195 -0.3171 -0.8930
vn -0.3820 0.9238 0.0268
vn -0.9299 -0.3016 0.2103
vn 0.6516 0.7208 -0.2365
vn -0.2113 0.6210 0.7548
vn 0.9524 0.2790 -0.1232
vn -0.8482 0.1135 0.5173
vn -0.6790 -0.4203 0.6018
vn 0.0445 -0.1003 0.9940
vn -0.2400 0.3063 -0.9212
vn 0.0079 0.4905 -0.8714
vn 0.9438 -0.3271 0.0481
vn 0.3804 0.8855 0.2667
vn 0.1188 -0.9536 -0.2768
vn -0.2141 0.9158 -0.3398
vn 0.3555 -0.5315 -0.7688
vn 0.1859 0.1494 0.9711
vn 0.2744 -0.2369 0.9320
vn -0.1335 -0.2258 -0.9650
vn -0.6265 0.7354 0.2582
vn -0.8623 -0.4941 -0.1105
vn 0.1594 -0.6208 0.7676
vn 0.9891 0.1431 -0.0342
vn 0.3414 0.9290 0.1428
vn 0.3640 -0.0438 -0.9304
vn -0.9556 0.2640 -0.1312
vn 0.9648 -0.2326 0.1229
vn 0.5635 -0.0662 0.8234
vn -0.1061 0.9928 -0.0565
vn 0.4043 0.1190 0.9069
vn -0.9780 0.0093 0.2085
vn -0.1334 -0.8615 -0.4900
vn -0.5963 -0.7734 0.2151
vn 0.5129 -0.4339 0.7407
vn 0.2799 0.0058 0.9600
vn -0.4712 0.8119 -0.3446
vn 0.0425 -0.0990 -0.9942
vn -0.0442 -0.3784 -0.9246
vn -0.9140 0.3940 0.0968
vn -0.8229 -0.5616 -0.0865
vn 0.5287 -0.3908 0.7534
vn 0.9018 0.4157 0.1180
vn 0.4366 0.8900 0.1314
vn 0.6482 -0.2667 0.7133
vn -0.4765 -0.8768 -0.0645
vn 0.7136 0.5371 0.4498
vn 0.2223 0.7933 0.5667
vn -0.0249 0.0634 0.9977
vn 0.3137 -0.0670 -0.9472
vn 0.2754 -0.3715 -0.8866
vn -0.8882 -0.4411 0.1287
vn 0.3849 -0.8857 0.2595
vn -0.7828 0.5778 -0.2309
vn 0.5884 -0.4146 0.6942
vn -0.5965 0.7937 0.1190
vn 0.5745 -0.2622 0.7754
vn 0.2641 -0.5195 -0.8126
vn -0.8446 0.3375 0.4156
vn -0.9782 -0.1615 -0.1303
vn -0.6679 -0.7100 -0.2233
vn 0.6873 0.7199 -0.0965
vn 0.1130 -0.0126 -0.9935
vn -0.1169 0.7247 0.6791
vn 0.9624 0.1794 -0.2038
vn -0.8047 0.2481 0.5393
vn -0.6733 -0.2836 0.6827
vn 0.0950 0.0191 0.9953
vn -0.2691 0.2103 -0.9399
vn -0.0049 0.3774 -0.9260
vn 0.9163 -0.3981 0.0433
vn 0.4639 0.8758 0.1331
vn 0.0269 -0.9870 -0.1587
vn -0.6977 -0.0492 0.7147
vn 0.9615 -0.2615 0.0847
vn -0.5907 -0.1625 0.7904
vn -0.5518 0.2641 -0.7911
vn 0.8859 0.2445 0.3942
vn 0.6684 0.7314 -0.1354
vn 0.0840 0.9750 -0.2058
vn -0.1028 -0.9882 -0.1139
vn -0.1268 -0.0390 -0.9912
vn -0.0175 -0.6401 0.7681
vn 0.2006 -0.1815 0.9627
vn 0.3563 0.8491 -0.3899
vn -0.0827 -0.1336 -0.9876
vn -0.3560 -0.2287 -0.9061
vn -0.2305 0.9709 0.0642
vn -0.9452 0.3183 -0.0719
vn 0.0268 -0.6264 0.7790
vn 0.8769 -0.4677 0.1115
vn 0.9773 0.1891 0.0953
vn 0.4964 0.3568 0.7914
vn 0.0064 0.2117 0.9773
vn -0.8760 -0.2594 -0.4067
vn 0.1556 0.0841 -0.9842
vn 0.4059 -0.0658 -0.9115
vn -0.5859 -0.8102 0.0150
vn 0.3750 -0.9182 -0.1275
vn 0.4572 0.3808 0.8037
vn -0.2172 0.9612 0.1698
vn -0.7806 0.6109 0.1322
vn -0.1742 0.9394 0.2953
vn 0.9093 -0.1301 0.3953
vn 0.0687 -0.5629 -0.8237
vn 0.5443 -0.3068 0.7808
vn 0.0701 -0.1854 -0.9802
vn 0.7378 0.6527 -0.1723
vn -0.6217 0.7672 -0.1577
vn -0.8453 -0.4534 0.2825
vn -0.0569 0.4040 0.9130
vn -0.3045 -0.9506 -0.0601
vn -0.6819 -0.0845 0.7265
vn -0.0452 0.9946 -0.0934
vn -0.3273 -0.8144 0.4792
vn 0.2275 -0.7772 0.5867
vn 0.0691 -0.0118 0.9975
vn -0.3176 -0.1324 -0.9389
vn -0.4410 0.1500 -0.8849
vn 0.5351 0.8393 0.0957
vn -0.7826 0.5680 0.2547
vn 0.9651 -0.0984 -0.2427
vn 0.6475 0.3424 -0.6808
vn -0.2533 -0.8650 -0.4332
vn -0.6930 0.6056 -0.3912
vn -0.4902 0.4826 0.7258
vn -0.3954 0.4575 0.7964
vn 0.4221 -0.8989 0.1177
vn 0.9911 0.1051 0.0816
vn -0.5339 0.8320 0.1506
vn -0.8376 -0.4803 -0.2601
vn 0.1829 0.6746 -0.7152
vn 0.5205 -0.7722 -0.3643
vn -0.8904 -0.1695 -0.4224
vn -0.7167 -0.0248 0.6969
vn -0.6400 0.0361 0.7675
vn 0.9542 -0.2422 0.1758
vn 0.5505 0.8329 0.0565
vn -0.9866 0.1299 0.0985
vn -0.1565 -0.9652 -0.2097
vn -0.9423 0.0584 -0.3296
vn 0.6007 0.2582 -0.7566
vn -0.0881 0.1481 0.9850
vn 0.3076 0.1349 0.9419
vn 0.1757 -0.1182 -0.9773
vn -0.8725 -0.4288 0.2343
vn 0.2489 -0.9514 -0.1814
vn 0.6464 -0.0646 0.7602
vn 0.1220 0.9919 0.0364
vn -0.8053 0.5618 0.1896
vn -0.0032 -0.3042 -0.9526
vn 0.5786 0.8155 -0.0133
vn -0.5510 -0.8344 0.0091
vn -0.3831 -0.5301 0.7564
vn 0.9678 -0.2302 0.1013
vn -0.1729 -0.4441 0.8791
vn 0.2920 0.9129 0.2853
vn -0.6761 0.4261 -0.6011
vn -0.5617 0.8147 0.1441
vn -0.6030 0.7552 -0.2570
vn 0.5005 -0.2787 -0.8196
vn 0.1631 0.1534 0.9746
vn 0.4047 -0.1545 0.9013
vn -0.0829 -0.2002 -0.9762
vn -0.8628 0.3784 0.3353
vn -0.5756 -0.8078 -0.1270
vn 0.4540 -0.5395 0.7091
vn 0.8305 0.5548 -0.0497
vn -0.0777 0.9747 0.2094
vn 0.2373 0.9350 -0.2636
vn 0.1392 -0.5835 -0.8001
vn 0.1617 -0.0120 0.9868
vn 0.0733 -0.3938 0.9163
vn -0.1491 -0.0800 -0.9856
vn -0.2545 0.9192 0.3004
vn -0.9813 -0.0496 -0.1858
vn -0.1871 -0.6747 0.7139
vn 0.9503 -0.3109 0.0148
vn 0.7050 0.6680 0.2381
vn -0.2973 -0.8849 -0.3587
vn 0.0802 0.6278 -0.7742
vn -0.3354 -0.0059 0.9421
vn -0.1899 0.3636 0.9120
vn 0.3340 0.0986 -0.9374
vn 0.0823 -0.9557 0.2825
vn 0.9974 -0.0716 -0.0079
vn 0.1350 0.6158 0.7762
vn -0.8923 0.4315 -0.1324
vn -0.8123 -0.5791 0.0691
vn 0.7775 0.4745 0.4126
vn 0.1455 -0.9137 0.3796
vn -0.3994 -0.2250 -0.8887
vn -0.1922 -0.6475 0.7374
vn -0.0286 -0.0902 -0.9955
vn 0.8836 -0.4608 -0.0836
vn 0.5176 0.8534 -0.0609
vn -0.7489 0.6258 0.2180
vn 0.2448 0.1557 0.9570
vn -0.9824 -0.0387 -0.1830
vn -0.0271 0.3479 -0.9372
vn -0.6016 -0.7984 -0.0258
vn 0.5744 0.8182 0.0238
vn 0.4285 0.4842 0.7628
vn -0.9560 0.2508 0.1522
vn 0.2211 0.3982 0.8903
vn -0.3059 -0.9171 0.2557
vn 0.6387 -0.4157 -0.6476
vn 0.5438 -0.8350 0.0833
vn 0.6281 0.2087 0.7496
vn 0.2918 -0.9458 -0.1426
vn 0.1077 0.8414 0.5295
vn -0.4223 0.6626 0.6186
vn -0.0857 -0.0621 0.9944
vn 0.2897 0.2596 -0.9212
vn 0.4784 0.0138 -0.8780
vn -0.3119 -0.9494 0.0371
vn 0.8949 -0.3709 0.2482
vn -0.9554 -0.1291 -0.2656
vn 0.5064 0.4021 -0.7628
vn -0.0801 -0.9399 -0.3320
vn -0.8364 0.3955 -0.3795
vn -0.5366 0.4375 0.7216
vn -0.4341 0.4411 0.7855
vn 0.6209 -0.7679 0.1577
vn 0.9450 0.3265 -0.0161
vn -0.6965 0.7068 0.1242
vn -0.7233 -0.6758 -0.1420
vn 0.5679 0.2958 0.7681
vn 0.0540 0.3275 0.9433
vn -0.9069 -0.0407 -0.4194
vn 0.1892 -0.0964 -0.9772
vn 0.3819 -0.3024 -0.8733
vn -0.8019 -0.5919 0.0812
vn 0.0845 -0.9964 0.0055
vn 0.5375 0.3316 0.7753
vn 0.0782 0.9961 0.0398
vn -0.5637 0.8259 0.0143
vn 0.5229 -0.4469 -0.7259
vn -0.9244 -0.1282 -0.3593
vn 0.2309 0.8819 -0.4110
vn 0.2941 0.6459 0.7045
vn 0.3162 0.5492 0.7736
vn -0.6312 -0.7570 0.1692
vn 0.5117 -0.8583 0.0398
vn 0.5462 0.8308 0.1069
vn -0.8030 0.5632 -0.1953
vn 0.4371 -0.5763 0.6905
vn -0.3456 0.9295 0.1292
vn 0.4664 -0.4275 0.7744
vn 0.1134 -0.5610 -0.8200
vn -0.7172 0.5591 0.4160
vn -0.9820 0.1276 -0.1396
vn -0.8407 -0.4852 -0.2403
vn 0.8658 0.4941 -0.0792
vn 0.1160 -0.0294 -0.9928
vt 0.807650 0.359376
vt 0.769563 0.389301
vt 0.731064 0.325408
vt 0.719749 0.367366
vt 0.702290 0.411285
vt 0.770541 0.281845
vt 0.718433 0.253523
vt 0.767876 0.220710
vt 0.816366 0.393825
vt 0.690308 0.336210
vt 0.645917 0.356585
vt 0.768877 0.444347
vt 0.708229 0.211586
vt 0.201457 0.923001
vt 0.187539 0.915774
vt 0.184143 0.894375
vt 0.183037 0.944998
vt 0.202436 0.956762
vt 0.183678 0.960241
vt 0.224669 0.915774
vt 0.222424 0.934175
vt 0.179398 0.926891
vt 0.158829 0.917236
vt 0.183678 0.871307
vt 0.201603 0.875139
vt 0.157969 0.938007
vt 0.174625 0.938007
vt 0.725371 0.628981
vt 0.702461 0.642271
vt 0.701008 0.615629
vt 0.757191 0.661586
vt 0.750850 0.676710
vt 0.726556 0.669373
vt 0.695307 0.675774
vt 0.724486 0.702189
vt 0.693552 0.708529
vt 0.662863 0.646021
vt 0.683219 0.676710
vt 0.661733 0.669212
vt 0.722357 0.596526
vt 0.693552 0.588751
vt 0.724256 0.581252
vt 0.865106 0.489051
vt 0.860663 0.537166
vt 0.818695 0.526758
vt 0.834673 0.600859
vt 0.809147 0.583081
vt 0.774557 0.634899
vt 0.912556 0.585045
vt 0.864856 0.646732
vt 0.765397 0.590833
vt 0.818380 0.572682
vt 0.822305 0.485336
vt 0.822640 0.675593
vt 0.865106 0.684753
vt 0.914960 0.631184
vt 0.879237 0.628014
vt 0.461504 0.541313
vt 0.503924 0.585351
vt 0.460250 0.592856
vt 0.489732 0.458297
vt 0.478393 0.495849
vt 0.460250 0.435709
vt 0.505159 0.534970
vt 0.549955 0.525576
vt 0.542451 0.548003
vt 0.549955 0.503150
vt 0.415397 0.525738
vt 0.451141 0.503150
vt 0.456443 0.536252
vt 0.505103 0.480723
vt 0.493119 0.435870
vt 0.504122 0.413444
vt 0.796438 0.241479
vt 0.796438 0.222971
vt 0.822843 0.213337
vt 0.817597 0.241479
vt 0.852225 0.262006
vt 0.827216 0.269590
vt 0.826623 0.236635
vt 0.832879 0.175654
vt 0.841396 0.211108
vt 0.824548 0.211663
vt 0.852659 0.192456
vt 0.827216 0.157146
vt 0.852659 0.159306
vt 0.852984 0.234480
vt 0.168148 0.392235
vt 0.187205 0.364481
vt 0.205276 0.375117
vt 0.197630 0.425197
vt 0.132872 0.421717
vt 0.131027 0.386417
vt 0.257291 0.405694
vt 0.246913 0.422241
vt 0.224020 0.400615
vt 0.264665 0.441864
vt 0.205571 0.414266
vt 0.158452 0.455895
vt 0.167343 0.429472
s 1
usemtl stone1
f 12/14/11 10/15/11 9/16/11
f 14/17/12 13/18/12 8/19/12
f 9/20/13 13/21/13 12/14/13
f 10/15/14 11/22/14 9/23/14
f 12/14/15 13/18/15 14/17/15
f 11/22/16 12/14/16 14/17/16
f 10/15/17 12/14/17 11/22/17
f 8/24/18 13/25/18 9/16/18
f 8/26/19 9/23/19 11/22/19 14/27/19
f 26/14/30 24/15/30 23/16/30
f 28/17/31 27/18/31 22/19/31
f 23/20/32 27/21/32 26/14/32
f 24/15/33 25/22/33 23/23/33
f 26/14/34 27/18/34 28/17/34
f 25/22/35 26/14/35 28/17/35
f 24/15/36 26/14/36 25/22/36
f 22/24/37 27/25/37 23/16/37
f 22/26/38 23/23/38 25/22/38 28/27/38
f 61/14/79 59/15/79 58/16/79
f 63/17/80 62/18/80 57/19/80
f 58/20/81 62/21/81 61/14/81
f 59/15/82 60/22/82 58/23/82
f 61/14/83 62/18/83 63/17/83
f 60/22/84 61/14/84 63/17/84
f 59/15/85 61/14/85 60/22/85
f 57/24/86 62/25/86 58/16/86
f 57/26/87 58/23/87 60/22/87 63/27/87
f 89/14/117 87/15/117 86/16/117
f 91/17/118 90/18/118 85/19/118
f 86/20/119 90/21/119 89/14/119
f 87/15/120 88/22/120 86/23/120
f 89/14/121 90/18/121 91/17/121
f 88/22/122 89/14/122 91/17/122
f 87/15/123 89/14/123 88/22/123
f 85/24/124 90/25/124 86/16/124
f 85/26/125 86/23/125 88/22/125 91/27/125
f 110/14/146 108/15/146 107/16/146
f 112/17/147 111/18/147 106/19/147
f 107/20/148 111/21/148 110/14/148
f 108/15/149 109/22/149 107/23/149
f 110/14/150 111/18/150 112/17/150
f 109/22/151 110/14/151 112/17/151
f 108/15/152 110/14/152 109/22/152
f 106/24/153 111/25/153 107/16/153
f 106/26/154 107/23/154 109/22/154 112/27/154
f 173/14/234 171/15/234 170/16/234
f 175/17/235 174/18/235 169/19/235
f 170/20/236 174/21/236 173/14/236
f 171/15/237 172/22/237 170/23/237
f 173/14/238 174/18/238 175/17/238
f 172/22/239 173/14/239 175/17/239
f 171/15/240 173/14/240 172/22/240
f 169/24/241 174/25/241 170/16/241
f 169/26/242 170/23/242 172/22/242 175/27/242
f 236/14/321 234/15/321 233/16/321
f 238/17/322 237/18/322 232/19/322
f 233/20/323 237/21/323 236/14/323
f 234/15/324 235/22/324 233/23/324
f 236/14/325 237/18/325 238/17/325
f 235/22/326 236/14/326 238/17/326
f 234/15/327 236/14/327 235/22/327
f 232/24/328 237/25/328 233/16/328
f 232/26/329 233/23/329 235/22/329 238/27/329
f 299/14/408 297/15/408 296/16/408
f 301/17/409 300/18/409 295/19/409
f 296/20/410 300/21/410 299/14/410
f 297/15/411 298/22/411 296/23/411
f 299/14/412 300/18/412 301/17/412
f 298/22/413 299/14/413 301/17/413
f 297/15/414 299/14/414 298/22/414
f 295/24/415 300/25/415 296/16/415
f 295/26/416 296/23/416 298/22/416 301/27/416
f 313/14/427 311/15/427 310/16/427
f 315/17/428 314/18/428 309/19/428
f 310/20/429 314/21/429 313/14/429
f 311/15/430 312/22/430 310/23/430
f 313/14/431 314/18/431 315/17/431
f 312/22/432 313/14/432 315/17/432
f 311/15/433 313/14/433 312/22/433
f 309/24/434 314/25/434 310/16/434
f 309/26/435 310/23/435 312/22/435 315/27/435
f 439/14/600 437/15/600 436/16/600
f 441/17/601 440/18/601 435/19/601
f 436/20/602 440/21/602 439/14/602
f 437/15/603 438/22/603 436/23/603
f 439/14/604 440/18/604 441/17/604
f 438/22/605 439/14/605 441/17/605
f 437/15/606 439/14/606 438/22/606
f 435/24/607 440/25/607 436/16/607
f 435/26/608 436/23/608 438/22/608 441/27/608
usemtl stone1.001
f 19/28/20 15/29/20 18/30/20
f 17/31/21 21/32/21 19/33/21
f 20/34/22 21/35/22 16/36/22
f 18/37/23 20/38/23 16/39/23
f 15/29/24 20/34/24 18/37/24
f 20/34/25 19/33/25 21/35/25
f 15/29/26 19/33/26 20/34/26
f 17/40/27 19/28/27 18/30/27
f 16/41/28 17/40/28 18/30/28
f 16/41/29 21/42/29 17/40/29
f 33/28/39 29/29/39 32/30/39
f 31/31/40 35/32/40 33/33/40
f 34/34/41 35/35/41 30/36/41
f 32/37/42 34/38/42 30/39/42
f 29/29/43 34/34/43 32/37/43
f 34/34/44 33/33/44 35/35/44
f 29/29/45 33/33/45 34/34/45
f 31/40/46 33/28/46 32/30/46
f 30/41/47 31/40/47 32/30/47
f 30/41/48 35/42/48 31/40/48
f 68/28/88 64/29/88 67/30/88
f 66/31/89 70/32/89 68/33/89
f 69/34/90 70/35/90 65/36/90
f 67/37/91 69/38/91 65/39/91
f 64/29/92 69/34/92 67/37/92
f 69/34/93 68/33/93 70/35/93
f 64/29/94 68/33/94 69/34/94
f 66/40/95 68/28/95 67/30/95
f 65/41/96 66/40/96 67/30/96
f 65/41/97 70/42/97 66/40/97
f 117/28/155 113/29/155 116/30/155
f 115/31/156 119/32/156 117/33/156
f 118/34/157 119/35/157 114/36/157
f 116/37/158 118/38/158 114/39/158
f 113/29/159 118/34/159 116/37/159
f 118/34/160 117/33/160 119/35/160
f 113/29/161 117/33/161 118/34/161
f 115/40/162 117/28/162 116/30/162
f 114/41/163 115/40/163 116/30/163
f 114/41/164 119/42/164 115/40/164
f 131/28/174 127/29/174 130/30/174
f 129/31/175 133/32/175 131/33/175
f 132/34/176 133/35/176 128/36/176
f 130/37/177 132/38/177 128/39/177
f 127/29/178 132/34/178 130/37/178
f 132/34/179 131/33/179 133/35/179
f 127/29/180 131/33/180 132/34/180
f 129/40/181 131/28/181 130/30/181
f 128/41/182 129/40/182 130/30/182
f 128/41/183 133/42/183 129/40/183
f 201/28/271 197/29/271 200/30/271
f 199/31/272 203/32/272 201/33/272
f 202/34/273 203/35/273 198/36/273
f 200/37/274 202/38/274 198/39/274
f 197/29/275 202/34/275 200/37/275
f 202/34/276 201/33/276 203/35/276
f 197/29/277 201/33/277 202/34/277
f 199/40/278 201/28/278 200/30/278
f 198/41/279 199/40/279 200/30/279
f 198/41/280 203/42/280 199/40/280
f 285/28/388 281/29/388 284/30/388
f 283/31/389 287/32/389 285/33/389
f 286/34/390 287/35/390 282/36/390
f 284/37/391 286/38/391 282/39/391
f 281/29/392 286/34/392 284/37/392
f 286/34/393 285/33/393 287/35/393
f 281/29/394 285/33/394 286/34/394
f 283/40/395 285/28/395 284/30/395
f 282/41/396 283/40/396 284/30/396
f 282/41/397 287/42/397 283/40/397
f 320/28/436 316/29/436 319/30/436
f 318/31/437 322/32/437 320/33/437
f 321/34/438 322/35/438 317/36/438
f 319/37/439 321/38/439 317/39/439
f 316/29/440 321/34/440 319/37/440
f 321/34/441 320/33/441 322/35/441
f 316/29/442 320/33/442 321/34/442
f 318/40/443 320/28/443 319/30/443
f 317/41/444 318/40/444 319/30/444
f 317/41/445 322/42/445 318/40/445
f 327/28/446 323/29/446 326/30/446
f 325/31/447 329/32/447 327/33/447
f 328/34/448 329/35/448 324/36/448
f 326/37/449 328/38/449 324/39/449
f 323/29/450 328/34/450 326/37/450
f 328/34/451 327/33/451 329/35/451
f 323/29/452 327/33/452 328/34/452
f 325/40/453 327/28/453 326/30/453
f 324/41/454 325/40/454 326/30/454
f 324/41/455 329/42/455 325/40/455
f 425/28/581 421/29/581 424/30/581
f 423/31/582 427/32/582 425/33/582
f 426/34/583 427/35/583 422/36/583
f 424/37/584 426/38/584 422/39/584
f 421/29/585 426/34/585 424/37/585
f 426/34/586 425/33/586 427/35/586
f 421/29/587 425/33/587 426/34/587
f 423/40/588 425/28/588 424/30/588
f 422/41/589 423/40/589 424/30/589
f 422/41/590 427/42/590 423/40/590
usemtl stone2
f 43/43/59 45/44/59 44/45/59
f 45/44/60 46/46/60 47/47/60
f 47/47/61 46/46/61 49/48/61
f 45/49/62 48/50/62 46/46/62
f 47/47/63 49/48/63 44/51/63
f 45/44/64 47/52/64 44/45/64
f 43/43/65 44/45/65 49/53/65
f 49/54/66 48/50/66 43/55/66
f 45/49/67 43/56/67 48/57/67
f 46/46/68 48/50/68 49/54/68
f 92/43/126 94/44/126 93/45/126
f 94/44/127 95/46/127 96/47/127
f 96/47/128 95/46/128 98/48/128
f 94/49/129 97/50/129 95/46/129
f 96/47/130 98/48/130 93/51/130
f 94/44/131 96/52/131 93/45/131
f 92/43/132 93/45/132 98/53/132
f 98/54/133 97/50/133 92/55/133
f 94/49/134 92/56/134 97/57/134
f 95/46/135 97/50/135 98/54/135
f 99/43/136 101/44/136 100/45/136
f 101/44/137 102/46/137 103/47/137
f 103/47/138 102/46/138 105/48/138
f 101/49/139 104/50/139 102/46/139
f 103/47/140 105/48/140 100/51/140
f 101/44/141 103/52/141 100/45/141
f 99/43/142 100/45/142 105/53/142
f 105/54/143 104/50/143 99/55/143
f 101/49/144 99/56/144 104/57/144
f 102/46/145 104/50/145 105/54/145
f 141/43/194 143/44/194 142/45/194
f 143/44/195 144/46/195 145/47/195
f 145/47/196 144/46/196 147/48/196
f 143/49/197 146/50/197 144/46/197
f 145/47/198 147/48/198 142/51/198
f 143/44/199 145/52/199 142/45/199
f 141/43/200 142/45/200 147/53/200
f 147/54/201 146/50/201 141/55/201
f 143/49/202 141/56/202 146/57/202
f 144/46/203 146/50/203 147/54/203
f 148/43/204 150/44/204 149/45/204
f 150/44/205 151/46/205 152/47/205
f 152/47/206 151/46/206 154/48/206
f 150/49/207 153/50/207 151/46/207
f 152/47/208 154/48/208 149/51/208
f 150/44/209 152/52/209 149/45/209
f 148/43/210 149/45/210 154/53/210
f 154/54/211 153/50/211 148/55/211
f 150/49/212 148/56/212 153/57/212
f 151/46/213 153/50/213 154/54/213
f 204/43/281 206/44/281 205/45/281
f 206/44/282 207/46/282 208/47/282
f 208/47/283 207/46/283 210/48/283
f 206/49/284 209/50/284 207/46/284
f 208/47/285 210/48/285 205/51/285
f 206/44/286 208/52/286 205/45/286
f 204/43/287 205/45/287 210/53/287
f 210/54/288 209/50/288 204/55/288
f 206/49/289 204/56/289 209/57/289
f 207/46/290 209/50/290 210/54/290
f 218/43/301 220/44/301 219/45/301
f 220/44/302 221/46/302 222/47/302
f 222/47/303 221/46/303 224/48/303
f 220/49/304 223/50/304 221/46/304
f 222/47/305 224/48/305 219/51/305
f 220/44/306 222/52/306 219/45/306
f 218/43/307 219/45/307 224/53/307
f 224/54/308 223/50/308 218/55/308
f 220/49/309 218/56/309 223/57/309
f 221/46/310 223/50/310 224/54/310
f 225/43/311 227/44/311 226/45/311
f 227/44/312 228/46/312 229/47/312
f 229/47/313 228/46/313 231/48/313
f 227/49/314 230/50/314 228/46/314
f 229/47/315 231/48/315 226/51/315
f 227/44/316 229/52/316 226/45/316
f 225/43/317 226/45/317 231/53/317
f 231/54/318 230/50/318 225/55/318
f 227/49/319 225/56/319 230/57/319
f 228/46/320 230/50/320 231/54/320
f 246/43/339 248/44/339 247/45/339
f 248/44/340 249/46/340 250/47/340
f 250/47/341 249/46/341 252/48/341
f 248/49/342 251/50/342 249/46/342
f 250/47/343 252/48/343 247/51/343
f 248/44/344 250/52/344 247/45/344
f 246/43/345 247/45/345 252/53/345
f 252/54/346 251/50/346 246/55/346
f 248/49/347 246/56/347 251/57/347
f 249/46/348 251/50/348 252/54/348
f 330/43/456 332/44/456 331/45/456
f 332/44/457 333/46/457 334/47/457
f 334/47/458 333/46/458 336/48/458
f 332/49/459 335/50/459 333/46/459
f 334/47/460 336/48/460 331/51/460
f 332/44/461 334/52/461 331/45/461
f 330/43/462 331/45/462 336/53/462
f 336/54/463 335/50/463 330/55/463
f 332/49/464 330/56/464 335/57/464
f 333/46/465 335/50/465 336/54/465
f 393/43/543 395/44/543 394/45/543
f 395/44/544 396/46/544 397/47/544
f 397/47/545 396/46/545 399/48/545
f 395/49/546 398/50/546 396/46/546
f 397/47/547 399/48/547 394/51/547
f 395/44/548 397/52/548 394/45/548
f 393/43/549 394/45/549 399/53/549
f 399/54/550 398/50/550 393/55/550
f 395/49/551 393/56/551 398/57/551
f 396/46/552 398/50/552 399/54/552
usemtl stone1.002
f 5/1/1 3/2/1 2/3/1
f 6/4/2 3/2/2 1/5/2
f 5/6/3 2/3/3 7/7/3
f 7/7/4 4/8/4 5/6/4
f 5/1/5 4/9/5 3/2/5
f 2/10/6 1/5/6 7/11/6
f 2/3/7 6/4/7 1/5/7
f 1/5/8 3/2/8 4/12/8
f 2/3/9 3/2/9 6/4/9
f 1/13/10 4/8/10 7/7/10
f 40/1/49 38/2/49 37/3/49
f 41/4/50 38/2/50 36/5/50
f 40/6/51 37/3/51 42/7/51
f 42/7/52 39/8/52 40/6/52
f 40/1/53 39/9/53 38/2/53
f 37/10/54 36/5/54 42/11/54
f 37/3/55 41/4/55 36/5/55
f 36/5/56 38/2/56 39/12/56
f 37/3/57 38/2/57 41/4/57
f 36/13/58 39/8/58 42/7/58
f 75/1/98 73/2/98 72/3/98
f 76/4/99 73/2/99 71/5/99
f 75/6/100 72/3/100 77/7/100
f 77/7/101 74/8/101 75/6/101
f 75/1/102 74/9/102 73/2/102
f 72/10/103 71/5/103 77/11/103
f 72/3/104 76/4/104 71/5/104
f 71/5/105 73/2/105 74/12/105
f 72/3/106 73/2/106 76/4/106
f 71/13/107 74/8/107 77/7/107
f 138/1/184 136/2/184 135/3/184
f 139/4/185 136/2/185 134/5/185
f 138/6/186 135/3/186 140/7/186
f 140/7/187 137/8/187 138/6/187
f 138/1/188 137/9/188 136/2/188
f 135/10/189 134/5/189 140/11/189
f 135/3/190 139/4/190 134/5/190
f 134/5/191 136/2/191 137/12/191
f 135/3/192 136/2/192 139/4/192
f 134/13/193 137/8/193 140/7/193
f 180/1/243 178/2/243 177/3/243
f 181/4/244 178/2/244 176/5/244
f 180/6/245 177/3/245 182/7/245
f 182/7/246 179/8/246 180/6/246
f 180/1/247 179/9/247 178/2/247
f 177/10/248 176/5/248 182/11/248
f 177/3/249 181/4/249 176/5/249
f 176/5/250 178/2/250 179/12/250
f 177/3/251 178/2/251 181/4/251
f 176/13/252 179/8/252 182/7/252
f 215/1/291 213/2/291 212/3/291
f 216/4/292 213/2/292 211/5/292
f 215/6/293 212/3/293 217/7/293
f 217/7/294 214/8/294 215/6/294
f 215/1/295 214/9/295 213/2/295
f 212/10/296 211/5/296 217/11/296
f 212/3/297 216/4/297 211/5/297
f 211/5/298 213/2/298 214/12/298
f 212/3/299 213/2/299 216/4/299
f 211/13/300 214/8/300 217/7/300
f 257/1/349 255/2/349 254/3/349
f 258/4/350 255/2/350 253/5/350
f 257/6/351 254/3/351 259/7/351
f 259/7/352 256/8/352 257/6/352
f 257/1/353 256/9/353 255/2/353
f 254/10/354 253/5/354 259/11/354
f 254/3/355 258/4/355 253/5/355
f 253/5/356 255/2/356 256/12/356
f 254/3/357 255/2/357 258/4/357
f 253/13/358 256/8/358 259/7/358
f 264/1/359 262/2/359 261/3/359
f 265/4/360 262/2/360 260/5/360
f 264/6/361 261/3/361 266/7/361
f 266/7/362 263/8/362 264/6/362
f 264/1/363 263/9/363 262/2/363
f 261/10/364 260/5/364 266/11/364
f 261/3/365 265/4/365 260/5/365
f 260/5/366 262/2/366 263/12/366
f 261/3/367 262/2/367 265/4/367
f 260/13/368 263/8/368 266/7/368
f 292/1/398 290/2/398 289/3/398
f 293/4/399 290/2/399 288/5/399
f 292/6/400 289/3/400 294/7/400
f 294/7/401 291/8/401 292/6/401
f 292/1/402 291/9/402 290/2/402
f 289/10/403 288/5/403 294/11/403
f 289/3/404 293/4/404 288/5/404
f 288/5/405 290/2/405 291/12/405
f 289/3/406 290/2/406 293/4/406
f 288/13/407 291/8/407 294/7/407
f 306/1/417 304/2/417 303/3/417
f 307/4/418 304/2/418 302/5/418
f 306/6/419 303/3/419 308/7/419
f 308/7/420 305/8/420 306/6/420
f 306/1/421 305/9/421 304/2/421
f 303/10/422 302/5/422 308/11/422
f 303/3/423 307/4/423 302/5/423
f 302/5/424 304/2/424 305/12/424
f 303/3/425 304/2/425 307/4/425
f 302/13/426 305/8/426 308/7/426
f 341/1/466 339/2/466 338/3/466
f 342/4/467 339/2/467 337/5/467
f 341/6/468 338/3/468 343/7/468
f 343/7/469 340/8/469 341/6/469
f 341/1/470 340/9/470 339/2/470
f 338/10/471 337/5/471 343/11/471
f 338/3/472 342/4/472 337/5/472
f 337/5/473 339/2/473 340/12/473
f 338/3/474 339/2/474 342/4/474
f 337/13/475 340/8/475 343/7/475
f 411/1/562 409/2/562 408/3/562
f 412/4/563 409/2/563 407/5/563
f 411/6/564 408/3/564 413/7/564
f 413/7/565 410/8/565 411/6/565
f 411/1/566 410/9/566 409/2/566
f 408/10/567 407/5/567 413/11/567
f 408/3/568 412/4/568 407/5/568
f 407/5/569 409/2/569 410/12/569
f 408/3/570 409/2/570 412/4/570
f 407/13/571 410/8/571 413/7/571
usemtl stone2.001
f 121/88/165 124/89/165 120/90/165 125/91/165
f 121/88/166 122/92/166 124/93/166
f 124/94/167 126/95/167 120/96/167
f 126/95/168 122/97/168 125/98/168
f 125/91/169 122/99/169 123/100/169
f 121/88/170 123/100/170 122/92/170
f 125/91/171 123/100/171 121/88/171
f 126/95/172 125/98/172 120/96/172
f 124/94/173 122/97/173 126/95/173
f 191/88/262 194/89/262 190/90/262 195/91/262
f 191/88/263 192/92/263 194/93/263
f 194/94/264 196/95/264 190/96/264
f 196/95/265 192/97/265 195/98/265
f 195/91/266 192/99/266 193/100/266
f 191/88/267 193/100/267 192/92/267
f 195/91/268 193/100/268 191/88/268
f 196/95/269 195/98/269 190/96/269
f 194/94/270 192/97/270 196/95/270
f 240/88/330 243/89/330 239/90/330 244/91/330
f 240/88/331 241/92/331 243/93/331
f 243/94/332 245/95/332 239/96/332
f 245/95/333 241/97/333 244/98/333
f 244/91/334 241/99/334 242/100/334
f 240/88/335 242/100/335 241/92/335
f 244/91/336 242/100/336 240/88/336
f 245/95/337 244/98/337 239/96/337
f 243/94/338 241/97/338 245/95/338
f 345/88/476 348/89/476 344/90/476 349/91/476
f 345/88/477 346/92/477 348/93/477
f 348/94/478 350/95/478 344/96/478
f 350/95/479 346/97/479 349/98/479
f 349/91/480 346/99/480 347/100/480
f 345/88/481 347/100/481 346/92/481
f 349/91/482 347/100/482 345/88/482
f 350/95/483 349/98/483 344/96/483
f 348/94/484 346/97/484 350/95/484
f 352/88/485 355/89/485 351/90/485 356/91/485
f 352/88/486 353/92/486 355/93/486
f 355/94/487 357/95/487 351/96/487
f 357/95/488 353/97/488 356/98/488
f 356/91/489 353/99/489 354/100/489
f 352/88/490 354/100/490 353/92/490
f 356/91/491 354/100/491 352/88/491
f 357/95/492 356/98/492 351/96/492
f 355/94/493 353/97/493 357/95/493
f 415/88/572 418/89/572 414/90/572 419/91/572
f 415/88/573 416/92/573 418/93/573
f 418/94/574 420/95/574 414/96/574
f 420/95/575 416/97/575 419/98/575
f 419/91/576 416/99/576 417/100/576
f 415/88/577 417/100/577 416/92/577
f 419/91/578 417/100/578 415/88/578
f 420/95/579 419/98/579 414/96/579
f 418/94/580 416/97/580 420/95/580
f 429/88/591 432/89/591 428/90/591 433/91/591
f 429/88/592 430/92/592 432/93/592
f 432/94/593 434/95/593 428/96/593
f 434/95/594 430/97/594 433/98/594
f 433/91/595 430/99/595 431/100/595
f 429/88/596 431/100/596 430/92/596
f 433/91/597 431/100/597 429/88/597
f 434/95/598 433/98/598 428/96/598
f 432/94/599 430/97/599 434/95/599
usemtl stone1.003
f 78/74/108 84/75/108 79/76/108 80/77/108
f 81/78/109 78/79/109 80/80/109
f 84/81/110 83/82/110 79/83/110
f 82/84/111 83/82/111 84/81/111
f 78/85/112 81/86/112 84/81/112
f 81/86/113 82/84/113 84/81/113
f 80/80/114 82/87/114 81/78/114
f 79/83/115 83/82/115 80/80/115
f 83/82/116 82/87/116 80/80/116
f 183/74/253 189/75/253 184/76/253 185/77/253
f 186/78/254 183/79/254 185/80/254
f 189/81/255 188/82/255 184/83/255
f 187/84/256 188/82/256 189/81/256
f 183/85/257 186/86/257 189/81/257
f 186/86/258 187/84/258 189/81/258
f 185/80/259 187/87/259 186/78/259
f 184/83/260 188/82/260 185/80/260
f 188/82/261 187/87/261 185/80/261
f 274/74/379 280/75/379 275/76/379 276/77/379
f 277/78/380 274/79/380 276/80/380
f 280/81/381 279/82/381 275/83/381
f 278/84/382 279/82/382 280/81/382
f 274/85/383 277/86/383 280/81/383
f 277/86/384 278/84/384 280/81/384
f 276/80/385 278/87/385 277/78/385
f 275/83/386 279/82/386 276/80/386
f 279/82/387 278/87/387 276/80/387
f 365/74/504 371/75/504 366/76/504 367/77/504
f 368/78/505 365/79/505 367/80/505
f 371/81/506 370/82/506 366/83/506
f 369/84/507 370/82/507 371/81/507
f 365/85/508 368/86/508 371/81/508
f 368/86/509 369/84/509 371/81/509
f 367/80/510 369/87/510 368/78/510
f 366/83/511 370/82/511 367/80/511
f 370/82/512 369/87/512 367/80/512
f 400/74/553 406/75/553 401/76/553 402/77/553
f 403/78/554 400/79/554 402/80/554
f 406/81/555 405/82/555 401/83/555
f 404/84/556 405/82/556 406/81/556
f 400/85/557 403/86/557 406/81/557
f 403/86/558 404/84/558 406/81/558
f 402/80/559 404/87/559 403/78/559
f 401/83/560 405/82/560 402/80/560
f 405/82/561 404/87/561 402/80/561
usemtl stone2.002
f 56/58/69 53/59/69 50/60/69
f 51/61/70 52/62/70 50/63/70
f 55/64/71 54/65/71 53/66/71
f 51/67/72 54/65/72 55/64/72
f 50/68/73 52/69/73 56/70/73
f 56/58/74 55/64/74 53/59/74
f 52/62/75 55/64/75 56/70/75
f 51/61/76 55/71/76 52/62/76
f 54/72/77 51/61/77 50/63/77
f 50/63/78 53/73/78 54/72/78
f 161/58/214 158/59/214 155/60/214
f 156/61/215 157/62/215 155/63/215
f 160/64/216 159/65/216 158/66/216
f 156/67/217 159/65/217 160/64/217
f 155/68/218 157/69/218 161/70/218
f 161/58/219 160/64/219 158/59/219
f 157/62/220 160/64/220 161/70/220
f 156/61/221 160/71/221 157/62/221
f 159/72/222 156/61/222 155/63/222
f 155/63/223 158/73/223 159/72/223
f 168/58/224 165/59/224 162/60/224
f 163/61/225 164/62/225 162/63/225
f 167/64/226 166/65/226 165/66/226
f 163/67/227 166/65/227 167/64/227
f 162/68/228 164/69/228 168/70/228
f 168/58/229 167/64/229 165/59/229
f 164/62/230 167/64/230 168/70/230
f 163/61/231 167/71/231 164/62/231
f 166/72/232 163/61/232 162/63/232
f 162/63/233 165/73/233 166/72/233
f 273/58/369 270/59/369 267/60/369
f 268/61/370 269/62/370 267/63/370
f 272/64/371 271/65/371 270/66/371
f 268/67/372 271/65/372 272/64/372
f 267/68/373 269/69/373 273/70/373
f 273/58/374 272/64/374 270/59/374
f 269/62/375 272/64/375 273/70/375
f 268/61/376 272/71/376 269/62/376
f 271/72/377 268/61/377 267/63/377
f 267/63/378 270/73/378 271/72/378
f 364/58/494 361/59/494 358/60/494
f 359/61/495 360/62/495 358/63/495
f 363/64/496 362/65/496 361/66/496
f 359/67/497 362/65/497 363/64/497
f 358/68/498 360/69/498 364/70/498
f 364/58/499 363/64/499 361/59/499
f 360/62/500 363/64/500 364/70/500
f 359/61/501 363/71/501 360/62/501
f 362/72/502 359/61/502 358/63/502
f 358/63/503 361/73/503 362/72/503
f 378/58/513 375/59/513 372/60/513
f 373/61/514 374/62/514 372/63/514
f 377/64/515 376/65/515 375/66/515
f 373/67/516 376/65/516 377/64/516
f 372/68/517 374/69/517 378/70/517
f 378/58/518 377/64/518 375/59/518
f 374/62/519 377/64/519 378/70/519
f 373/61/520 377/71/520 374/62/520
f 376/72/521 373/61/521 372/63/521
f 372/63/522 375/73/522 376/72/522
f 385/58/523 382/59/523 379/60/523
f 380/61/524 381/62/524 379/63/524
f 384/64/525 383/65/525 382/66/525
f 380/67/526 383/65/526 384/64/526
f 379/68/527 381/69/527 385/70/527
f 385/58/528 384/64/528 382/59/528
f 381/62/529 384/64/529 385/70/529
f 380/61/530 384/71/530 381/62/530
f 383/72/531 380/61/531 379/63/531
f 379/63/532 382/73/532 383/72/532
f 392/58/533 389/59/533 386/60/533
f 387/61/534 388/62/534 386/63/534
f 391/64/535 390/65/535 389/66/535
f 387/67/536 390/65/536 391/64/536
f 386/68/537 388/69/537 392/70/537
f 392/58/538 391/64/538 389/59/538
f 388/62/539 391/64/539 392/70/539
f 387/61/540 391/71/540 388/62/540
f 390/72/541 387/61/541 386/63/541
f 386/63/542 389/73/542 390/72/542
